<svg width="179" height="79" viewBox="0 0 179 79" fill="none" xmlns="http://www.w3.org/2000/svg">
<g filter="url(#filter0_d_1778_17213)">
<path d="M79.3777 32L83.0497 16.16H89.3137C90.9137 16.16 92.2417 16.432 93.2977 16.976C94.3537 17.504 95.1457 18.256 95.6737 19.232C96.2017 20.192 96.4657 21.328 96.4657 22.64C96.4657 24.064 96.2737 25.352 95.8897 26.504C95.5057 27.656 94.9297 28.64 94.1617 29.456C93.4097 30.272 92.4897 30.904 91.4017 31.352C90.3137 31.784 89.0577 32 87.6337 32H79.3777ZM85.9057 28.016H87.2257C87.8817 28.016 88.4417 27.848 88.9057 27.512C89.3857 27.176 89.7697 26.736 90.0577 26.192C90.3457 25.648 90.5537 25.056 90.6817 24.416C90.8257 23.76 90.8977 23.12 90.8977 22.496C90.8977 21.984 90.8177 21.552 90.6577 21.2C90.4977 20.848 90.2577 20.584 89.9377 20.408C89.6177 20.232 89.2097 20.144 88.7137 20.144H87.7057L85.9057 28.016ZM101.721 32.24C101.017 32.24 100.369 32.08 99.7773 31.76C99.2013 31.424 98.7453 30.928 98.4093 30.272C98.0733 29.6 97.9053 28.752 97.9053 27.728C97.9053 26.784 98.0333 25.84 98.2893 24.896C98.5453 23.952 98.9213 23.096 99.4173 22.328C99.9133 21.544 100.521 20.92 101.241 20.456C101.961 19.992 102.785 19.76 103.713 19.76C104.129 19.76 104.553 19.84 104.985 20C105.417 20.16 105.801 20.432 106.137 20.816C106.473 21.184 106.697 21.712 106.809 22.4L107.361 20H112.881L110.097 32H105.057L105.465 29.72C105.065 30.504 104.537 31.12 103.881 31.568C103.241 32.016 102.521 32.24 101.721 32.24ZM104.361 28.352C104.649 28.352 104.905 28.24 105.129 28.016C105.353 27.776 105.537 27.472 105.681 27.104C105.841 26.736 105.953 26.36 106.017 25.976C106.097 25.576 106.137 25.224 106.137 24.92C106.137 24.648 106.097 24.424 106.017 24.248C105.953 24.056 105.849 23.912 105.705 23.816C105.577 23.72 105.409 23.672 105.201 23.672C104.865 23.672 104.577 23.8 104.337 24.056C104.113 24.296 103.929 24.6 103.785 24.968C103.641 25.32 103.529 25.688 103.449 26.072C103.385 26.44 103.353 26.744 103.353 26.984C103.353 27.256 103.385 27.496 103.449 27.704C103.529 27.912 103.641 28.072 103.785 28.184C103.929 28.296 104.121 28.352 104.361 28.352ZM112.885 32L115.669 20H120.589L119.869 24.584L119.677 24.104C120.013 22.728 120.605 21.664 121.453 20.912C122.301 20.144 123.341 19.76 124.573 19.76C125.389 19.76 126.069 19.944 126.613 20.312C127.157 20.664 127.533 21.168 127.741 21.824C127.949 22.48 127.949 23.264 127.741 24.176L125.917 32H120.397L122.029 25.04C122.109 24.672 122.077 24.384 121.933 24.176C121.805 23.952 121.581 23.84 121.261 23.84C121.037 23.84 120.837 23.904 120.661 24.032C120.485 24.144 120.333 24.32 120.205 24.56C120.093 24.784 119.997 25.072 119.917 25.424L118.405 32H112.885ZM134.657 19.232C133.745 19.232 133.041 19.064 132.545 18.728C132.065 18.392 131.889 17.816 132.017 17C132.145 16.104 132.457 15.488 132.953 15.152C133.465 14.8 134.209 14.624 135.185 14.624C136.129 14.624 136.841 14.8 137.321 15.152C137.817 15.488 138.001 16.032 137.873 16.784C137.745 17.76 137.417 18.416 136.889 18.752C136.377 19.072 135.633 19.232 134.657 19.232ZM137.009 20L134.225 32H128.705L131.489 20H137.009ZM144.367 32.216C143.135 32.216 142.031 32 141.055 31.568C140.095 31.136 139.343 30.512 138.799 29.696C138.255 28.864 137.983 27.88 137.983 26.744C137.983 25.336 138.271 24.112 138.847 23.072C139.439 22.016 140.263 21.2 141.319 20.624C142.391 20.048 143.639 19.76 145.063 19.76C146.359 19.76 147.463 19.992 148.375 20.456C149.287 20.904 149.975 21.528 150.439 22.328C150.919 23.128 151.159 24.056 151.159 25.112C151.159 25.416 151.143 25.736 151.111 26.072C151.079 26.408 151.015 26.736 150.919 27.056H141.751L141.727 25.016H147.103L145.783 25.52C145.863 25.296 145.903 25.112 145.903 24.968C145.919 24.824 145.927 24.688 145.927 24.56C145.927 24.256 145.879 24.024 145.783 23.864C145.703 23.688 145.591 23.568 145.447 23.504C145.303 23.424 145.143 23.384 144.967 23.384C144.551 23.384 144.207 23.504 143.935 23.744C143.679 23.984 143.479 24.296 143.335 24.68C143.207 25.064 143.119 25.472 143.071 25.904C143.023 26.336 142.999 26.736 142.999 27.104C142.999 27.472 143.063 27.768 143.191 27.992C143.319 28.216 143.495 28.376 143.719 28.472C143.959 28.568 144.223 28.616 144.511 28.616C144.927 28.616 145.247 28.512 145.471 28.304C145.711 28.08 145.879 27.824 145.975 27.536L150.583 29.024C150.343 29.696 149.919 30.272 149.311 30.752C148.703 31.232 147.975 31.6 147.127 31.856C146.279 32.096 145.359 32.216 144.367 32.216ZM157.157 32.24C155.509 32.24 154.341 31.808 153.653 30.944C152.965 30.064 152.797 28.872 153.149 27.368L155.981 15.2H161.501L158.717 27.224C158.605 27.688 158.621 28.04 158.765 28.28C158.909 28.52 159.197 28.64 159.629 28.64C159.789 28.64 159.925 28.632 160.037 28.616C160.165 28.6 160.261 28.584 160.325 28.568L159.437 31.928C159.181 32.04 158.869 32.12 158.501 32.168C158.133 32.216 157.685 32.24 157.157 32.24ZM82.6974 55.24C81.2414 55.24 79.9534 54.96 78.8334 54.4C77.7294 53.824 76.8574 53.024 76.2174 52C75.5934 50.96 75.2814 49.752 75.2814 48.376C75.2814 46.92 75.4814 45.616 75.8814 44.464C76.2974 43.296 76.8894 42.304 77.6574 41.488C78.4254 40.656 79.3614 40.024 80.4654 39.592C81.5694 39.144 82.8174 38.92 84.2094 38.92C85.5214 38.92 86.6814 39.144 87.6894 39.592C88.7134 40.04 89.5374 40.688 90.1614 41.536C90.8014 42.368 91.1934 43.376 91.3374 44.56L86.0574 45.592C86.0894 44.792 85.9534 44.184 85.6494 43.768C85.3614 43.336 84.8654 43.12 84.1614 43.12C83.5694 43.12 83.0574 43.304 82.6254 43.672C82.2094 44.04 81.8654 44.512 81.5934 45.088C81.3214 45.648 81.1214 46.248 80.9934 46.888C80.8814 47.528 80.8254 48.128 80.8254 48.688C80.8254 49.168 80.8974 49.584 81.0414 49.936C81.2014 50.288 81.4414 50.56 81.7614 50.752C82.0814 50.944 82.5054 51.04 83.0334 51.04C83.6894 51.04 84.2014 50.832 84.5694 50.416C84.9534 50 85.2734 49.464 85.5294 48.808L90.4494 50.608C89.7454 52.064 88.7534 53.2 87.4734 54.016C86.2094 54.832 84.6174 55.24 82.6974 55.24ZM91.37 55L94.154 43H99.122L98.09 48.424L97.97 47.872C98.226 46.864 98.554 45.976 98.954 45.208C99.354 44.44 99.866 43.84 100.49 43.408C101.13 42.976 101.906 42.76 102.818 42.76C103.09 42.76 103.314 42.784 103.49 42.832C103.666 42.864 103.81 42.912 103.922 42.976L102.65 47.488C102.49 47.408 102.298 47.344 102.074 47.296C101.85 47.248 101.554 47.224 101.186 47.224C100.754 47.224 100.322 47.32 99.89 47.512C99.474 47.688 99.098 47.984 98.762 48.4C98.442 48.816 98.194 49.384 98.018 50.104L96.89 55H91.37ZM110.408 55.216C109.176 55.216 108.072 55 107.096 54.568C106.136 54.136 105.384 53.512 104.84 52.696C104.296 51.864 104.024 50.88 104.024 49.744C104.024 48.336 104.312 47.112 104.888 46.072C105.48 45.016 106.304 44.2 107.36 43.624C108.432 43.048 109.68 42.76 111.104 42.76C112.4 42.76 113.504 42.992 114.416 43.456C115.328 43.904 116.016 44.528 116.48 45.328C116.96 46.128 117.2 47.056 117.2 48.112C117.2 48.416 117.184 48.736 117.152 49.072C117.12 49.408 117.056 49.736 116.96 50.056H107.792L107.768 48.016H113.144L111.824 48.52C111.904 48.296 111.944 48.112 111.944 47.968C111.96 47.824 111.968 47.688 111.968 47.56C111.968 47.256 111.92 47.024 111.824 46.864C111.744 46.688 111.632 46.568 111.488 46.504C111.344 46.424 111.184 46.384 111.008 46.384C110.592 46.384 110.248 46.504 109.976 46.744C109.72 46.984 109.52 47.296 109.376 47.68C109.248 48.064 109.16 48.472 109.112 48.904C109.064 49.336 109.04 49.736 109.04 50.104C109.04 50.472 109.104 50.768 109.232 50.992C109.36 51.216 109.536 51.376 109.76 51.472C110 51.568 110.264 51.616 110.552 51.616C110.968 51.616 111.288 51.512 111.512 51.304C111.752 51.08 111.92 50.824 112.016 50.536L116.624 52.024C116.384 52.696 115.96 53.272 115.352 53.752C114.744 54.232 114.016 54.6 113.168 54.856C112.32 55.096 111.4 55.216 110.408 55.216ZM122.79 55.24C122.086 55.24 121.438 55.08 120.846 54.76C120.27 54.424 119.814 53.928 119.478 53.272C119.142 52.6 118.974 51.752 118.974 50.728C118.974 49.784 119.102 48.84 119.358 47.896C119.614 46.952 119.99 46.096 120.486 45.328C120.982 44.544 121.59 43.92 122.31 43.456C123.03 42.992 123.854 42.76 124.782 42.76C125.198 42.76 125.622 42.84 126.054 43C126.486 43.16 126.87 43.432 127.206 43.816C127.542 44.184 127.766 44.712 127.878 45.4L128.43 43H133.95L131.166 55H126.126L126.534 52.72C126.134 53.504 125.606 54.12 124.95 54.568C124.31 55.016 123.59 55.24 122.79 55.24ZM125.43 51.352C125.718 51.352 125.974 51.24 126.198 51.016C126.422 50.776 126.606 50.472 126.75 50.104C126.91 49.736 127.022 49.36 127.086 48.976C127.166 48.576 127.206 48.224 127.206 47.92C127.206 47.648 127.166 47.424 127.086 47.248C127.022 47.056 126.918 46.912 126.774 46.816C126.646 46.72 126.478 46.672 126.27 46.672C125.934 46.672 125.646 46.8 125.406 47.056C125.182 47.296 124.998 47.6 124.854 47.968C124.71 48.32 124.598 48.688 124.518 49.072C124.454 49.44 124.422 49.744 124.422 49.984C124.422 50.256 124.454 50.496 124.518 50.704C124.598 50.912 124.71 51.072 124.854 51.184C124.998 51.296 125.19 51.352 125.43 51.352ZM141.03 55.24C139.894 55.24 138.934 55.056 138.15 54.688C137.366 54.304 136.814 53.736 136.494 52.984C136.19 52.216 136.166 51.256 136.422 50.104L138.654 40.456L144.534 38.92L141.99 49.888C141.83 50.432 141.886 50.864 142.158 51.184C142.446 51.488 142.91 51.64 143.55 51.64C143.902 51.64 144.166 51.624 144.342 51.592C144.534 51.56 144.71 51.52 144.87 51.472L144.198 54.784C143.75 54.944 143.246 55.056 142.686 55.12C142.142 55.2 141.59 55.24 141.03 55.24ZM135.126 46.72L135.99 43H146.574L145.71 46.72H135.126ZM153.691 55.24C152.427 55.24 151.323 55.008 150.379 54.544C149.451 54.08 148.723 53.44 148.195 52.624C147.683 51.792 147.427 50.84 147.427 49.768C147.427 48.52 147.699 47.368 148.243 46.312C148.787 45.24 149.595 44.384 150.667 43.744C151.755 43.088 153.107 42.76 154.723 42.76C155.987 42.76 157.083 42.992 158.011 43.456C158.955 43.92 159.683 44.568 160.195 45.4C160.723 46.216 160.987 47.16 160.987 48.232C160.987 49.464 160.715 50.616 160.171 51.688C159.627 52.76 158.811 53.624 157.723 54.28C156.651 54.92 155.307 55.24 153.691 55.24ZM153.739 51.544C154.043 51.544 154.307 51.408 154.531 51.136C154.771 50.864 154.971 50.52 155.131 50.104C155.291 49.672 155.411 49.24 155.491 48.808C155.571 48.36 155.611 47.968 155.611 47.632C155.611 47.328 155.563 47.096 155.467 46.936C155.387 46.76 155.275 46.64 155.131 46.576C154.987 46.496 154.827 46.456 154.651 46.456C154.347 46.456 154.075 46.592 153.835 46.864C153.611 47.136 153.419 47.488 153.259 47.92C153.099 48.336 152.979 48.768 152.899 49.216C152.819 49.648 152.779 50.032 152.779 50.368C152.779 50.656 152.819 50.888 152.899 51.064C152.995 51.24 153.115 51.368 153.259 51.448C153.403 51.512 153.563 51.544 153.739 51.544ZM161.912 55L164.696 43H169.664L168.632 48.424L168.512 47.872C168.768 46.864 169.096 45.976 169.496 45.208C169.896 44.44 170.408 43.84 171.032 43.408C171.672 42.976 172.448 42.76 173.36 42.76C173.632 42.76 173.856 42.784 174.032 42.832C174.208 42.864 174.352 42.912 174.464 42.976L173.192 47.488C173.032 47.408 172.84 47.344 172.616 47.296C172.392 47.248 172.096 47.224 171.728 47.224C171.296 47.224 170.864 47.32 170.432 47.512C170.016 47.688 169.64 47.984 169.304 48.4C168.984 48.816 168.736 49.384 168.56 50.104L167.432 55H161.912Z" fill="black"/>
</g>
<path d="M32.311 31.6156C28.9438 27.7266 30.082 31.5207 24.8652 27.0152C31.3625 25.8296 29.8923 26.4936 32.311 31.6156Z" stroke="#F5F5F5" stroke-width="0.5"/>
<path d="M30.5089 29.2614C28.5732 28.9727 27.6534 28.5478 26.3354 27.2695C26.3354 27.2695 27.3884 27.1671 28.1376 27.2695C28.8868 27.3719 28.1376 28.1706 30.1526 28.5276C30.4905 28.8042 30.6512 29.3089 30.5089 29.2614Z" fill="#F5F5F5"/>
<path d="M41.8774 31.6156C45.2446 27.7266 44.1064 31.5208 49.3232 27.0152C42.826 25.8297 44.2961 26.4936 41.8774 31.6156Z" stroke="#F5F5F5" stroke-width="0.5"/>
<path d="M43.6796 29.2614C45.6153 28.9727 46.535 28.5478 47.853 27.2696C47.853 27.2696 46.8 27.1672 46.0509 27.2696C45.3017 27.372 46.0509 28.1707 44.0359 28.5276C43.698 28.8043 43.5373 29.3089 43.6796 29.2614Z" fill="#F5F5F5"/>
<g filter="url(#filter1_d_1778_17213)">
<path d="M32.311 31.6156C28.9438 27.7266 30.082 31.5207 24.8652 27.0152C31.3625 25.8296 29.8923 26.4936 32.311 31.6156Z" stroke="url(#paint0_linear_1778_17213)" stroke-width="0.5" shape-rendering="crispEdges"/>
</g>
<g filter="url(#filter2_d_1778_17213)">
<path d="M30.5089 29.2614C28.5732 28.9727 27.6534 28.5478 26.3354 27.2695C26.3354 27.2695 27.3884 27.1671 28.1376 27.2695C28.8868 27.3719 28.1376 28.1706 30.1526 28.5276C30.4905 28.8042 30.6512 29.3089 30.5089 29.2614Z" fill="url(#paint1_linear_1778_17213)" shape-rendering="crispEdges"/>
</g>
<g filter="url(#filter3_d_1778_17213)">
<path d="M41.8774 31.6156C45.2446 27.7266 44.1064 31.5208 49.3232 27.0152C42.826 25.8297 44.2961 26.4936 41.8774 31.6156Z" stroke="url(#paint2_linear_1778_17213)" stroke-width="0.5" shape-rendering="crispEdges"/>
</g>
<g filter="url(#filter4_d_1778_17213)">
<path d="M43.6796 29.2614C45.6153 28.9727 46.535 28.5478 47.853 27.2696C47.853 27.2696 46.8 27.1672 46.0509 27.2696C45.3017 27.372 46.0509 28.1707 44.0359 28.5276C43.698 28.8043 43.5373 29.3089 43.6796 29.2614Z" fill="url(#paint3_linear_1778_17213)"/>
</g>
<g filter="url(#filter5_d_1778_17213)">
<path d="M10.5469 37.7175C10.5469 38.1104 10.2284 38.4289 9.83556 38.4289C9.44267 38.4289 9.12417 38.1104 9.12417 37.7175C9.12417 37.3246 9.44267 37.0061 9.83556 37.0061C9.9957 37.0061 10.1435 37.059 10.2624 37.1483C10.4352 37.2781 10.5469 37.4847 10.5469 37.7175Z" fill="url(#paint4_radial_1778_17213)"/>
<path d="M14.6255 48.7532C14.6255 49.1461 14.307 49.4646 13.9141 49.4646C13.5213 49.4646 13.2028 49.1461 13.2028 48.7532C13.2028 48.5472 13.2903 48.3616 13.4303 48.2317C13.5573 48.1139 13.7273 48.0418 13.9141 48.0418C14.147 48.0418 14.3536 48.1537 14.4834 48.3265C14.5727 48.4454 14.6255 48.5931 14.6255 48.7532Z" fill="url(#paint5_radial_1778_17213)"/>
<path d="M17.6098 55.1084C17.6098 55.5013 17.2913 55.8198 16.8985 55.8198C16.5056 55.8198 16.1871 55.5013 16.1871 55.1084C16.1871 54.8791 16.2956 54.6751 16.464 54.545C16.5842 54.4522 16.7349 54.397 16.8985 54.397C17.062 54.397 17.2127 54.4522 17.3329 54.545C17.3804 54.5817 17.4231 54.6242 17.4599 54.6715C17.5539 54.7921 17.6098 54.9437 17.6098 55.1084Z" fill="url(#paint6_radial_1778_17213)"/>
<path d="M20.1234 53.1171C20.1234 53.51 19.8049 53.8285 19.412 53.8285C19.0191 53.8285 18.7006 53.51 18.7006 53.1171C18.7006 52.7242 19.0191 52.4057 19.412 52.4057C19.8049 52.4057 20.1234 52.7242 20.1234 53.1171Z" fill="url(#paint7_radial_1778_17213)"/>
<path d="M23.5304 41.687C23.5304 42.0799 23.2119 42.3984 22.819 42.3984C22.4261 42.3984 22.1076 42.0799 22.1076 41.687C22.1076 41.2941 22.4261 40.9756 22.819 40.9756C23.2119 40.9756 23.5304 41.2941 23.5304 41.687Z" fill="url(#paint8_radial_1778_17213)"/>
<path d="M37.8055 64.0718C37.8055 64.4647 37.487 64.7832 37.0941 64.7832C36.7012 64.7832 36.3827 64.4647 36.3827 64.0718C36.3827 63.6789 36.7012 63.3604 37.0941 63.3604C37.487 63.3604 37.8055 63.6789 37.8055 64.0718Z" fill="url(#paint9_radial_1778_17213)"/>
<path d="M9.64236 29.7358C9.64236 30.1287 9.32387 30.4471 8.93098 30.4471C8.53809 30.4471 8.2196 30.1287 8.2196 29.7358C8.2196 29.4591 8.37749 29.2194 8.60807 29.1017C8.70498 29.0523 8.81472 29.0244 8.93098 29.0244C9.26506 29.0244 9.54536 29.2547 9.62178 29.5652C9.63523 29.6198 9.64236 29.677 9.64236 29.7358Z" fill="url(#paint10_radial_1778_17213)"/>
<path d="M10.7729 20.1488C10.7729 20.5416 10.4545 20.8601 10.0616 20.8601C9.66868 20.8601 9.35018 20.5416 9.35018 20.1488C9.35018 19.7559 9.66868 19.4374 10.0616 19.4374C10.4545 19.4374 10.7729 19.7559 10.7729 20.1488Z" fill="url(#paint11_radial_1778_17213)"/>
<path d="M25.1492 54.2072C25.1492 54.6001 24.8307 54.9186 24.4378 54.9186C24.0449 54.9186 23.7264 54.6001 23.7264 54.2072C23.7264 53.8143 24.0449 53.4958 24.4378 53.4958C24.8307 53.4958 25.1492 53.8143 25.1492 54.2072Z" fill="url(#paint12_radial_1778_17213)"/>
<path d="M26.1862 63.977C26.1862 64.3698 25.8677 64.6883 25.4748 64.6883C25.082 64.6883 24.7635 64.3698 24.7635 63.977C24.7635 63.5841 25.082 63.2656 25.4748 63.2656C25.8677 63.2656 26.1862 63.5841 26.1862 63.977Z" fill="url(#paint13_radial_1778_17213)"/>
<path d="M63.6412 37.7175C63.6412 38.1104 63.9597 38.4289 64.3526 38.4289C64.7455 38.4289 65.064 38.1104 65.064 37.7175C65.064 37.3246 64.7455 37.0061 64.3526 37.0061C64.1925 37.0061 64.0447 37.059 63.9258 37.1483C63.753 37.2781 63.6412 37.4847 63.6412 37.7175Z" fill="url(#paint14_radial_1778_17213)"/>
<path d="M59.5626 48.7532C59.5626 49.1461 59.8811 49.4646 60.274 49.4646C60.6669 49.4646 60.9854 49.1461 60.9854 48.7532C60.9854 48.5472 60.8978 48.3616 60.7578 48.2317C60.6309 48.1139 60.4609 48.0418 60.274 48.0418C60.0412 48.0418 59.8345 48.1537 59.7047 48.3265C59.6155 48.4454 59.5626 48.5931 59.5626 48.7532Z" fill="url(#paint15_radial_1778_17213)"/>
<path d="M56.5783 55.1084C56.5783 55.5013 56.8968 55.8198 57.2897 55.8198C57.6826 55.8198 58.0011 55.5013 58.0011 55.1084C58.0011 54.8791 57.8926 54.6751 57.7242 54.545C57.604 54.4522 57.4533 54.397 57.2897 54.397C57.1261 54.397 56.9754 54.4522 56.8553 54.545C56.8078 54.5817 56.7651 54.6242 56.7282 54.6715C56.6343 54.7921 56.5783 54.9437 56.5783 55.1084Z" fill="url(#paint16_radial_1778_17213)"/>
<path d="M54.0648 53.1171C54.0648 53.51 54.3833 53.8285 54.7762 53.8285C55.169 53.8285 55.4875 53.51 55.4875 53.1171C55.4875 52.7242 55.169 52.4057 54.7762 52.4057C54.3833 52.4057 54.0648 52.7242 54.0648 53.1171Z" fill="url(#paint17_radial_1778_17213)"/>
<path d="M50.6578 41.687C50.6578 42.0799 50.9763 42.3984 51.3691 42.3984C51.762 42.3984 52.0805 42.0799 52.0805 41.687C52.0805 41.2941 51.762 40.9756 51.3691 40.9756C50.9763 40.9756 50.6578 41.2941 50.6578 41.687Z" fill="url(#paint18_radial_1778_17213)"/>
<path d="M64.5458 29.7358C64.5458 30.1287 64.8643 30.4471 65.2572 30.4471C65.6501 30.4471 65.9686 30.1287 65.9686 29.7358C65.9686 29.4591 65.8107 29.2194 65.5801 29.1017C65.4832 29.0523 65.3734 29.0244 65.2572 29.0244C64.9231 29.0244 64.6428 29.2547 64.5664 29.5652C64.5529 29.6198 64.5458 29.677 64.5458 29.7358Z" fill="url(#paint19_radial_1778_17213)"/>
<path d="M63.4152 20.1488C63.4152 20.5416 63.7337 20.8601 64.1266 20.8601C64.5195 20.8601 64.838 20.5416 64.838 20.1488C64.838 19.7559 64.5195 19.4374 64.1266 19.4374C63.7337 19.4374 63.4152 19.7559 63.4152 20.1488Z" fill="url(#paint20_radial_1778_17213)"/>
<path d="M49.039 54.2072C49.039 54.6001 49.3575 54.9186 49.7504 54.9186C50.1433 54.9186 50.4618 54.6001 50.4618 54.2072C50.4618 53.8143 50.1433 53.4958 49.7504 53.4958C49.3575 53.4958 49.039 53.8143 49.039 54.2072Z" fill="url(#paint21_radial_1778_17213)"/>
<path d="M48.0019 63.977C48.0019 64.3698 48.3204 64.6883 48.7133 64.6883C49.1062 64.6883 49.4247 64.3698 49.4247 63.977C49.4247 63.5841 49.1062 63.2656 48.7133 63.2656C48.3204 63.2656 48.0019 63.5841 48.0019 63.977Z" fill="url(#paint22_radial_1778_17213)"/>
<path fill-rule="evenodd" clip-rule="evenodd" d="M24.202 61.4159C24.5807 59.2343 23.2535 57.2898 23.1112 54.8711C23.7737 56.1291 24.3853 57.2237 24.9532 58.1784C25.1814 58.5622 25.4026 58.9233 25.6171 59.2634C31.2875 68.2514 32.3178 62.5004 37.0941 70C41.8703 62.5004 42.9006 68.2514 48.571 59.2634C48.7856 58.9233 49.0067 58.5622 49.235 58.1784C49.8028 57.2237 50.4145 56.1291 51.077 54.8711C50.9347 57.2898 49.6074 59.2343 49.9862 61.4159C50.8841 60.4419 51.7868 59.8537 52.5472 59.3645L52.5917 59.3359C52.7438 59.2381 52.89 59.1441 53.029 59.0515C53.1998 58.9378 53.3598 58.8264 53.5069 58.7127C53.8927 58.4147 54.1894 58.1019 54.3569 57.6958C54.6149 57.0705 54.5665 56.2243 54.0648 54.8711C54.8832 55.3622 55.5688 56.918 56.3688 58.1435C56.9596 59.0484 57.6128 59.7731 58.4279 59.756C58.1908 55.8671 60.894 54.8711 58.0011 49.1326C59.5661 51.5513 61.1312 51.2668 61.7003 54.2072C64.3087 51.6462 63.6447 48.279 60.7043 44.6272C63.3127 47.0933 64.2593 45.6956 66.348 49.4646C67.8182 43.2519 64.8778 43.157 63.455 38.5567C65.7315 41.1651 67.3418 40.0745 68.9068 42.3984C67.2447 32.0598 65.3025 32.5813 62.4117 30.0676C64.8282 30.0676 66.3941 33.3874 70.1882 33.6245C64.0227 24.3291 68.5758 16.8359 60.7031 15.2709C63.6412 15.5081 62.365 14.7802 66.0139 16.2669C62.658 11.4386 58.2004 7.53424 52.3177 8.44173C53.5494 6.94408 57.8093 8.15718 60.5125 8.15718C56.2442 3.79404 47.7323 4.61891 42.5403 7.82507C43.2496 3.84132 50.6005 4.12599 53.9219 4.12599C48.169 0.964177 43.4316 1.33862 40.2242 4.23931V3.36721C41.1537 2.23739 41.8169 1.83309 43.0697 1.23306C42.0083 1.07825 41.2877 1.08452 40.2242 1.61247L41.7418 0.663957C40.6663 0.0987183 39.8186 0.0273072 38.3271 0V5.07452L37.6158 6.11789V0H37.0941H36.5724V6.11789L35.861 5.07452V0C34.3696 0.0273072 33.5218 0.0987183 32.4464 0.663957L33.964 1.61247C32.9004 1.08452 32.1799 1.07825 31.1185 1.23306C32.3712 1.83309 33.0344 2.23739 33.964 3.36721V4.23931C30.7566 1.33862 26.0192 0.964177 20.2663 4.12599C23.5876 4.12599 30.9386 3.84132 31.6479 7.82507C26.4558 4.61891 17.9439 3.79404 13.6756 8.15718C16.3789 8.15718 20.6388 6.94408 21.8705 8.44173C15.9878 7.53424 11.5301 11.4386 8.17429 16.2669C11.8231 14.7802 10.5469 15.5081 13.4851 15.2709C5.61236 16.8359 10.1654 24.3291 4 33.6245C7.79404 33.3874 9.35993 30.0676 11.7765 30.0676C8.88567 32.5813 6.94345 32.0598 5.28134 42.3984C6.84632 40.0745 8.45667 41.1651 10.7331 38.5567C9.31038 43.157 6.37001 43.2519 7.8402 49.4646C9.92886 45.6956 10.8754 47.0933 13.4838 44.6272C10.5434 48.279 9.87949 51.6462 12.4879 54.2072C13.057 51.2668 14.622 51.5513 16.1871 49.1326C13.2941 54.8711 15.9974 55.8671 15.7602 59.756C16.5754 59.7731 17.2286 59.0484 17.8193 58.1435C18.6194 56.918 19.305 55.3622 20.1234 54.8711C19.6217 56.2243 19.5732 57.0705 19.8312 57.6958C19.9987 58.1019 20.2955 58.4147 20.6812 58.7127C20.8283 58.8264 20.9884 58.9378 21.1591 59.0515C21.2982 59.144 21.4443 59.238 21.5963 59.3358L21.641 59.3645C22.4013 59.8537 23.3041 60.4419 24.202 61.4159ZM36.3641 43.1503C36.1936 44.6731 33.4702 46.2576 30.4359 46.8021C29.5443 46.5489 28.8481 46.1623 28.3498 45.6049C28.0439 45.2627 27.8126 44.8562 27.6564 44.3767C27.5723 44.1183 27.5099 43.8387 27.4695 43.5366C27.4283 43.2285 27.4099 42.897 27.4144 42.5406C27.4174 42.2993 27.431 42.0465 27.455 41.7818C27.4811 41.4955 27.5194 41.1954 27.5701 40.8808C27.751 39.7585 28.0892 38.4526 28.5863 36.9375L26.0727 37.9809C21.4376 32.3611 21.1574 29.3584 25.8137 22.3373C27.6157 20.4403 28.573 20.4526 30.3411 19.3902L28.5863 18.5365C32.6371 16.99 34.9127 17.2154 37.0941 21.294C39.2755 17.2154 41.551 16.99 45.6018 18.5365L43.8471 19.3902C45.6152 20.4526 46.5724 20.4403 48.3745 22.3373C53.0308 29.3584 52.7505 32.3611 48.1154 37.9809L45.6018 36.9375C47.6539 43.1913 46.9972 45.8808 43.7523 46.8021C40.718 46.2576 37.9946 44.6731 37.8241 43.1503C37.6903 40.5835 41.6655 40.5893 42.3295 39.7831C42.9934 38.9768 42.3295 36.9375 41.7604 36.1787L41.049 38.6923C41.049 38.6923 39.392 37.9326 37.0941 37.9177C34.7962 37.9326 33.1391 38.6923 33.1391 38.6923L32.4278 36.1787C31.8587 36.9375 31.1947 38.9768 31.8587 39.7831C32.5226 40.5893 36.4979 40.5835 36.3641 43.1503ZM30.4359 48.6516L37.0941 45.8604L43.7523 48.6516C43.8978 50.9185 43.5186 51.6977 42.3295 52.5406L41.8298 51.504C41.5382 52.5676 40.8235 53.4486 40.2428 53.7263L39.4366 51.924C39.0688 53.1807 37.6158 53.6856 37.0941 54.7764C36.5724 53.6856 35.1194 53.1807 34.7516 51.924L33.9454 53.7263C33.3646 53.4486 32.65 52.5676 32.3583 51.504L31.8587 52.5406C30.6695 51.6977 30.2903 50.9185 30.4359 48.6516ZM17.1865 18.5365C17.3453 19.6805 17.5715 20.3012 18.467 21.3346C12.8252 19.1528 18.896 8.29243 22.2153 13.7937C18.8482 11.8493 16.051 16.1175 18.5162 19.9116L17.1865 18.5365ZM19.3698 18.6786L19.0854 19.4374C16.6666 16.829 19.3224 13.2721 20.0812 14.9794L20.7452 15.5011C19.5461 16.3562 18.9894 17.3241 19.3698 18.6786ZM24.3477 23.0962L23.9683 23.6653C22.2975 24.0231 21.4699 24.3848 20.0945 25.1743C21.2684 23.8871 22.1725 23.3989 24.3477 23.0962ZM24.822 22.1003C22.449 22.367 21.3245 22.8081 19.6052 23.9973C21.2217 21.8741 22.5024 21.1775 25.8137 21.3346L24.822 22.1003ZM25.9128 20.4878C23.2924 20.3473 22.103 20.9609 20.0906 22.3373C22.0713 20.1558 22.7419 19.5872 26.9562 19.7764L25.9128 20.4878ZM25.3911 18.7805C22.6251 18.8862 21.5703 19.5023 20.2217 21.1992C21.2307 19.0257 22.2293 18.2942 24.6323 17.6897C25.0504 18.0077 25.2089 18.2533 25.3911 18.7805ZM25.1066 17.0732C22.6671 17.3991 21.254 18.3537 20.3055 19.6341C20.6374 16.836 24.5147 14.7572 29.612 16.0298C27.941 16.5041 26.6247 16.2217 25.0117 16.5989L25.1066 17.0732ZM28.711 13.7937C23.4942 13.3266 23.5889 14.7019 21.4074 16.4092C23.5889 15.5011 24.9444 14.4609 28.8058 14.7019L28.711 13.7937ZM26.0076 18.7805H27.2882C27.7067 18.0619 28.2545 17.7889 29.1378 17.2629L26.1973 17.3577L25.7231 18.164C25.7863 18.3695 25.9318 18.7805 26.0076 18.7805ZM23.9683 10.7182C27.8608 11.4968 29.076 12.7332 31.1297 15.0339C30.3122 11.0027 22.487 7.30352 16.8908 10.3862L18.467 10.7182C15.6594 11.4558 14.567 12.71 13.4851 14.3225C16.5225 12.8049 18.135 11.2873 22.261 10.7182L22.2153 11.6667C24.0352 12.1747 24.7745 12.4437 25.712 13.2317L26.5656 13.042C25.8815 11.9406 25.2668 11.7559 23.8261 11.2873L23.9683 10.7182ZM21.5022 27.1747L22.925 25.8469C18.3247 26.8902 15.7123 29.1396 12.444 32.1545L11.0212 32.0122C10.1506 33.0211 8.85211 34.1984 8.08081 35.3794V38.0826C8.99138 35.7815 9.98202 34.3928 11.0212 33.6245C12.5388 34.9526 15.0553 29.4874 21.5022 27.1747ZM18.5144 30.3049L21.8816 28.7398L22.0239 28.0285C20.1954 28.3634 18.4575 29.0998 14.5781 33.2453H13.5822C13.5189 33.7827 13.2502 35 13.2502 35C13.2502 35 13.7877 35.2371 13.9141 35.2371L14.1513 33.9566L15.2895 34.1463C15.2579 33.9092 15.2895 33.3875 15.2895 33.3875C15.2895 33.3875 17.4711 31.8541 18.5144 31.2534V30.3049ZM10.5469 37.7175C10.5469 38.1104 10.2284 38.4289 9.83556 38.4289C9.44267 38.4289 9.12417 38.1104 9.12417 37.7175C9.12417 37.3246 9.44267 37.0061 9.83556 37.0061C9.9957 37.0061 10.1435 37.059 10.2624 37.1483L11.7326 35.6165L13.9141 36.3279C17.1391 33.3875 17.9904 32.2484 21.8816 30.9688L20.696 32.6287C20.696 32.6287 19.4515 32.6934 14.2935 37.2764L12.7285 39.5054L11.7326 41.8293L8.93447 44.4851L11.3532 39.5054L12.7285 37.1483L11.8749 36.7073L10.5469 37.7175ZM14.6255 48.7532C14.6255 49.1461 14.307 49.4646 13.9141 49.4646C13.5213 49.4646 13.2028 49.1461 13.2028 48.7532C13.2028 48.5472 13.2903 48.3616 13.4303 48.2317L14.2935 44.9593L16.1871 43.2046L19.8312 37.2764L20.8746 38.3198L22.2025 37.9809L22.0239 36.0908L23.0561 34.8577L24.0047 36.0908L23.0561 37.0393V39.5054L21.1591 40.2642L20.1632 39.7831L19.6889 40.9756V48.0418L17.4599 50.603V54.6715C17.5539 54.7921 17.6098 54.9437 17.6098 55.1084C17.6098 55.5013 17.2913 55.8198 16.8985 55.8198C16.5056 55.8198 16.1871 55.5013 16.1871 55.1084C16.1871 54.8791 16.2956 54.6751 16.464 54.545V50.1287L18.3136 47.8049V42.8726L18.693 42.2561V40.9756L16.6537 44.4851L15.0887 45.8604L14.4834 48.3265C14.5727 48.4454 14.6255 48.5931 14.6255 48.7532ZM14.5781 40.9756L10.5469 44.6272L12.444 44.1531L16.1871 41.4024L17.8867 37.2764L21.8816 34.6206L22.1076 32.6287L16.7011 36.7073L14.5781 40.9756ZM19.412 53.8285C19.8049 53.8285 20.1234 53.51 20.1234 53.1171C20.1234 52.7242 19.8049 52.4057 19.412 52.4057C19.0191 52.4057 18.7006 52.7242 18.7006 53.1171C18.7006 53.51 19.0191 53.8285 19.412 53.8285ZM22.819 42.3984C23.2119 42.3984 23.5304 42.0799 23.5304 41.687C23.5304 41.2941 23.2119 40.9756 22.819 40.9756C22.4261 40.9756 22.1076 41.2941 22.1076 41.687C22.1076 42.0799 22.4261 42.3984 22.819 42.3984ZM37.0941 64.7832C37.487 64.7832 37.8055 64.4647 37.8055 64.0718C37.8055 63.6789 37.487 63.3604 37.0941 63.3604C36.7012 63.3604 36.3827 63.6789 36.3827 64.0718C36.3827 64.4647 36.7012 64.7832 37.0941 64.7832ZM9.64236 29.7358C9.64236 30.1287 9.32387 30.4471 8.93098 30.4471C8.53809 30.4471 8.2196 30.1287 8.2196 29.7358C8.2196 29.4591 8.37749 29.2194 8.60807 29.1017L12.006 25.1355L16.4055 24.7456L17.4125 23.7971L18.467 24.7456C18.467 24.7456 17.9392 25.3342 17.3651 25.7046L12.7174 26.2263L9.62178 29.5652C9.63523 29.6198 9.64236 29.677 9.64236 29.7358ZM10.0616 20.8601C10.4545 20.8601 10.7729 20.5416 10.7729 20.1488C10.7729 19.7559 10.4545 19.4374 10.0616 19.4374C9.66868 19.4374 9.35018 19.7559 9.35018 20.1488C9.35018 20.5416 9.66868 20.8601 10.0616 20.8601ZM22.7353 43.2046C22.7353 43.2046 22.2579 42.9237 21.7393 42.6829L21.2177 43.5129L20.696 44.3428V50.1287L19.6889 51.7886L20.5426 52.4057L21.8453 50.1287V45.149L22.7353 43.2046ZM22.9613 57.8116V58.7127L21.1591 57.2425V53.1171L23.483 49.9864L22.819 49.4646V45.3387L24.3841 43.7737V40.6436L25.2377 39.2209V43.9634L23.5778 45.5285V48.6516L24.7635 49.7493L23.7264 51.3144H25.9017V45.0068L26.7484 45.8535V51.6463V55.3861L28.6049 57.2425V59.9932L30.7391 62.1274H32.067V63.5027H30.2174L27.1822 60.4675V57.4797L25.9017 56.1992V52.4057H23.0032L22.1551 53.6856V57.0054L22.9613 57.8116ZM30.4359 59.6138V54.4444H29.9328V51.3144L30.4359 52.168L30.5019 53.4011H31.403V58.7127L33.9454 60.6572V61.3211L35.5765 62.8862L35.1022 63.5976L33.7743 62.7913V64.1192L34.628 65.0135L35.1022 64.4512L35.6239 65.2574L34.8177 66.1585L32.7784 64.0244V61.3211L30.4359 59.6138ZM24.4378 54.9186C24.8307 54.9186 25.1492 54.6001 25.1492 54.2072C25.1492 53.8143 24.8307 53.4958 24.4378 53.4958C24.0449 53.4958 23.7264 53.8143 23.7264 54.2072C23.7264 54.6001 24.0449 54.9186 24.4378 54.9186ZM28.9843 49.3225L28.1307 48.0418V55.5352L29.1266 56.5312V59.6138H29.6957V55.8198L28.9843 55.1084V49.3225ZM35.6713 55.1558V62.1748L34.8651 61.3686V54.3496L35.6713 55.1558ZM33.1578 54.2005L32.3583 53.4011V58.5298L34.296 59.9932V58.6653L33.1578 57.8116V54.2005ZM34.2486 54.8031L33.6794 54.322V57.4322H34.2486V54.8031ZM13.0494 29.4512L14.2824 29.7358L17.9342 26.8902L16.2269 26.8428L13.0494 29.4512ZM11.9949 24.4241L16.4055 21.958L16.9801 22.3611L17.5548 22.7642L14.6144 24.187L11.9949 24.4241ZM10.9152 22.2425L14.9938 19.5867L15.2365 20.7012L15.8112 21.1043L11.6266 23.4282L8.0697 27.6016L8.16455 25.7046L10.9152 22.2425ZM10.9627 18.8753L9.72959 18.7805C11.0088 17.0659 12.3283 16.5448 14.9938 15.8401L13.8556 17.7845C12.6088 18.2283 12.0648 18.4545 11.1998 19.2547L10.9627 18.8753ZM10.0141 22.0528L11.1998 20.7012L11.4369 19.9333C12.4423 19.3806 12.9836 19.043 13.9979 18.4485L14.899 19.065L10.3461 21.958L10.0141 22.0528ZM27.3244 9.57994C29.8316 11.299 30.9507 12.326 31.9721 14.3699C32.1144 12.9946 31.9979 12.0028 28.6523 9.10569L28.3678 9.43767L26.9925 8.63144L26.1862 9.43767L26.9925 9.81707L27.3244 9.57994ZM26.0076 7.58807C27.9884 7.68293 29.9803 8.77371 32.8732 12.0935C32.3041 9.34282 29.5061 7.03169 26.1862 6.87669V6.35501L23.8261 5.92818L23.6727 6.44986C20.59 5.35908 17.9342 6.14454 16.6537 7.09305C19.357 6.95077 21.3488 6.35501 23.4355 7.2561L23.2933 8.44173L25.7231 8.86856L26.0076 7.58807ZM28.8421 3.36721C33.7743 2.13415 36.6198 10.813 35.3868 14.0379C34.8799 10.8841 34.5805 10.3862 33.9147 8.48916L33.3949 9.10569C33.964 10.576 34.2204 11.3821 34.0384 12.6152C33.3193 11.0027 33.1361 9.97901 31.9721 8.86856L33.1705 7.39837C31.8773 5.2168 30.617 4.78013 28.8421 3.36721ZM35.2919 2.30014L34.6754 1.84959L34.5805 5.69106L35.7662 7.39837C36.2094 9.72198 36.3936 10.2781 36.6673 10.6707V7.39837L35.2445 5.33537L35.2919 2.30014ZM57.0017 18.5365C56.8428 19.6805 56.6167 20.3012 55.7212 21.3346C61.363 19.1528 55.2922 8.29243 51.9729 13.7937C55.34 11.8493 58.1371 16.1175 55.672 19.9116L57.0017 18.5365ZM55.1028 19.4374L54.8183 18.6786C55.1987 17.3241 54.6421 16.3562 53.443 15.5011L54.1069 14.9794C54.8657 13.2721 57.5216 16.829 55.1028 19.4374ZM49.8404 23.0962L50.2198 23.6653C51.8906 24.0231 52.7183 24.3848 54.0937 25.1743C52.9197 23.8871 52.0157 23.3989 49.8404 23.0962ZM49.3662 22.1003C51.7391 22.367 52.8636 22.8081 54.583 23.9973C52.9665 21.8741 51.6857 21.1775 48.3745 21.3346L49.3662 22.1003ZM48.2754 20.4878C50.8958 20.3473 52.0852 20.9609 54.0976 22.3373C52.1168 20.1558 51.4462 19.5872 47.2319 19.7764L48.2754 20.4878ZM48.7971 18.7805C51.563 18.8862 52.6178 19.5023 53.9664 21.1992C52.9574 19.0257 51.9589 18.2942 49.5559 17.6897C49.1378 18.0077 48.9793 18.2533 48.7971 18.7805ZM49.0816 17.0732C51.5211 17.3991 52.9342 18.3537 53.8827 19.6341C53.5507 16.836 49.6735 14.7572 44.5761 16.0298C46.2472 16.5041 47.5635 16.2217 49.1765 16.5989L49.0816 17.0732ZM45.4772 13.7937C50.694 13.3266 50.5992 14.7019 52.7808 16.4092C50.5992 15.5011 49.2438 14.4609 45.3824 14.7019L45.4772 13.7937ZM48.1805 18.7805H46.9C46.4814 18.0619 45.9337 17.7889 45.0504 17.2629L47.9908 17.3577L48.4651 18.164C48.4018 18.3695 48.2564 18.7805 48.1805 18.7805ZM50.2198 10.7182C46.3274 11.4968 45.1121 12.7332 43.0585 15.0339C43.8759 11.0027 51.7011 7.30352 57.2973 10.3862L55.7212 10.7182C58.5288 11.4558 59.6212 12.71 60.7031 14.3225C57.6656 12.8049 56.0532 11.2873 51.9271 10.7182L51.9729 11.6667C50.153 12.1747 49.4136 12.4437 48.4762 13.2317L47.6225 13.042C48.2952 11.9592 48.9007 11.7623 50.2901 11.3107L50.3621 11.2873L50.2198 10.7182ZM52.6859 27.1747L51.2632 25.8469C55.8634 26.8902 58.4759 29.1396 61.7442 32.1545L63.167 32.0122C64.0375 33.0211 65.3361 34.1984 66.1073 35.3794V38.0826C65.1968 35.7815 64.2061 34.3928 63.167 33.6245C61.6494 34.9526 59.1329 29.4874 52.6859 27.1747ZM55.6737 30.3049L52.3065 28.7398L52.1643 28.0285C53.9928 28.3634 55.7307 29.0998 59.6101 33.2453H60.606C60.6692 33.7827 60.938 35 60.938 35C60.938 35 60.4005 35.2371 60.274 35.2371L60.0369 33.9566L58.8987 34.1463C58.9303 33.9092 58.8987 33.3875 58.8987 33.3875C58.8987 33.3875 56.7171 31.8541 55.6737 31.2534V30.3049ZM64.3526 38.4289C63.9597 38.4289 63.6412 38.1104 63.6412 37.7175L62.3133 36.7073L61.4597 37.1483L62.835 39.5054L65.2537 44.4851L62.4556 41.8293L61.4597 39.5054L59.8946 37.2764C54.7367 32.6934 53.4922 32.6287 53.4922 32.6287L52.3065 30.9688C56.1978 32.2484 57.0491 33.3875 60.274 36.3279L62.4556 35.6165L63.9258 37.1483C64.0447 37.059 64.1925 37.0061 64.3526 37.0061C64.7455 37.0061 65.064 37.3246 65.064 37.7175C65.064 38.1104 64.7455 38.4289 64.3526 38.4289ZM60.274 49.4646C59.8811 49.4646 59.5626 49.1461 59.5626 48.7532C59.5626 48.5931 59.6155 48.4454 59.7047 48.3265L59.0995 45.8604L57.5345 44.4851L55.4952 40.9756V42.2561L55.8746 42.8726V47.8049L57.7242 50.1287V54.545C57.8926 54.6751 58.0011 54.8791 58.0011 55.1084C58.0011 55.5013 57.6826 55.8198 57.2897 55.8198C56.8968 55.8198 56.5783 55.5013 56.5783 55.1084C56.5783 54.9437 56.6343 54.7921 56.7282 54.6715V50.603L54.4992 48.0418V40.9756L54.025 39.7831L53.029 40.2642L51.132 39.5054V37.0393L50.1835 36.0908L51.132 34.8577L52.1643 36.0908L51.9857 37.9809L53.3136 38.3198L54.3569 37.2764L58.0011 43.2046L59.8946 44.9593L60.7578 48.2317C60.8978 48.3616 60.9854 48.5472 60.9854 48.7532C60.9854 49.1461 60.6669 49.4646 60.274 49.4646ZM59.6101 40.9756L63.6412 44.6272L61.7442 44.1531L58.0011 41.4024L56.3015 37.2764L52.3065 34.6206L52.0806 32.6287L57.4871 36.7073L59.6101 40.9756ZM54.7762 53.8285C54.3833 53.8285 54.0648 53.51 54.0648 53.1171C54.0648 52.7242 54.3833 52.4057 54.7762 52.4057C55.169 52.4057 55.4875 52.7242 55.4875 53.1171C55.4875 53.51 55.169 53.8285 54.7762 53.8285ZM51.3691 42.3984C50.9763 42.3984 50.6578 42.0799 50.6578 41.687C50.6578 41.2941 50.9763 40.9756 51.3691 40.9756C51.762 40.9756 52.0805 41.2941 52.0805 41.687C52.0805 42.0799 51.762 42.3984 51.3691 42.3984ZM65.2572 30.4471C64.8643 30.4471 64.5458 30.1287 64.5458 29.7358C64.5458 29.677 64.5529 29.6198 64.5664 29.5652L61.4708 26.2263L56.8231 25.7046C56.2489 25.3342 55.7212 24.7456 55.7212 24.7456L56.7757 23.7971L57.7827 24.7456L62.1822 25.1355L65.5801 29.1017C65.8107 29.2194 65.9686 29.4591 65.9686 29.7358C65.9686 30.1287 65.6501 30.4471 65.2572 30.4471ZM64.1266 20.8601C63.7337 20.8601 63.4152 20.5416 63.4152 20.1488C63.4152 19.7559 63.7337 19.4374 64.1266 19.4374C64.5195 19.4374 64.838 19.7559 64.838 20.1488C64.838 20.5416 64.5195 20.8601 64.1266 20.8601ZM51.4529 43.2046C51.4529 43.2046 51.9302 42.9237 52.4488 42.6829L52.9705 43.5129L53.4922 44.3428V50.1287L54.4992 51.7886L53.6456 52.4057L52.3428 50.1287V45.149L51.4529 43.2046ZM51.2269 57.8116V58.7127L53.029 57.2425V53.1171L50.7052 49.9864L51.3691 49.4646V45.3387L49.8041 43.7737V40.6436L48.9504 39.2209V43.9634L50.6103 45.5285V48.6516L49.4247 49.7493L50.4618 51.3144H48.2865V45.0068L47.4397 45.8535V51.6463V55.3861L45.5832 57.2425V59.9932L43.4491 62.1274H42.1212V63.5027H43.9708L47.006 60.4675V57.4797L48.2865 56.1992V52.4057H51.185L52.0331 53.6856V57.0054L51.2269 57.8116ZM43.7523 59.6138V54.4444H44.2553V51.3144L43.7523 52.168L43.6862 53.4011H42.7851V58.7127L40.2428 60.6572V61.3211L38.6117 62.8862L39.086 63.5976L40.4139 62.7913V64.1192L39.5602 65.0135L39.086 64.4512L38.5643 65.2574L39.3705 66.1585L41.4098 64.0244V61.3211L43.7523 59.6138ZM49.7504 54.9186C49.3575 54.9186 49.039 54.6001 49.039 54.2072C49.039 53.8143 49.3575 53.4958 49.7504 53.4958C50.1433 53.4958 50.4618 53.8143 50.4618 54.2072C50.4618 54.6001 50.1433 54.9186 49.7504 54.9186ZM45.2038 49.3225L46.0575 48.0418V55.5352L45.0616 56.5312V59.6138H44.4925V55.8198L45.2038 55.1084V49.3225ZM38.5168 55.1558V62.1748L39.3231 61.3686V54.3496L38.5168 55.1558ZM41.0304 54.2005L41.8298 53.4011V58.5298L39.8922 59.9932V58.6653L41.0304 57.8116V54.2005ZM39.9396 54.8031L40.5087 54.322V57.4322H39.9396V54.8031ZM61.1388 29.4512L59.9057 29.7358L56.254 26.8902L57.9613 26.8428L61.1388 29.4512ZM62.1933 24.4241L57.7827 21.958L57.208 22.3611L56.6334 22.7642L59.5737 24.187L62.1933 24.4241ZM63.2729 22.2425L59.1943 19.5867L58.9517 20.7012L58.377 21.1043L62.5616 23.4282L66.1185 27.6016L66.0236 25.7046L63.2729 22.2425ZM63.2255 18.8753L64.4586 18.7805C63.1794 17.0659 61.8599 16.5448 59.1943 15.8401L60.3326 17.7845C61.5793 18.2283 62.1234 18.4545 62.9884 19.2547L63.2255 18.8753ZM64.174 22.0528L62.9884 20.7012L62.7513 19.9333C61.7458 19.3806 61.2046 19.043 60.1903 18.4485L59.2892 19.065L63.842 21.958L64.174 22.0528ZM46.8637 9.57994C44.3566 11.299 43.2375 12.326 42.216 14.3699C42.0738 12.9946 42.1903 12.0028 45.5358 9.10569L45.8204 9.43767L47.1957 8.63144L48.0019 9.43767L47.1957 9.81707L46.8637 9.57994ZM48.1805 7.58807C46.1998 7.68293 44.2079 8.77371 41.3149 12.0935C41.8841 9.34282 44.6821 7.03169 48.0019 6.87669V6.35501L50.3621 5.92818L50.5155 6.44986C53.5981 5.35908 56.254 6.14454 57.5345 7.09305C54.8312 6.95077 52.8393 6.35501 50.7526 7.2561L50.8949 8.44173L48.4651 8.86856L48.1805 7.58807ZM45.3461 3.36721C40.4139 2.13415 37.5683 10.813 38.8014 14.0379C39.3082 10.8841 39.6076 10.3862 40.2734 8.48916L40.7933 9.10569C40.2242 10.576 39.9678 11.3821 40.1497 12.6152C40.8688 11.0027 41.0521 9.97901 42.216 8.86856L41.0177 7.39837C42.3109 5.2168 43.5712 4.78013 45.3461 3.36721ZM38.8962 2.30014L39.5128 1.84959L39.6076 5.69106L38.422 7.39837C37.9787 9.72198 37.7946 10.2781 37.5209 10.6707V7.39837L38.9437 5.33537L38.8962 2.30014Z" fill="url(#paint23_radial_1778_17213)"/>
</g>
<defs>
<filter id="filter0_d_1778_17213" x="71.2812" y="14.624" width="107.183" height="49.616" filterUnits="userSpaceOnUse" color-interpolation-filters="sRGB">
<feFlood flood-opacity="0" result="BackgroundImageFix"/>
<feColorMatrix in="SourceAlpha" type="matrix" values="0 0 0 0 0 0 0 0 0 0 0 0 0 0 0 0 0 0 127 0" result="hardAlpha"/>
<feOffset dy="5"/>
<feGaussianBlur stdDeviation="2"/>
<feComposite in2="hardAlpha" operator="out"/>
<feColorMatrix type="matrix" values="0 0 0 0 0 0 0 0 0 0 0 0 0 0 0 0 0 0 0.5 0"/>
<feBlend mode="normal" in2="BackgroundImageFix" result="effect1_dropShadow_1778_17213"/>
<feBlend mode="normal" in="SourceGraphic" in2="effect1_dropShadow_1778_17213" result="shape"/>
</filter>
<filter id="filter1_d_1778_17213" x="20.3066" y="26.2607" width="16.2305" height="14.5185" filterUnits="userSpaceOnUse" color-interpolation-filters="sRGB">
<feFlood flood-opacity="0" result="BackgroundImageFix"/>
<feColorMatrix in="SourceAlpha" type="matrix" values="0 0 0 0 0 0 0 0 0 0 0 0 0 0 0 0 0 0 127 0" result="hardAlpha"/>
<feOffset dy="5"/>
<feGaussianBlur stdDeviation="2"/>
<feComposite in2="hardAlpha" operator="out"/>
<feColorMatrix type="matrix" values="0 0 0 0 0 0 0 0 0 0 0 0 0 0 0 0 0 0 0.16 0"/>
<feBlend mode="normal" in2="BackgroundImageFix" result="effect1_dropShadow_1778_17213"/>
<feBlend mode="normal" in="SourceGraphic" in2="effect1_dropShadow_1778_17213" result="shape"/>
</filter>
<filter id="filter2_d_1778_17213" x="22.3354" y="27.224" width="12.2251" height="11.0405" filterUnits="userSpaceOnUse" color-interpolation-filters="sRGB">
<feFlood flood-opacity="0" result="BackgroundImageFix"/>
<feColorMatrix in="SourceAlpha" type="matrix" values="0 0 0 0 0 0 0 0 0 0 0 0 0 0 0 0 0 0 127 0" result="hardAlpha"/>
<feOffset dy="5"/>
<feGaussianBlur stdDeviation="2"/>
<feComposite in2="hardAlpha" operator="out"/>
<feColorMatrix type="matrix" values="0 0 0 0 0 0 0 0 0 0 0 0 0 0 0 0 0 0 0.16 0"/>
<feBlend mode="normal" in2="BackgroundImageFix" result="effect1_dropShadow_1778_17213"/>
<feBlend mode="normal" in="SourceGraphic" in2="effect1_dropShadow_1778_17213" result="shape"/>
</filter>
<filter id="filter3_d_1778_17213" x="37.6514" y="26.2607" width="16.2305" height="14.5185" filterUnits="userSpaceOnUse" color-interpolation-filters="sRGB">
<feFlood flood-opacity="0" result="BackgroundImageFix"/>
<feColorMatrix in="SourceAlpha" type="matrix" values="0 0 0 0 0 0 0 0 0 0 0 0 0 0 0 0 0 0 127 0" result="hardAlpha"/>
<feOffset dy="5"/>
<feGaussianBlur stdDeviation="2"/>
<feComposite in2="hardAlpha" operator="out"/>
<feColorMatrix type="matrix" values="0 0 0 0 0 0 0 0 0 0 0 0 0 0 0 0 0 0 0.16 0"/>
<feBlend mode="normal" in2="BackgroundImageFix" result="effect1_dropShadow_1778_17213"/>
<feBlend mode="normal" in="SourceGraphic" in2="effect1_dropShadow_1778_17213" result="shape"/>
</filter>
<filter id="filter4_d_1778_17213" x="39.6279" y="27.2241" width="12.2251" height="11.0405" filterUnits="userSpaceOnUse" color-interpolation-filters="sRGB">
<feFlood flood-opacity="0" result="BackgroundImageFix"/>
<feColorMatrix in="SourceAlpha" type="matrix" values="0 0 0 0 0 0 0 0 0 0 0 0 0 0 0 0 0 0 127 0" result="hardAlpha"/>
<feOffset dy="5"/>
<feGaussianBlur stdDeviation="2"/>
<feComposite in2="hardAlpha" operator="out"/>
<feColorMatrix type="matrix" values="0 0 0 0 0 0 0 0 0 0 0 0 0 0 0 0 0 0 0.16 0"/>
<feBlend mode="normal" in2="BackgroundImageFix" result="effect1_dropShadow_1778_17213"/>
<feBlend mode="normal" in="SourceGraphic" in2="effect1_dropShadow_1778_17213" result="shape"/>
</filter>
<filter id="filter5_d_1778_17213" x="0" y="0" width="74.188" height="79" filterUnits="userSpaceOnUse" color-interpolation-filters="sRGB">
<feFlood flood-opacity="0" result="BackgroundImageFix"/>
<feColorMatrix in="SourceAlpha" type="matrix" values="0 0 0 0 0 0 0 0 0 0 0 0 0 0 0 0 0 0 127 0" result="hardAlpha"/>
<feOffset dy="5"/>
<feGaussianBlur stdDeviation="2"/>
<feComposite in2="hardAlpha" operator="out"/>
<feColorMatrix type="matrix" values="0 0 0 0 0 0 0 0 0 0 0 0 0 0 0 0 0 0 0.16 0"/>
<feBlend mode="normal" in2="BackgroundImageFix" result="effect1_dropShadow_1778_17213"/>
<feBlend mode="normal" in="SourceGraphic" in2="effect1_dropShadow_1778_17213" result="shape"/>
</filter>
<linearGradient id="paint0_linear_1778_17213" x1="24.574" y1="26.9376" x2="32.3518" y2="31.6802" gradientUnits="userSpaceOnUse">
<stop stop-color="#F7F7F7"/>
<stop offset="1" stop-color="#373838"/>
</linearGradient>
<linearGradient id="paint1_linear_1778_17213" x1="26.3762" y1="27.2696" x2="30.5496" y2="29.2615" gradientUnits="userSpaceOnUse">
<stop stop-color="#F7F7F7"/>
<stop offset="1" stop-color="#373838" stop-opacity="0.59"/>
</linearGradient>
<linearGradient id="paint2_linear_1778_17213" x1="49.7093" y1="26.8902" x2="41.8367" y2="31.6328" gradientUnits="userSpaceOnUse">
<stop stop-color="#F7F7F7"/>
<stop offset="1" stop-color="#373838"/>
</linearGradient>
<linearGradient id="paint3_linear_1778_17213" x1="47.9071" y1="27.2696" x2="43.6388" y2="29.2615" gradientUnits="userSpaceOnUse">
<stop stop-color="#F7F7F7"/>
<stop offset="1" stop-color="#373838"/>
</linearGradient>
<radialGradient id="paint4_radial_1778_17213" cx="0" cy="0" r="1" gradientUnits="userSpaceOnUse" gradientTransform="translate(37.0941 35) rotate(90) scale(35 33.0941)">
<stop stop-color="#F7F7F7"/>
<stop offset="0.764729" stop-color="#373838"/>
</radialGradient>
<radialGradient id="paint5_radial_1778_17213" cx="0" cy="0" r="1" gradientUnits="userSpaceOnUse" gradientTransform="translate(37.0941 35) rotate(90) scale(35 33.0941)">
<stop stop-color="#F7F7F7"/>
<stop offset="0.764729" stop-color="#373838"/>
</radialGradient>
<radialGradient id="paint6_radial_1778_17213" cx="0" cy="0" r="1" gradientUnits="userSpaceOnUse" gradientTransform="translate(37.0941 35) rotate(90) scale(35 33.0941)">
<stop stop-color="#F7F7F7"/>
<stop offset="0.764729" stop-color="#373838"/>
</radialGradient>
<radialGradient id="paint7_radial_1778_17213" cx="0" cy="0" r="1" gradientUnits="userSpaceOnUse" gradientTransform="translate(37.0941 35) rotate(90) scale(35 33.0941)">
<stop stop-color="#F7F7F7"/>
<stop offset="0.764729" stop-color="#373838"/>
</radialGradient>
<radialGradient id="paint8_radial_1778_17213" cx="0" cy="0" r="1" gradientUnits="userSpaceOnUse" gradientTransform="translate(37.0941 35) rotate(90) scale(35 33.0941)">
<stop stop-color="#F7F7F7"/>
<stop offset="0.764729" stop-color="#373838"/>
</radialGradient>
<radialGradient id="paint9_radial_1778_17213" cx="0" cy="0" r="1" gradientUnits="userSpaceOnUse" gradientTransform="translate(37.0941 35) rotate(90) scale(35 33.0941)">
<stop stop-color="#F7F7F7"/>
<stop offset="0.764729" stop-color="#373838"/>
</radialGradient>
<radialGradient id="paint10_radial_1778_17213" cx="0" cy="0" r="1" gradientUnits="userSpaceOnUse" gradientTransform="translate(37.0941 35) rotate(90) scale(35 33.0941)">
<stop stop-color="#F7F7F7"/>
<stop offset="0.764729" stop-color="#373838"/>
</radialGradient>
<radialGradient id="paint11_radial_1778_17213" cx="0" cy="0" r="1" gradientUnits="userSpaceOnUse" gradientTransform="translate(37.0941 35) rotate(90) scale(35 33.0941)">
<stop stop-color="#F7F7F7"/>
<stop offset="0.764729" stop-color="#373838"/>
</radialGradient>
<radialGradient id="paint12_radial_1778_17213" cx="0" cy="0" r="1" gradientUnits="userSpaceOnUse" gradientTransform="translate(37.0941 35) rotate(90) scale(35 33.0941)">
<stop stop-color="#F7F7F7"/>
<stop offset="0.764729" stop-color="#373838"/>
</radialGradient>
<radialGradient id="paint13_radial_1778_17213" cx="0" cy="0" r="1" gradientUnits="userSpaceOnUse" gradientTransform="translate(37.0941 35) rotate(90) scale(35 33.0941)">
<stop stop-color="#F7F7F7"/>
<stop offset="0.764729" stop-color="#373838"/>
</radialGradient>
<radialGradient id="paint14_radial_1778_17213" cx="0" cy="0" r="1" gradientUnits="userSpaceOnUse" gradientTransform="translate(37.0941 35) rotate(90) scale(35 33.0941)">
<stop stop-color="#F7F7F7"/>
<stop offset="0.764729" stop-color="#373838"/>
</radialGradient>
<radialGradient id="paint15_radial_1778_17213" cx="0" cy="0" r="1" gradientUnits="userSpaceOnUse" gradientTransform="translate(37.0941 35) rotate(90) scale(35 33.0941)">
<stop stop-color="#F7F7F7"/>
<stop offset="0.764729" stop-color="#373838"/>
</radialGradient>
<radialGradient id="paint16_radial_1778_17213" cx="0" cy="0" r="1" gradientUnits="userSpaceOnUse" gradientTransform="translate(37.0941 35) rotate(90) scale(35 33.0941)">
<stop stop-color="#F7F7F7"/>
<stop offset="0.764729" stop-color="#373838"/>
</radialGradient>
<radialGradient id="paint17_radial_1778_17213" cx="0" cy="0" r="1" gradientUnits="userSpaceOnUse" gradientTransform="translate(37.0941 35) rotate(90) scale(35 33.0941)">
<stop stop-color="#F7F7F7"/>
<stop offset="0.764729" stop-color="#373838"/>
</radialGradient>
<radialGradient id="paint18_radial_1778_17213" cx="0" cy="0" r="1" gradientUnits="userSpaceOnUse" gradientTransform="translate(37.0941 35) rotate(90) scale(35 33.0941)">
<stop stop-color="#F7F7F7"/>
<stop offset="0.764729" stop-color="#373838"/>
</radialGradient>
<radialGradient id="paint19_radial_1778_17213" cx="0" cy="0" r="1" gradientUnits="userSpaceOnUse" gradientTransform="translate(37.0941 35) rotate(90) scale(35 33.0941)">
<stop stop-color="#F7F7F7"/>
<stop offset="0.764729" stop-color="#373838"/>
</radialGradient>
<radialGradient id="paint20_radial_1778_17213" cx="0" cy="0" r="1" gradientUnits="userSpaceOnUse" gradientTransform="translate(37.0941 35) rotate(90) scale(35 33.0941)">
<stop stop-color="#F7F7F7"/>
<stop offset="0.764729" stop-color="#373838"/>
</radialGradient>
<radialGradient id="paint21_radial_1778_17213" cx="0" cy="0" r="1" gradientUnits="userSpaceOnUse" gradientTransform="translate(37.0941 35) rotate(90) scale(35 33.0941)">
<stop stop-color="#F7F7F7"/>
<stop offset="0.764729" stop-color="#373838"/>
</radialGradient>
<radialGradient id="paint22_radial_1778_17213" cx="0" cy="0" r="1" gradientUnits="userSpaceOnUse" gradientTransform="translate(37.0941 35) rotate(90) scale(35 33.0941)">
<stop stop-color="#F7F7F7"/>
<stop offset="0.764729" stop-color="#373838"/>
</radialGradient>
<radialGradient id="paint23_radial_1778_17213" cx="0" cy="0" r="1" gradientUnits="userSpaceOnUse" gradientTransform="translate(37.0941 35) rotate(90) scale(35 33.0941)">
<stop stop-color="#F7F7F7"/>
<stop offset="0.764729" stop-color="#373838"/>
</radialGradient>
</defs>
</svg>
