<svg width="175" height="71" viewBox="0 0 175 71" fill="none" xmlns="http://www.w3.org/2000/svg">
<g filter="url(#filter0_d_1778_17213)">
<path d="M75.3777 32L79.0497 16.16H85.3137C86.9137 16.16 88.2417 16.432 89.2977 16.976C90.3537 17.504 91.1457 18.256 91.6737 19.232C92.2017 20.192 92.4657 21.328 92.4657 22.64C92.4657 24.064 92.2737 25.352 91.8897 26.504C91.5057 27.656 90.9297 28.64 90.1617 29.456C89.4097 30.272 88.4897 30.904 87.4017 31.352C86.3137 31.784 85.0577 32 83.6337 32H75.3777ZM81.9057 28.016H83.2257C83.8817 28.016 84.4417 27.848 84.9057 27.512C85.3857 27.176 85.7697 26.736 86.0577 26.192C86.3457 25.648 86.5537 25.056 86.6817 24.416C86.8257 23.76 86.8977 23.12 86.8977 22.496C86.8977 21.984 86.8177 21.552 86.6577 21.2C86.4977 20.848 86.2577 20.584 85.9377 20.408C85.6177 20.232 85.2097 20.144 84.7137 20.144H83.7057L81.9057 28.016ZM97.7213 32.24C97.0173 32.24 96.3693 32.08 95.7773 31.76C95.2013 31.424 94.7453 30.928 94.4093 30.272C94.0733 29.6 93.9053 28.752 93.9053 27.728C93.9053 26.784 94.0333 25.84 94.2893 24.896C94.5453 23.952 94.9213 23.096 95.4173 22.328C95.9133 21.544 96.5213 20.92 97.2413 20.456C97.9613 19.992 98.7853 19.76 99.7133 19.76C100.129 19.76 100.553 19.84 100.985 20C101.417 20.16 101.801 20.432 102.137 20.816C102.473 21.184 102.697 21.712 102.809 22.4L103.361 20H108.881L106.097 32H101.057L101.465 29.72C101.065 30.504 100.537 31.12 99.8813 31.568C99.2413 32.016 98.5213 32.24 97.7213 32.24ZM100.361 28.352C100.649 28.352 100.905 28.24 101.129 28.016C101.353 27.776 101.537 27.472 101.681 27.104C101.841 26.736 101.953 26.36 102.017 25.976C102.097 25.576 102.137 25.224 102.137 24.92C102.137 24.648 102.097 24.424 102.017 24.248C101.953 24.056 101.849 23.912 101.705 23.816C101.577 23.72 101.409 23.672 101.201 23.672C100.865 23.672 100.577 23.8 100.337 24.056C100.113 24.296 99.9293 24.6 99.7853 24.968C99.6413 25.32 99.5293 25.688 99.4493 26.072C99.3853 26.44 99.3533 26.744 99.3533 26.984C99.3533 27.256 99.3853 27.496 99.4493 27.704C99.5293 27.912 99.6413 28.072 99.7853 28.184C99.9293 28.296 100.121 28.352 100.361 28.352ZM108.885 32L111.669 20H116.589L115.869 24.584L115.677 24.104C116.013 22.728 116.605 21.664 117.453 20.912C118.301 20.144 119.341 19.76 120.573 19.76C121.389 19.76 122.069 19.944 122.613 20.312C123.157 20.664 123.533 21.168 123.741 21.824C123.949 22.48 123.949 23.264 123.741 24.176L121.917 32H116.397L118.029 25.04C118.109 24.672 118.077 24.384 117.933 24.176C117.805 23.952 117.581 23.84 117.261 23.84C117.037 23.84 116.837 23.904 116.661 24.032C116.485 24.144 116.333 24.32 116.205 24.56C116.093 24.784 115.997 25.072 115.917 25.424L114.405 32H108.885ZM130.657 19.232C129.745 19.232 129.041 19.064 128.545 18.728C128.065 18.392 127.889 17.816 128.017 17C128.145 16.104 128.457 15.488 128.953 15.152C129.465 14.8 130.209 14.624 131.185 14.624C132.129 14.624 132.841 14.8 133.321 15.152C133.817 15.488 134.001 16.032 133.873 16.784C133.745 17.76 133.417 18.416 132.889 18.752C132.377 19.072 131.633 19.232 130.657 19.232ZM133.009 20L130.225 32H124.705L127.489 20H133.009ZM140.367 32.216C139.135 32.216 138.031 32 137.055 31.568C136.095 31.136 135.343 30.512 134.799 29.696C134.255 28.864 133.983 27.88 133.983 26.744C133.983 25.336 134.271 24.112 134.847 23.072C135.439 22.016 136.263 21.2 137.319 20.624C138.391 20.048 139.639 19.76 141.063 19.76C142.359 19.76 143.463 19.992 144.375 20.456C145.287 20.904 145.975 21.528 146.439 22.328C146.919 23.128 147.159 24.056 147.159 25.112C147.159 25.416 147.143 25.736 147.111 26.072C147.079 26.408 147.015 26.736 146.919 27.056H137.751L137.727 25.016H143.103L141.783 25.52C141.863 25.296 141.903 25.112 141.903 24.968C141.919 24.824 141.927 24.688 141.927 24.56C141.927 24.256 141.879 24.024 141.783 23.864C141.703 23.688 141.591 23.568 141.447 23.504C141.303 23.424 141.143 23.384 140.967 23.384C140.551 23.384 140.207 23.504 139.935 23.744C139.679 23.984 139.479 24.296 139.335 24.68C139.207 25.064 139.119 25.472 139.071 25.904C139.023 26.336 138.999 26.736 138.999 27.104C138.999 27.472 139.063 27.768 139.191 27.992C139.319 28.216 139.495 28.376 139.719 28.472C139.959 28.568 140.223 28.616 140.511 28.616C140.927 28.616 141.247 28.512 141.471 28.304C141.711 28.08 141.879 27.824 141.975 27.536L146.583 29.024C146.343 29.696 145.919 30.272 145.311 30.752C144.703 31.232 143.975 31.6 143.127 31.856C142.279 32.096 141.359 32.216 140.367 32.216ZM153.157 32.24C151.509 32.24 150.341 31.808 149.653 30.944C148.965 30.064 148.797 28.872 149.149 27.368L151.981 15.2H157.501L154.717 27.224C154.605 27.688 154.621 28.04 154.765 28.28C154.909 28.52 155.197 28.64 155.629 28.64C155.789 28.64 155.925 28.632 156.037 28.616C156.165 28.6 156.261 28.584 156.325 28.568L155.437 31.928C155.181 32.04 154.869 32.12 154.501 32.168C154.133 32.216 153.685 32.24 153.157 32.24ZM78.6974 55.24C77.2414 55.24 75.9534 54.96 74.8334 54.4C73.7294 53.824 72.8574 53.024 72.2174 52C71.5934 50.96 71.2814 49.752 71.2814 48.376C71.2814 46.92 71.4814 45.616 71.8814 44.464C72.2974 43.296 72.8894 42.304 73.6574 41.488C74.4254 40.656 75.3614 40.024 76.4654 39.592C77.5694 39.144 78.8174 38.92 80.2094 38.92C81.5214 38.92 82.6814 39.144 83.6894 39.592C84.7134 40.04 85.5374 40.688 86.1614 41.536C86.8014 42.368 87.1934 43.376 87.3374 44.56L82.0574 45.592C82.0894 44.792 81.9534 44.184 81.6494 43.768C81.3614 43.336 80.8654 43.12 80.1614 43.12C79.5694 43.12 79.0574 43.304 78.6254 43.672C78.2094 44.04 77.8654 44.512 77.5934 45.088C77.3214 45.648 77.1214 46.248 76.9934 46.888C76.8814 47.528 76.8254 48.128 76.8254 48.688C76.8254 49.168 76.8974 49.584 77.0414 49.936C77.2014 50.288 77.4414 50.56 77.7614 50.752C78.0814 50.944 78.5054 51.04 79.0334 51.04C79.6894 51.04 80.2014 50.832 80.5694 50.416C80.9534 50 81.2734 49.464 81.5294 48.808L86.4494 50.608C85.7454 52.064 84.7534 53.2 83.4734 54.016C82.2094 54.832 80.6174 55.24 78.6974 55.24ZM87.37 55L90.154 43H95.122L94.09 48.424L93.97 47.872C94.226 46.864 94.554 45.976 94.954 45.208C95.354 44.44 95.866 43.84 96.49 43.408C97.13 42.976 97.906 42.76 98.818 42.76C99.09 42.76 99.314 42.784 99.49 42.832C99.666 42.864 99.81 42.912 99.922 42.976L98.65 47.488C98.49 47.408 98.298 47.344 98.074 47.296C97.85 47.248 97.554 47.224 97.186 47.224C96.754 47.224 96.322 47.32 95.89 47.512C95.474 47.688 95.098 47.984 94.762 48.4C94.442 48.816 94.194 49.384 94.018 50.104L92.89 55H87.37ZM106.408 55.216C105.176 55.216 104.072 55 103.096 54.568C102.136 54.136 101.384 53.512 100.84 52.696C100.296 51.864 100.024 50.88 100.024 49.744C100.024 48.336 100.312 47.112 100.888 46.072C101.48 45.016 102.304 44.2 103.36 43.624C104.432 43.048 105.68 42.76 107.104 42.76C108.4 42.76 109.504 42.992 110.416 43.456C111.328 43.904 112.016 44.528 112.48 45.328C112.96 46.128 113.2 47.056 113.2 48.112C113.2 48.416 113.184 48.736 113.152 49.072C113.12 49.408 113.056 49.736 112.96 50.056H103.792L103.768 48.016H109.144L107.824 48.52C107.904 48.296 107.944 48.112 107.944 47.968C107.96 47.824 107.968 47.688 107.968 47.56C107.968 47.256 107.92 47.024 107.824 46.864C107.744 46.688 107.632 46.568 107.488 46.504C107.344 46.424 107.184 46.384 107.008 46.384C106.592 46.384 106.248 46.504 105.976 46.744C105.72 46.984 105.52 47.296 105.376 47.68C105.248 48.064 105.16 48.472 105.112 48.904C105.064 49.336 105.04 49.736 105.04 50.104C105.04 50.472 105.104 50.768 105.232 50.992C105.36 51.216 105.536 51.376 105.76 51.472C106 51.568 106.264 51.616 106.552 51.616C106.968 51.616 107.288 51.512 107.512 51.304C107.752 51.08 107.92 50.824 108.016 50.536L112.624 52.024C112.384 52.696 111.96 53.272 111.352 53.752C110.744 54.232 110.016 54.6 109.168 54.856C108.32 55.096 107.4 55.216 106.408 55.216ZM118.79 55.24C118.086 55.24 117.438 55.08 116.846 54.76C116.27 54.424 115.814 53.928 115.478 53.272C115.142 52.6 114.974 51.752 114.974 50.728C114.974 49.784 115.102 48.84 115.358 47.896C115.614 46.952 115.99 46.096 116.486 45.328C116.982 44.544 117.59 43.92 118.31 43.456C119.03 42.992 119.854 42.76 120.782 42.76C121.198 42.76 121.622 42.84 122.054 43C122.486 43.16 122.87 43.432 123.206 43.816C123.542 44.184 123.766 44.712 123.878 45.4L124.43 43H129.95L127.166 55H122.126L122.534 52.72C122.134 53.504 121.606 54.12 120.95 54.568C120.31 55.016 119.59 55.24 118.79 55.24ZM121.43 51.352C121.718 51.352 121.974 51.24 122.198 51.016C122.422 50.776 122.606 50.472 122.75 50.104C122.91 49.736 123.022 49.36 123.086 48.976C123.166 48.576 123.206 48.224 123.206 47.92C123.206 47.648 123.166 47.424 123.086 47.248C123.022 47.056 122.918 46.912 122.774 46.816C122.646 46.72 122.478 46.672 122.27 46.672C121.934 46.672 121.646 46.8 121.406 47.056C121.182 47.296 120.998 47.6 120.854 47.968C120.71 48.32 120.598 48.688 120.518 49.072C120.454 49.44 120.422 49.744 120.422 49.984C120.422 50.256 120.454 50.496 120.518 50.704C120.598 50.912 120.71 51.072 120.854 51.184C120.998 51.296 121.19 51.352 121.43 51.352ZM137.03 55.24C135.894 55.24 134.934 55.056 134.15 54.688C133.366 54.304 132.814 53.736 132.494 52.984C132.19 52.216 132.166 51.256 132.422 50.104L134.654 40.456L140.534 38.92L137.99 49.888C137.83 50.432 137.886 50.864 138.158 51.184C138.446 51.488 138.91 51.64 139.55 51.64C139.902 51.64 140.166 51.624 140.342 51.592C140.534 51.56 140.71 51.52 140.87 51.472L140.198 54.784C139.75 54.944 139.246 55.056 138.686 55.12C138.142 55.2 137.59 55.24 137.03 55.24ZM131.126 46.72L131.99 43H142.574L141.71 46.72H131.126ZM149.691 55.24C148.427 55.24 147.323 55.008 146.379 54.544C145.451 54.08 144.723 53.44 144.195 52.624C143.683 51.792 143.427 50.84 143.427 49.768C143.427 48.52 143.699 47.368 144.243 46.312C144.787 45.24 145.595 44.384 146.667 43.744C147.755 43.088 149.107 42.76 150.723 42.76C151.987 42.76 153.083 42.992 154.011 43.456C154.955 43.92 155.683 44.568 156.195 45.4C156.723 46.216 156.987 47.16 156.987 48.232C156.987 49.464 156.715 50.616 156.171 51.688C155.627 52.76 154.811 53.624 153.723 54.28C152.651 54.92 151.307 55.24 149.691 55.24ZM149.739 51.544C150.043 51.544 150.307 51.408 150.531 51.136C150.771 50.864 150.971 50.52 151.131 50.104C151.291 49.672 151.411 49.24 151.491 48.808C151.571 48.36 151.611 47.968 151.611 47.632C151.611 47.328 151.563 47.096 151.467 46.936C151.387 46.76 151.275 46.64 151.131 46.576C150.987 46.496 150.827 46.456 150.651 46.456C150.347 46.456 150.075 46.592 149.835 46.864C149.611 47.136 149.419 47.488 149.259 47.92C149.099 48.336 148.979 48.768 148.899 49.216C148.819 49.648 148.779 50.032 148.779 50.368C148.779 50.656 148.819 50.888 148.899 51.064C148.995 51.24 149.115 51.368 149.259 51.448C149.403 51.512 149.563 51.544 149.739 51.544ZM157.912 55L160.696 43H165.664L164.632 48.424L164.512 47.872C164.768 46.864 165.096 45.976 165.496 45.208C165.896 44.44 166.408 43.84 167.032 43.408C167.672 42.976 168.448 42.76 169.36 42.76C169.632 42.76 169.856 42.784 170.032 42.832C170.208 42.864 170.352 42.912 170.464 42.976L169.192 47.488C169.032 47.408 168.84 47.344 168.616 47.296C168.392 47.248 168.096 47.224 167.728 47.224C167.296 47.224 166.864 47.32 166.432 47.512C166.016 47.688 165.64 47.984 165.304 48.4C164.984 48.816 164.736 49.384 164.56 50.104L163.432 55H157.912Z" fill="black"/>
</g>
<g clip-path="url(#clip0_1778_17213)">
<g clip-path="url(#clip1_1778_17213)">
<path d="M28.2424 31.8851C24.8994 27.963 26.0294 31.7895 20.8501 27.2455C27.3007 26.0498 25.8411 26.7194 28.2424 31.8851Z" stroke="white" stroke-width="0.5"/>
<path d="M26.453 29.5109C24.5312 29.2197 23.618 28.7912 22.3096 27.5021C22.3096 27.5021 23.3549 27.3988 24.0988 27.5021C24.8425 27.6054 24.0988 28.4108 26.0992 28.7708C26.4347 29.0498 26.5943 29.5587 26.453 29.5109Z" fill="white"/>
<path d="M37.7402 31.8852C41.0832 27.963 39.9532 31.7895 45.1325 27.2456C38.6819 26.0498 40.1415 26.7194 37.7402 31.8852Z" stroke="white" stroke-width="0.5"/>
<path d="M39.5295 29.5109C41.4513 29.2197 42.3644 28.7912 43.673 27.5021C43.673 27.5021 42.6275 27.3988 41.8838 27.5021C41.14 27.6054 41.8838 28.4109 39.8832 28.7709C39.5478 29.0499 39.3883 29.5588 39.5295 29.5109Z" fill="white"/>
<g filter="url(#filter1_d_1778_17213)">
<path d="M28.2424 31.8851C24.8994 27.963 26.0294 31.7895 20.8501 27.2455C27.3007 26.0498 25.8411 26.7194 28.2424 31.8851Z" stroke="url(#paint0_linear_1778_17213)" stroke-width="0.5"/>
</g>
<g filter="url(#filter2_d_1778_17213)">
<path d="M26.453 29.5109C24.5312 29.2197 23.618 28.7912 22.3096 27.5021C22.3096 27.5021 23.3549 27.3988 24.0988 27.5021C24.8425 27.6054 24.0988 28.4108 26.0992 28.7708C26.4347 29.0498 26.5943 29.5587 26.453 29.5109Z" fill="url(#paint1_linear_1778_17213)"/>
</g>
<g filter="url(#filter3_d_1778_17213)">
<path d="M37.7402 31.8852C41.0832 27.963 39.9532 31.7895 45.1325 27.2456C38.6819 26.0498 40.1415 26.7194 37.7402 31.8852Z" stroke="url(#paint2_linear_1778_17213)" stroke-width="0.5"/>
</g>
<g filter="url(#filter4_d_1778_17213)">
<path d="M39.5295 29.5109C41.4513 29.2197 42.3644 28.7912 43.673 27.5021C43.673 27.5021 42.6275 27.3988 41.8838 27.5021C41.14 27.6054 41.8838 28.4109 39.8832 28.7709C39.5478 29.0499 39.3883 29.5588 39.5295 29.5109Z" fill="url(#paint3_linear_1778_17213)"/>
</g>
<g filter="url(#filter5_d_1778_17213)">
<path fill-rule="evenodd" clip-rule="evenodd" d="M20.087 61.9395C20.4631 59.7393 19.1453 57.7783 19.0041 55.339C19.6618 56.6076 20.2691 57.7117 20.8328 58.6745C21.0594 59.0615 21.2789 59.4257 21.4919 59.7687C27.1216 68.8333 28.1445 63.0333 32.8864 70.5968C37.6284 63.0333 38.6512 68.8333 44.2808 59.7687C44.4938 59.4257 44.7134 59.0615 44.94 58.6745C45.5038 57.7117 46.111 56.6076 46.7688 55.339C46.6275 57.7783 45.3098 59.7393 45.6858 61.9395C46.5772 60.9572 47.4735 60.364 48.2284 59.8707L48.2726 59.8418C48.4236 59.7432 48.5687 59.6483 48.7068 59.555C48.8763 59.4403 49.0352 59.3279 49.1813 59.2133C49.5642 58.9128 49.8588 58.5973 50.0251 58.1877C50.2813 57.5572 50.2332 56.7037 49.7351 55.339C50.5476 55.8342 51.2282 57.4033 52.0225 58.6393C52.6091 59.5519 53.2576 60.2828 54.0669 60.2655C53.8314 56.3434 56.5153 55.3389 53.6431 49.5515C55.1969 51.9908 56.7507 51.7039 57.3157 54.6694C59.9053 52.0866 59.2462 48.6906 56.3269 45.0077C58.9166 47.4948 59.8563 46.0852 61.93 49.8863C63.3896 43.6206 60.4704 43.5249 59.0578 38.8854C61.3179 41.5161 62.9167 40.4162 64.4705 42.7599C62.8202 32.3331 60.892 32.8591 58.022 30.3239C60.4212 30.3239 61.9757 33.6721 65.7425 33.9112C59.6214 24.5366 64.1418 16.9795 56.3256 15.4011C59.2427 15.6403 57.9756 14.9063 61.5983 16.4056C58.2665 11.5362 53.841 7.59847 48.0005 8.51371C49.2234 7.00329 53.4527 8.22673 56.1365 8.22673C51.8989 3.82639 43.4482 4.65829 38.2935 7.89179C38.9977 3.87407 46.2958 4.16117 49.5932 4.16117C43.8816 0.972399 39.1784 1.35003 35.994 4.27546V3.39592C36.9169 2.25647 37.5753 1.84872 38.819 1.24358C37.7653 1.08744 37.0499 1.09377 35.994 1.62621L37.5007 0.669617C36.433 0.0995597 35.5913 0.02754 34.1106 0V5.11779L33.4043 6.17005V0H32.8864H32.3685V6.17005L31.6622 5.11779V0C30.1816 0.02754 29.3398 0.0995597 28.2721 0.669617L29.7788 1.62621C28.7229 1.09377 28.0075 1.08744 26.9537 1.24358C28.1975 1.84872 28.856 2.25647 29.7788 3.39592V4.27546C26.5945 1.35003 21.8911 0.972399 16.1796 4.16117C19.4771 4.16117 26.7752 3.87407 27.4794 7.89179C22.3247 4.65829 13.874 3.82639 9.63635 8.22673C12.3202 8.22673 16.5495 7.00329 17.7723 8.51371C11.9319 7.59847 7.50626 11.5362 4.17455 16.4056C7.79715 14.9063 6.53013 15.6403 9.44717 15.4011C1.63104 16.9795 6.15136 24.5366 0.0302734 33.9112C3.79703 33.6721 5.35167 30.3239 7.75087 30.3239C4.88082 32.8591 2.95256 32.3331 1.3024 42.7599C2.85613 40.4162 4.45491 41.5161 6.71501 38.8854C5.30247 43.5249 2.38324 43.6206 3.84286 49.8863C5.9165 46.0852 6.85626 47.4948 9.44594 45.0077C6.52667 48.6906 5.86749 52.0866 8.45713 54.6694C9.02215 51.7039 10.576 51.9908 12.1298 49.5515C9.25761 55.3389 11.9414 56.3434 11.706 60.2655C12.5153 60.2828 13.1637 59.5519 13.7502 58.6393C14.5445 57.4033 15.2252 55.8342 16.0378 55.339C15.5396 56.7037 15.4915 57.5572 15.7476 58.1877C15.914 58.5973 16.2086 58.9128 16.5916 59.2133C16.7376 59.3279 16.8965 59.4403 17.066 59.555C17.2041 59.6483 17.3492 59.7431 17.5001 59.8417L17.5445 59.8707C18.2993 60.364 19.1955 60.9572 20.087 61.9395ZM32.1617 43.5182C31.9923 45.054 29.2886 46.652 26.2761 47.201C25.3909 46.9458 24.6997 46.5558 24.2049 45.9937C23.9013 45.6486 23.6717 45.2386 23.5166 44.755C23.433 44.4945 23.3712 44.2124 23.3311 43.9078C23.2902 43.5971 23.2719 43.2627 23.2763 42.9033C23.2794 42.6599 23.2927 42.405 23.3167 42.1381C23.3425 41.8494 23.3806 41.5466 23.4309 41.2293C23.6106 40.0975 23.9463 38.7805 24.4398 37.2524L21.9443 38.3047C17.3426 32.637 17.0643 29.6088 21.6871 22.5277C23.4762 20.6146 24.4265 20.627 26.1819 19.5555L24.4398 18.6946C28.4615 17.1348 30.7207 17.3622 32.8864 21.4756C35.0521 17.3622 37.3113 17.1348 41.333 18.6946L39.5908 19.5555C41.3462 20.627 42.2966 20.6146 44.0857 22.5277C48.7085 29.6088 48.4303 32.637 43.8285 38.3047L41.333 37.2524C43.3703 43.5596 42.7184 46.272 39.4967 47.201C36.4843 46.652 33.7804 45.054 33.6112 43.5182C33.4783 40.9296 37.4249 40.9353 38.0841 40.1222C38.7433 39.3091 38.0842 37.2524 37.5192 36.4872L36.8129 39.0221C36.8129 39.0221 35.1678 38.256 32.8864 38.241C30.605 38.256 28.9599 39.0221 28.9599 39.0221L28.2536 36.4872C27.6886 37.2524 27.0295 39.3091 27.6886 40.1222C28.3478 40.9353 32.2944 40.9296 32.1617 43.5182ZM26.2761 49.0664L32.8864 46.2514L39.4967 49.0664C39.6412 51.3527 39.2648 52.1385 38.0841 52.9885L37.5881 51.9431C37.2986 53.0158 36.589 53.9043 36.0125 54.1843L35.2121 52.3668C34.8469 53.6341 33.4043 54.1434 32.8864 55.2434C32.3685 54.1434 30.926 53.6341 30.5608 52.3668L29.7604 54.1843C29.1838 53.9043 28.4743 53.0158 28.1847 51.9431L27.6886 52.9885C26.508 52.1385 26.1316 51.3527 26.2761 49.0664ZM13.1219 18.6946C13.2797 19.8482 13.5042 20.4742 14.3932 21.5165C8.79197 19.3162 14.8191 8.36313 18.1146 13.9114C14.7717 11.9504 11.9946 16.255 14.4421 20.0813L13.1219 18.6946ZM15.2896 18.8379L15.0072 19.6031C12.6058 16.9725 15.2425 13.3853 15.9959 15.1071L16.655 15.6333C15.4646 16.4956 14.912 17.4718 15.2896 18.8379ZM20.2317 23.2931L19.855 23.8671C18.1962 24.2279 17.3745 24.5928 16.009 25.3889C17.1746 24.0908 18.0721 23.5984 20.2317 23.2931ZM20.7025 22.2887C18.3466 22.5577 17.2302 23.0025 15.5232 24.2019C17.1282 22.0605 18.3997 21.3581 21.6871 21.5165L20.7025 22.2887ZM21.7855 20.6625C19.184 20.5208 18.0031 21.1396 16.0052 22.5277C17.9716 20.3277 18.6374 19.7542 22.8214 19.945L21.7855 20.6625ZM21.2675 18.9406C18.5215 19.0472 17.4742 19.6686 16.1353 21.3799C17.1371 19.1879 18.1285 18.4502 20.5142 17.8405C20.9293 18.1612 21.0866 18.4089 21.2675 18.9406ZM20.985 17.2187C18.5631 17.5474 17.1602 18.5101 16.2185 19.8015C16.5481 16.9796 20.3975 14.883 25.4581 16.1665C23.7991 16.6448 22.4923 16.36 20.8909 16.7404L20.985 17.2187ZM24.5635 13.9114C19.3843 13.4402 19.4783 14.8272 17.3124 16.5491C19.4783 15.6333 20.824 14.5842 24.6577 14.8272L24.5635 13.9114ZM21.8796 18.9406H23.151C23.5666 18.2159 24.1104 17.9406 24.9873 17.4101L22.068 17.5057L21.5971 18.3188C21.6599 18.5261 21.8043 18.9406 21.8796 18.9406ZM19.855 10.8095C23.7195 11.5948 24.926 12.8417 26.9649 15.1621C26.1533 11.0965 18.3844 7.36579 12.8284 10.4747L14.3932 10.8095C11.6058 11.5535 10.5213 12.8184 9.44717 14.4446C12.4627 12.9141 14.0636 11.3835 18.16 10.8095L18.1146 11.7661C19.9214 12.2785 20.6554 12.5498 21.5861 13.3445L22.4336 13.1532C21.7544 12.0424 21.1442 11.8561 19.7137 11.3835L19.855 10.8095ZM17.4066 27.4064L18.8191 26.0673C14.2519 27.1195 11.6583 29.3881 8.41351 32.4286L7.00098 32.2851C6.13668 33.3027 4.8475 34.49 4.08174 35.681V38.4073C4.98576 36.0865 5.96928 34.686 7.00098 33.9112C8.50768 35.2506 11.006 29.7388 17.4066 27.4064ZM14.4403 30.5633L17.7833 28.9849L17.9245 28.2674C16.1091 28.6053 14.3838 29.3479 10.5323 33.5287H9.5435C9.48079 34.0708 9.21391 35.2984 9.21391 35.2984C9.21391 35.2984 9.74757 35.5376 9.87309 35.5376L10.1085 34.2461L11.2385 34.4375C11.2072 34.1983 11.2385 33.6722 11.2385 33.6722C11.2385 33.6722 13.4044 32.1257 14.4403 31.5199V30.5633ZM6.53013 38.0391C6.53013 38.4353 6.21393 38.7565 5.82387 38.7565C5.43381 38.7565 5.1176 38.4353 5.1176 38.0391C5.1176 37.6428 5.43381 37.3216 5.82387 37.3216C5.98286 37.3216 6.12959 37.375 6.24763 37.465L7.70725 35.9202L9.87309 36.6376C13.0748 33.6722 13.9201 32.5233 17.7833 31.2329L16.6062 32.9069C16.6062 32.9069 15.3707 32.9722 10.2498 37.5942L8.69602 39.8422L7.70725 42.1859L4.92926 44.8644L7.33057 39.8422L8.69602 37.465L7.8485 37.0203L6.53013 38.0391ZM10.5794 49.1689C10.5794 49.5651 10.2632 49.8863 9.87309 49.8863C9.48305 49.8863 9.16683 49.5651 9.16683 49.1689C9.16683 48.9611 9.25384 48.774 9.39283 48.6429L10.2498 45.3427L12.1298 43.573L15.7476 37.5942L16.7835 38.6465L18.1019 38.3047L17.9245 36.3985L18.9494 35.1549L19.8911 36.3985L18.9494 37.3551V39.8422L17.066 40.6075L16.0772 40.1222L15.6064 41.325V48.4514L13.3934 51.0344V55.1376C13.4867 55.2592 13.5423 55.4122 13.5423 55.5782C13.5423 55.9745 13.2261 56.2957 12.836 56.2957C12.4459 56.2957 12.1298 55.9745 12.1298 55.5782C12.1298 55.347 12.2374 55.1413 12.4046 55.0101V50.5561L14.2409 48.2125V43.2382L14.6176 42.6164V41.325L12.593 44.8644L11.0392 46.2514L10.4383 48.7386C10.5269 48.8584 10.5794 49.0075 10.5794 49.1689ZM10.5323 41.325L6.53013 45.0077L8.41351 44.5296L12.1298 41.7554L13.8172 37.5942L17.7833 34.9158L18.0077 32.9069L12.6401 37.0203L10.5323 41.325ZM15.3315 54.2874C15.7216 54.2874 16.0378 53.9662 16.0378 53.57C16.0378 53.1737 15.7216 52.8525 15.3315 52.8525C14.9414 52.8525 14.6252 53.1737 14.6252 53.57C14.6252 53.9662 14.9414 54.2874 15.3315 54.2874ZM18.714 42.7599C19.104 42.7599 19.4202 42.4386 19.4202 42.0424C19.4202 41.6462 19.104 41.325 18.714 41.325C18.3239 41.325 18.0077 41.6462 18.0077 42.0424C18.0077 42.4386 18.3239 42.7599 18.714 42.7599ZM32.8864 65.3355C33.2764 65.3355 33.5927 65.0143 33.5927 64.6181C33.5927 64.2219 33.2764 63.9006 32.8864 63.9006C32.4963 63.9006 32.1801 64.2219 32.1801 64.6181C32.1801 65.0143 32.4963 65.3355 32.8864 65.3355ZM5.63206 29.9893C5.63206 30.3855 5.31586 30.7067 4.9258 30.7067C4.53574 30.7067 4.21953 30.3855 4.21953 29.9893C4.21953 29.7104 4.37629 29.4685 4.60521 29.3498L7.97872 25.3498L12.3465 24.9566L13.3463 24L14.3932 24.9566C14.3932 24.9566 13.8692 25.5502 13.2992 25.9238L8.68498 26.4499L5.61163 29.8173C5.62498 29.8724 5.63206 29.93 5.63206 29.9893ZM6.04825 21.038C6.43832 21.038 6.75452 20.7168 6.75452 20.3206C6.75452 19.9243 6.43832 19.6031 6.04825 19.6031C5.6582 19.6031 5.34199 19.9243 5.34199 20.3206C5.34199 20.7168 5.6582 21.038 6.04825 21.038ZM18.6308 43.573C18.6308 43.573 18.1569 43.2896 17.642 43.0468L17.1241 43.8839L16.6062 44.7209V50.5561L15.6064 52.2302L16.4539 52.8525L17.7473 50.5561V45.534L18.6308 43.573ZM18.8552 58.3045V59.2133L17.066 57.7306V53.57L19.3731 50.4126L18.714 49.8863V45.7253L20.2677 44.1469V40.9902L21.1153 39.5553V44.3382L19.4673 45.9166V49.0664L20.6444 50.1735L19.6149 51.7519H21.7744V45.3905L22.6152 46.2445V52.0867V55.8582L24.4583 57.7306V60.5047L26.5771 62.6571H27.8954V64.0441H26.0591L23.0457 60.983V57.9697L21.7744 56.6783V52.8525H18.8968L18.0548 54.1434V57.4914L18.8552 58.3045ZM26.2761 60.1221V54.9086H25.7766V51.7519L26.2761 52.6128L26.3416 53.8564H27.2362V59.2133L29.7604 61.1743V61.844L31.3797 63.4223L30.9088 64.1398L29.5905 63.3267V64.6659L30.438 65.5679L30.9088 65.0007L31.4268 65.8138L30.6263 66.7226L28.6017 64.5703V61.844L26.2761 60.1221ZM20.3211 55.3868C20.7112 55.3868 21.0274 55.0656 21.0274 54.6694C21.0274 54.2732 20.7112 53.9519 20.3211 53.9519C19.931 53.9519 19.6149 54.2732 19.6149 54.6694C19.6149 55.0656 19.931 55.3868 20.3211 55.3868ZM24.8349 49.743L23.9874 48.4514V56.0087L24.9762 57.0131V60.1221H25.5412V56.2957L24.8349 55.5782V49.743ZM31.4739 55.6261V62.7049L30.6734 61.8918V54.813L31.4739 55.6261ZM28.9784 54.6626L28.1847 53.8564V59.0289L30.1084 60.5047V59.1655L28.9784 58.3045V54.6626ZM30.0613 55.2703L29.4963 54.7852V57.9219H30.0613V55.2703ZM9.01457 29.7023L10.2388 29.9893L13.8643 27.1195L12.1692 27.0717L9.01457 29.7023ZM7.96769 24.6324L12.3465 22.1452L12.9171 22.5518L13.4876 22.9583L10.5683 24.3932L7.96769 24.6324ZM6.89577 22.4322L10.945 19.7537L11.186 20.8777L11.7565 21.2843L7.60204 23.6279L4.07071 27.837L4.16487 25.9238L6.89577 22.4322ZM6.94286 19.0363L5.71866 18.9406C6.98869 17.2115 8.29869 16.6859 10.945 15.9752L9.81499 17.9362C8.5772 18.3838 8.03707 18.6118 7.17828 19.4189L6.94286 19.0363ZM6.00117 22.2409L7.17828 20.8777L7.4137 20.1033C8.41191 19.5458 8.94924 19.2054 9.95625 18.6058L10.8509 19.2276L6.33076 22.1452L6.00117 22.2409ZM23.187 9.66162C25.6762 11.3954 26.7872 12.4312 27.8013 14.4924C27.9425 13.1054 27.8269 12.1051 24.5053 9.18333L24.2228 9.51813L22.8574 8.70503L22.057 9.51813L22.8574 9.90077L23.187 9.66162ZM21.8796 7.65277C23.8462 7.74843 25.8237 8.84852 28.6959 12.1966C28.1309 9.42247 25.353 7.09165 22.057 6.93532V6.4092L19.7137 5.97873L19.5615 6.50486C16.501 5.40477 13.8643 6.19693 12.593 7.15352C15.2768 7.01003 17.2543 6.4092 19.3261 7.31796L19.1848 8.51371L21.5971 8.94418L21.8796 7.65277ZM24.6937 3.39592C29.5905 2.15234 32.4155 10.9052 31.1913 14.1576C30.6882 10.9769 30.3909 10.4747 29.7299 8.56154L29.2138 9.18333C29.7788 10.6661 30.0333 11.4792 29.8527 12.7227C29.1387 11.0965 28.9569 10.0641 27.8013 8.94418L28.991 7.46145C27.7071 5.26128 26.4559 4.82089 24.6937 3.39592ZM31.0972 2.31975L30.4851 1.86536L30.3909 5.73958L31.568 7.46145C32.0082 9.80483 32.1909 10.3658 32.4626 10.7617V7.46145L31.0501 5.38085L31.0972 2.31975ZM52.6508 18.6946C52.4931 19.8482 52.2686 20.4742 51.3796 21.5165C56.9808 19.3162 50.9536 8.36313 47.6582 13.9114C51.0011 11.9504 53.7781 16.255 51.3307 20.0813L52.6508 18.6946ZM50.7657 19.6031L50.4832 18.8379C50.8609 17.4718 50.3082 16.4956 49.1177 15.6333L49.7769 15.1071C50.5303 13.3853 53.167 16.9725 50.7657 19.6031ZM45.5411 23.2931L45.9178 23.8671C47.5766 24.2279 48.3983 24.5928 49.7638 25.3889C48.5983 24.0908 47.7007 23.5984 45.5411 23.2931ZM45.0702 22.2887C47.4262 22.5577 48.5425 23.0025 50.2495 24.2019C48.6447 22.0605 47.3731 21.3581 44.0857 21.5165L45.0702 22.2887ZM43.9873 20.6625C46.5889 20.5208 47.7697 21.1396 49.7677 22.5277C47.8011 20.3277 47.1354 19.7542 42.9513 19.945L43.9873 20.6625ZM44.5052 18.9406C47.2513 19.0472 48.2985 19.6686 49.6374 21.3799C48.6357 19.1879 47.6443 18.4502 45.2586 17.8405C44.8435 18.1612 44.6862 18.4089 44.5052 18.9406ZM44.7877 17.2187C47.2097 17.5474 48.6126 18.5101 49.5543 19.8015C49.2247 16.9796 45.3754 14.883 40.3146 16.1665C41.9737 16.6448 43.2806 16.36 44.8819 16.7404L44.7877 17.2187ZM41.2092 13.9114C46.3885 13.4402 46.2944 14.8272 48.4603 16.5491C46.2944 15.6333 44.9488 14.5842 41.1151 14.8272L41.2092 13.9114ZM43.8931 18.9406H42.6218C42.2063 18.2159 41.6625 17.9406 40.7855 17.4101L43.7048 17.5057L44.1756 18.3188C44.1128 18.5261 43.9685 18.9406 43.8931 18.9406ZM45.9178 10.8095C42.0534 11.5948 40.8468 12.8417 38.8079 15.1621C39.6195 11.0965 47.3884 7.36579 52.9444 10.4747L51.3796 10.8095C54.167 11.5535 55.2515 12.8184 56.3256 14.4446C53.31 12.9141 51.7092 11.3835 47.6128 10.8095L47.6582 11.7661C45.8515 12.2785 45.1174 12.5498 44.1867 13.3445L43.3391 13.1532C44.007 12.0611 44.6081 11.8627 45.9875 11.4071L46.059 11.3835L45.9178 10.8095ZM48.3662 27.4064L46.9536 26.0673C51.5208 27.1195 54.1145 29.3881 57.3593 32.4286L58.7718 32.2851C59.6361 33.3027 60.9253 34.49 61.6911 35.681V38.4073C60.787 36.0865 59.8035 34.686 58.7718 33.9112C57.2651 35.2506 54.7667 29.7388 48.3662 27.4064ZM51.3325 30.5633L47.9895 28.9849L47.8482 28.2674C49.6636 28.6053 51.389 29.3479 55.2405 33.5287H56.2293C56.2921 34.0708 56.5589 35.2984 56.5589 35.2984C56.5589 35.2984 56.0252 35.5376 55.8997 35.5376L55.6643 34.2461L54.5342 34.4375C54.5656 34.1983 54.5342 33.6722 54.5342 33.6722C54.5342 33.6722 52.3683 32.1257 51.3325 31.5199V30.5633ZM59.9489 38.7565C59.5589 38.7565 59.2427 38.4353 59.2427 38.0391L57.9243 37.0203L57.0768 37.465L58.4422 39.8422L60.8435 44.8644L58.0656 42.1859L57.0768 39.8422L55.523 37.5942C50.4022 32.9722 49.1666 32.9069 49.1666 32.9069L47.9895 31.2329C51.8528 32.5233 52.6979 33.6722 55.8997 36.6376L58.0656 35.9202L59.5252 37.465C59.6433 37.375 59.79 37.3216 59.9489 37.3216C60.339 37.3216 60.6552 37.6428 60.6552 38.0391C60.6552 38.4353 60.339 38.7565 59.9489 38.7565ZM55.8997 49.8863C55.5096 49.8863 55.1934 49.5651 55.1934 49.1689C55.1934 49.0075 55.2459 48.8584 55.3345 48.7386L54.7336 46.2514L53.1798 44.8644L51.1552 41.325V42.6164L51.5318 43.2382V48.2125L53.3681 50.5561V55.0101C53.5354 55.1413 53.6431 55.347 53.6431 55.5782C53.6431 55.9745 53.3269 56.2957 52.9368 56.2957C52.5468 56.2957 52.2306 55.9745 52.2306 55.5782C52.2306 55.4122 52.2861 55.2592 52.3794 55.1376V51.0344L50.1664 48.4514V41.325L49.6955 40.1222L48.7068 40.6075L46.8234 39.8422V37.3551L45.8817 36.3985L46.8234 35.1549L47.8482 36.3985L47.6709 38.3047L48.9893 38.6465L50.0251 37.5942L53.6431 43.573L55.523 45.3427L56.38 48.6429C56.519 48.774 56.6059 48.9611 56.6059 49.1689C56.6059 49.5651 56.2897 49.8863 55.8997 49.8863ZM55.2405 41.325L59.2427 45.0077L57.3593 44.5296L53.6431 41.7554L51.9557 37.5942L47.9895 34.9158L47.7652 32.9069L53.1328 37.0203L55.2405 41.325ZM50.4414 54.2874C50.0513 54.2874 49.7351 53.9662 49.7351 53.57C49.7351 53.1737 50.0513 52.8525 50.4414 52.8525C50.8314 52.8525 51.1476 53.1737 51.1476 53.57C51.1476 53.9662 50.8314 54.2874 50.4414 54.2874ZM47.0588 42.7599C46.6688 42.7599 46.3525 42.4386 46.3525 42.0424C46.3525 41.6462 46.6688 41.325 47.0588 41.325C47.4489 41.325 47.7651 41.6462 47.7651 42.0424C47.7651 42.4386 47.4489 42.7599 47.0588 42.7599ZM60.847 30.7067C60.457 30.7067 60.1408 30.3855 60.1408 29.9893C60.1408 29.93 60.1478 29.8724 60.1612 29.8173L57.0878 26.4499L52.4735 25.9238C51.9035 25.5502 51.3796 24.9566 51.3796 24.9566L52.4264 24L53.4262 24.9566L57.7941 25.3498L61.1676 29.3498C61.3965 29.4685 61.5533 29.7104 61.5533 29.9893C61.5533 30.3855 61.2371 30.7067 60.847 30.7067ZM59.7245 21.038C59.3345 21.038 59.0183 20.7168 59.0183 20.3206C59.0183 19.9243 59.3345 19.6031 59.7245 19.6031C60.1146 19.6031 60.4308 19.9243 60.4308 20.3206C60.4308 20.7168 60.1146 21.038 59.7245 21.038ZM47.142 43.573C47.142 43.573 47.6159 43.2896 48.1307 43.0468L48.6487 43.8839L49.1666 44.7209V50.5561L50.1664 52.2302L49.3189 52.8525L48.0255 50.5561V45.534L47.142 43.573ZM46.9176 58.3045V59.2133L48.7068 57.7306V53.57L46.3996 50.4126L47.0588 49.8863V45.7253L45.505 44.1469V40.9902L44.6575 39.5553V44.3382L46.3055 45.9166V49.0664L45.1283 50.1735L46.158 51.7519H43.9983V45.3905L43.1577 46.2445V52.0867V55.8582L41.3145 57.7306V60.5047L39.1957 62.6571H37.8773V64.0441H39.7136L42.727 60.983V57.9697L43.9983 56.6783V52.8525H46.876L47.718 54.1434V57.4914L46.9176 58.3045ZM39.4967 60.1221V54.9086H39.9961V51.7519L39.4967 52.6128L39.4311 53.8564H38.5365V59.2133L36.0125 61.1743V61.844L34.3931 63.4223L34.8639 64.1398L36.1823 63.3267V64.6659L35.3348 65.5679L34.8639 65.0007L34.346 65.8138L35.1464 66.7226L37.1711 64.5703V61.844L39.4967 60.1221ZM45.4517 55.3868C45.0617 55.3868 44.7455 55.0656 44.7455 54.6694C44.7455 54.2732 45.0617 53.9519 45.4517 53.9519C45.8418 53.9519 46.158 54.2732 46.158 54.6694C46.158 55.0656 45.8418 55.3868 45.4517 55.3868ZM40.9378 49.743L41.7853 48.4514V56.0087L40.7966 57.0131V60.1221H40.2316V56.2957L40.9378 55.5782V49.743ZM34.2989 55.6261V62.7049L35.0994 61.8918V54.813L34.2989 55.6261ZM36.7944 54.6626L37.5881 53.8564V59.0289L35.6644 60.5047V59.1655L36.7944 58.3045V54.6626ZM35.7115 55.2703L36.2765 54.7852V57.9219H35.7115V55.2703ZM56.7582 29.7023L55.534 29.9893L51.9085 27.1195L53.6036 27.0717L56.7582 29.7023ZM57.8051 24.6324L53.4262 22.1452L52.8558 22.5518L52.2852 22.9583L55.2044 24.3932L57.8051 24.6324ZM58.877 22.4322L54.8277 19.7537L54.5869 20.8777L54.0163 21.2843L58.1707 23.6279L61.7021 27.837L61.6079 25.9238L58.877 22.4322ZM58.8299 19.0363L60.0541 18.9406C58.7842 17.2115 57.4741 16.6859 54.8277 15.9752L55.9578 17.9362C57.1956 18.3838 57.7358 18.6118 58.5945 19.4189L58.8299 19.0363ZM59.7716 22.2409L58.5945 20.8777L58.3591 20.1033C57.3609 19.5458 56.8236 19.2054 55.8165 18.6058L54.9219 19.2276L59.442 22.1452L59.7716 22.2409ZM42.5858 9.66162C40.0967 11.3954 38.9856 12.4312 37.9715 14.4924C37.8303 13.1054 37.9459 12.1051 41.2674 9.18333L41.5499 9.51813L42.9154 8.70503L43.7158 9.51813L42.9154 9.90077L42.5858 9.66162ZM43.8931 7.65277C41.9266 7.74843 39.9491 8.84852 37.0769 12.1966C37.6419 9.42247 40.4198 7.09165 43.7158 6.93532V6.4092L46.059 5.97873L46.2113 6.50486C49.2718 5.40477 51.9085 6.19693 53.1798 7.15352C50.496 7.01003 48.5184 6.4092 46.4467 7.31796L46.588 8.51371L44.1756 8.94418L43.8931 7.65277ZM41.0791 3.39592C36.1823 2.15234 33.3572 10.9052 34.5814 14.1576C35.0847 10.9769 35.3819 10.4747 36.0429 8.56154L36.559 9.18333C35.994 10.6661 35.7394 11.4792 35.9201 12.7227C36.634 11.0965 36.816 10.0641 37.9715 8.94418L36.7818 7.46145C38.0657 5.26128 39.317 4.82089 41.0791 3.39592ZM34.6756 2.31975L35.2877 1.86536L35.3819 5.73958L34.2047 7.46145C33.7647 9.80483 33.5819 10.3658 33.3101 10.7617V7.46145L34.7227 5.38085L34.6756 2.31975Z" fill="url(#paint4_radial_1778_17213)"/>
</g>
</g>
</g>
<defs>
<filter id="filter0_d_1778_17213" x="67.2812" y="14.624" width="107.183" height="49.616" filterUnits="userSpaceOnUse" color-interpolation-filters="sRGB">
<feFlood flood-opacity="0" result="BackgroundImageFix"/>
<feColorMatrix in="SourceAlpha" type="matrix" values="0 0 0 0 0 0 0 0 0 0 0 0 0 0 0 0 0 0 127 0" result="hardAlpha"/>
<feOffset dy="5"/>
<feGaussianBlur stdDeviation="2"/>
<feComposite in2="hardAlpha" operator="out"/>
<feColorMatrix type="matrix" values="0 0 0 0 0 0 0 0 0 0 0 0 0 0 0 0 0 0 0.5 0"/>
<feBlend mode="normal" in2="BackgroundImageFix" result="effect1_dropShadow_1778_17213"/>
<feBlend mode="normal" in="SourceGraphic" in2="effect1_dropShadow_1778_17213" result="shape"/>
</filter>
<filter id="filter1_d_1778_17213" x="16.2979" y="26.4867" width="16.1714" height="14.5606" filterUnits="userSpaceOnUse" color-interpolation-filters="sRGB">
<feFlood flood-opacity="0" result="BackgroundImageFix"/>
<feColorMatrix in="SourceAlpha" type="matrix" values="0 0 0 0 0 0 0 0 0 0 0 0 0 0 0 0 0 0 127 0" result="hardAlpha"/>
<feOffset dy="5"/>
<feGaussianBlur stdDeviation="2"/>
<feComposite in2="hardAlpha" operator="out"/>
<feColorMatrix type="matrix" values="0 0 0 0 0 0 0 0 0 0 0 0 0 0 0 0 0 0 0.3 0"/>
<feBlend mode="normal" in2="BackgroundImageFix" result="effect1_dropShadow_1778_17213"/>
<feBlend mode="normal" in="SourceGraphic" in2="effect1_dropShadow_1778_17213" result="shape"/>
</filter>
<filter id="filter2_d_1778_17213" x="18.3096" y="27.4562" width="12.1948" height="11.0579" filterUnits="userSpaceOnUse" color-interpolation-filters="sRGB">
<feFlood flood-opacity="0" result="BackgroundImageFix"/>
<feColorMatrix in="SourceAlpha" type="matrix" values="0 0 0 0 0 0 0 0 0 0 0 0 0 0 0 0 0 0 127 0" result="hardAlpha"/>
<feOffset dy="5"/>
<feGaussianBlur stdDeviation="2"/>
<feComposite in2="hardAlpha" operator="out"/>
<feColorMatrix type="matrix" values="0 0 0 0 0 0 0 0 0 0 0 0 0 0 0 0 0 0 0.3 0"/>
<feBlend mode="normal" in2="BackgroundImageFix" result="effect1_dropShadow_1778_17213"/>
<feBlend mode="normal" in="SourceGraphic" in2="effect1_dropShadow_1778_17213" result="shape"/>
</filter>
<filter id="filter3_d_1778_17213" x="33.5137" y="26.4868" width="16.1709" height="14.5606" filterUnits="userSpaceOnUse" color-interpolation-filters="sRGB">
<feFlood flood-opacity="0" result="BackgroundImageFix"/>
<feColorMatrix in="SourceAlpha" type="matrix" values="0 0 0 0 0 0 0 0 0 0 0 0 0 0 0 0 0 0 127 0" result="hardAlpha"/>
<feOffset dy="5"/>
<feGaussianBlur stdDeviation="2"/>
<feComposite in2="hardAlpha" operator="out"/>
<feColorMatrix type="matrix" values="0 0 0 0 0 0 0 0 0 0 0 0 0 0 0 0 0 0 0.3 0"/>
<feBlend mode="normal" in2="BackgroundImageFix" result="effect1_dropShadow_1778_17213"/>
<feBlend mode="normal" in="SourceGraphic" in2="effect1_dropShadow_1778_17213" result="shape"/>
</filter>
<filter id="filter4_d_1778_17213" x="35.478" y="27.4562" width="12.1948" height="11.0579" filterUnits="userSpaceOnUse" color-interpolation-filters="sRGB">
<feFlood flood-opacity="0" result="BackgroundImageFix"/>
<feColorMatrix in="SourceAlpha" type="matrix" values="0 0 0 0 0 0 0 0 0 0 0 0 0 0 0 0 0 0 127 0" result="hardAlpha"/>
<feOffset dy="5"/>
<feGaussianBlur stdDeviation="2"/>
<feComposite in2="hardAlpha" operator="out"/>
<feColorMatrix type="matrix" values="0 0 0 0 0 0 0 0 0 0 0 0 0 0 0 0 0 0 0.3 0"/>
<feBlend mode="normal" in2="BackgroundImageFix" result="effect1_dropShadow_1778_17213"/>
<feBlend mode="normal" in="SourceGraphic" in2="effect1_dropShadow_1778_17213" result="shape"/>
</filter>
<filter id="filter5_d_1778_17213" x="-3.96973" y="0" width="73.7124" height="79.5968" filterUnits="userSpaceOnUse" color-interpolation-filters="sRGB">
<feFlood flood-opacity="0" result="BackgroundImageFix"/>
<feColorMatrix in="SourceAlpha" type="matrix" values="0 0 0 0 0 0 0 0 0 0 0 0 0 0 0 0 0 0 127 0" result="hardAlpha"/>
<feOffset dy="5"/>
<feGaussianBlur stdDeviation="2"/>
<feComposite in2="hardAlpha" operator="out"/>
<feColorMatrix type="matrix" values="0 0 0 0 0 0 0 0 0 0 0 0 0 0 0 0 0 0 0.3 0"/>
<feBlend mode="normal" in2="BackgroundImageFix" result="effect1_dropShadow_1778_17213"/>
<feBlend mode="normal" in="SourceGraphic" in2="effect1_dropShadow_1778_17213" result="shape"/>
</filter>
<linearGradient id="paint0_linear_1778_17213" x1="20.5609" y1="27.1673" x2="28.348" y2="31.8416" gradientUnits="userSpaceOnUse">
<stop stop-color="#F7F7F7"/>
<stop offset="1" stop-color="#373838"/>
</linearGradient>
<linearGradient id="paint1_linear_1778_17213" x1="22.35" y1="27.5021" x2="26.5173" y2="29.4601" gradientUnits="userSpaceOnUse">
<stop stop-color="#F7F7F7"/>
<stop offset="1" stop-color="#373838" stop-opacity="0.59"/>
</linearGradient>
<linearGradient id="paint2_linear_1778_17213" x1="45.5158" y1="27.1195" x2="37.6348" y2="31.7931" gradientUnits="userSpaceOnUse">
<stop stop-color="#F7F7F7"/>
<stop offset="1" stop-color="#373838"/>
</linearGradient>
<linearGradient id="paint3_linear_1778_17213" x1="43.7266" y1="27.5021" x2="39.4655" y2="29.4597" gradientUnits="userSpaceOnUse">
<stop stop-color="#F7F7F7"/>
<stop offset="1" stop-color="#373838"/>
</linearGradient>
<radialGradient id="paint4_radial_1778_17213" cx="0" cy="0" r="1" gradientUnits="userSpaceOnUse" gradientTransform="translate(32.8864 35.2984) rotate(90) scale(35.2984 32.8561)">
<stop stop-color="#F7F7F7"/>
<stop offset="0.764729" stop-color="#373838"/>
</radialGradient>
<clipPath id="clip0_1778_17213">
<rect width="66" height="71" fill="white"/>
</clipPath>
<clipPath id="clip1_1778_17213">
<rect width="68" height="73" fill="white" transform="translate(-1 -1)"/>
</clipPath>
</defs>
</svg>
