<svg width="706" height="747" viewBox="0 0 706 747" fill="none" xmlns="http://www.w3.org/2000/svg">
<path d="M302.477 333.319C266.977 292.318 278.977 332.319 223.977 284.817C292.477 272.318 276.977 279.318 302.477 333.319Z" stroke="white" stroke-width="4"/>
<path d="M283.477 308.499C263.069 305.455 253.372 300.975 239.477 287.499C239.477 287.499 250.578 286.42 258.477 287.499C266.375 288.579 258.477 296.999 279.72 300.762C283.283 303.679 284.977 308.999 283.477 308.499Z" fill="white"/>
<path d="M403.336 333.319C438.836 292.318 426.836 332.319 481.836 284.818C413.336 272.318 428.836 279.318 403.336 333.319Z" stroke="white" stroke-width="4"/>
<path d="M422.336 308.499C442.744 305.455 452.44 300.975 466.336 287.499C466.336 287.499 455.234 286.42 447.336 287.499C439.438 288.579 447.336 297 426.092 300.763C422.53 303.68 420.836 309 422.336 308.499Z" fill="white"/>
<g filter="url(#filter0_d_1510_9432)">
<path d="M302.477 333.319C266.977 292.318 278.977 332.319 223.977 284.817C292.477 272.318 276.977 279.318 302.477 333.319Z" stroke="url(#paint0_linear_1510_9432)" stroke-width="4" shape-rendering="crispEdges"/>
</g>
<g filter="url(#filter1_d_1510_9432)">
<path d="M283.477 308.499C263.069 305.455 253.372 300.975 239.477 287.499C239.477 287.499 250.578 286.42 258.477 287.499C266.375 288.579 258.477 296.999 279.72 300.762C283.283 303.679 284.977 308.999 283.477 308.499Z" fill="url(#paint1_linear_1510_9432)" shape-rendering="crispEdges"/>
</g>
<g filter="url(#filter2_d_1510_9432)">
<path d="M403.336 333.319C438.836 292.318 426.836 332.319 481.836 284.818C413.336 272.318 428.836 279.318 403.336 333.319Z" stroke="url(#paint2_linear_1510_9432)" stroke-width="4" shape-rendering="crispEdges"/>
</g>
<g filter="url(#filter3_d_1510_9432)">
<path d="M422.336 308.499C442.744 305.455 452.44 300.975 466.336 287.499C466.336 287.499 455.234 286.42 447.336 287.499C439.438 288.579 447.336 297 426.092 300.763C422.53 303.68 420.836 309 422.336 308.499Z" fill="url(#paint3_linear_1510_9432)"/>
</g>
<g filter="url(#filter4_d_1510_9432)">
<path d="M73.0234 397.65C73.0234 401.792 69.6656 405.15 65.5234 405.15C61.3813 405.15 58.0234 401.792 58.0234 397.65C58.0234 393.508 61.3813 390.15 65.5234 390.15C67.2118 390.15 68.7699 390.708 70.0234 391.649C71.8451 393.018 73.0234 395.196 73.0234 397.65Z" fill="url(#paint4_radial_1510_9432)"/>
<path d="M116.023 513.998C116.023 518.14 112.666 521.498 108.523 521.498C104.381 521.498 101.023 518.14 101.023 513.998C101.023 511.826 101.947 509.87 103.423 508.5C104.761 507.258 106.553 506.498 108.523 506.498C110.978 506.498 113.157 507.677 114.525 509.5C115.466 510.753 116.023 512.311 116.023 513.998Z" fill="url(#paint5_radial_1510_9432)"/>
<path d="M147.487 581C147.487 585.142 144.129 588.5 139.987 588.5C135.844 588.5 132.487 585.142 132.487 581C132.487 578.583 133.63 576.432 135.406 575.061C136.673 574.082 138.262 573.5 139.987 573.5C141.711 573.5 143.3 574.082 144.567 575.061C145.067 575.447 145.518 575.896 145.906 576.394C146.897 577.665 147.487 579.264 147.487 581Z" fill="url(#paint6_radial_1510_9432)"/>
<path d="M173.987 560.006C173.987 564.148 170.629 567.506 166.487 567.506C162.344 567.506 158.987 564.148 158.987 560.006C158.987 555.864 162.344 552.506 166.487 552.506C170.629 552.506 173.987 555.864 173.987 560.006Z" fill="url(#paint7_radial_1510_9432)"/>
<path d="M209.906 439.5C209.906 443.642 206.548 447 202.406 447C198.264 447 194.906 443.642 194.906 439.5C194.906 435.358 198.264 432 202.406 432C206.548 432 209.906 435.358 209.906 439.5Z" fill="url(#paint8_radial_1510_9432)"/>
<path d="M360.406 675.5C360.406 679.642 357.048 683 352.906 683C348.764 683 345.406 679.642 345.406 675.5C345.406 671.358 348.764 668 352.906 668C357.048 668 360.406 671.358 360.406 675.5Z" fill="url(#paint9_radial_1510_9432)"/>
<path d="M63.4866 313.5C63.4866 317.642 60.1288 321 55.9866 321C51.8445 321 48.4866 317.642 48.4866 313.5C48.4866 310.584 50.1513 308.056 52.5822 306.815C53.6039 306.294 54.7609 306 55.9866 306C59.5088 306 62.4639 308.428 63.2696 311.702C63.4114 312.278 63.4866 312.88 63.4866 313.5Z" fill="url(#paint10_radial_1510_9432)"/>
<path d="M75.4062 212.426C75.4062 216.568 72.0484 219.926 67.9062 219.926C63.7641 219.926 60.4062 216.568 60.4062 212.426C60.4062 208.283 63.7641 204.926 67.9062 204.926C72.0484 204.926 75.4062 208.283 75.4062 212.426Z" fill="url(#paint11_radial_1510_9432)"/>
<path d="M226.973 571.499C226.973 575.641 223.615 578.999 219.473 578.999C215.33 578.999 211.973 575.641 211.973 571.499C211.973 567.357 215.33 563.999 219.473 563.999C223.615 563.999 226.973 567.357 226.973 571.499Z" fill="url(#paint12_radial_1510_9432)"/>
<path d="M237.906 674.5C237.906 678.642 234.548 682 230.406 682C226.264 682 222.906 678.642 222.906 674.5C222.906 670.358 226.264 667 230.406 667C234.548 667 237.906 670.358 237.906 674.5Z" fill="url(#paint13_radial_1510_9432)"/>
<path d="M632.789 397.65C632.789 401.792 636.147 405.15 640.289 405.15C644.431 405.15 647.789 401.792 647.789 397.65C647.789 393.508 644.431 390.15 640.289 390.15C638.601 390.15 637.043 390.708 635.789 391.649C633.967 393.018 632.789 395.196 632.789 397.65Z" fill="url(#paint14_radial_1510_9432)"/>
<path d="M589.789 513.998C589.789 518.14 593.147 521.498 597.289 521.498C601.431 521.498 604.789 518.14 604.789 513.998C604.789 511.826 603.866 509.87 602.39 508.5C601.052 507.258 599.259 506.498 597.289 506.498C594.835 506.498 592.655 507.677 591.287 509.5C590.346 510.753 589.789 512.311 589.789 513.998Z" fill="url(#paint15_radial_1510_9432)"/>
<path d="M558.326 581C558.326 585.142 561.684 588.5 565.826 588.5C569.968 588.5 573.326 585.142 573.326 581C573.326 578.583 572.182 576.432 570.406 575.061C569.139 574.082 567.551 573.5 565.826 573.5C564.101 573.5 562.512 574.082 561.245 575.061C560.745 575.447 560.295 575.896 559.906 576.394C558.916 577.665 558.326 579.264 558.326 581Z" fill="url(#paint16_radial_1510_9432)"/>
<path d="M531.826 560.006C531.826 564.148 535.184 567.506 539.326 567.506C543.468 567.506 546.826 564.148 546.826 560.006C546.826 555.864 543.468 552.506 539.326 552.506C535.184 552.506 531.826 555.864 531.826 560.006Z" fill="url(#paint17_radial_1510_9432)"/>
<path d="M495.906 439.5C495.906 443.642 499.264 447 503.406 447C507.548 447 510.906 443.642 510.906 439.5C510.906 435.358 507.548 432 503.406 432C499.264 432 495.906 435.358 495.906 439.5Z" fill="url(#paint18_radial_1510_9432)"/>
<path d="M642.326 313.5C642.326 317.642 645.684 321 649.826 321C653.968 321 657.326 317.642 657.326 313.5C657.326 310.584 655.661 308.056 653.23 306.815C652.209 306.294 651.052 306 649.826 306C646.304 306 643.349 308.428 642.543 311.702C642.401 312.278 642.326 312.88 642.326 313.5Z" fill="url(#paint19_radial_1510_9432)"/>
<path d="M630.406 212.426C630.406 216.568 633.764 219.926 637.906 219.926C642.048 219.926 645.406 216.568 645.406 212.426C645.406 208.283 642.048 204.926 637.906 204.926C633.764 204.926 630.406 208.283 630.406 212.426Z" fill="url(#paint20_radial_1510_9432)"/>
<path d="M478.84 571.499C478.84 575.641 482.198 578.999 486.34 578.999C490.482 578.999 493.84 575.641 493.84 571.499C493.84 567.357 490.482 563.999 486.34 563.999C482.198 563.999 478.84 567.357 478.84 571.499Z" fill="url(#paint21_radial_1510_9432)"/>
<path d="M467.906 674.5C467.906 678.642 471.264 682 475.406 682C479.548 682 482.906 678.642 482.906 674.5C482.906 670.358 479.548 667 475.406 667C471.264 667 467.906 670.358 467.906 674.5Z" fill="url(#paint22_radial_1510_9432)"/>
<path fill-rule="evenodd" clip-rule="evenodd" d="M216.987 647.499C220.98 624.499 206.987 603.999 205.487 578.499C212.471 591.761 218.92 603.302 224.906 613.367C227.313 617.413 229.644 621.22 231.906 624.806C291.689 719.565 302.551 658.933 352.906 738C403.262 658.933 414.124 719.565 473.906 624.806C476.168 621.22 478.5 617.413 480.906 613.367C486.893 603.302 493.341 591.761 500.326 578.499C498.826 603.999 484.833 624.499 488.826 647.499C498.292 637.23 507.81 631.029 515.826 625.872L516.296 625.57C517.899 624.539 519.44 623.547 520.906 622.572C522.706 621.373 524.394 620.198 525.945 619C530.011 615.858 533.14 612.56 534.906 608.279C537.626 601.687 537.116 592.765 531.826 578.499C540.454 583.676 547.682 600.079 556.117 612.999C562.346 622.539 569.232 630.18 577.826 629.999C575.326 588.999 603.826 578.498 573.326 517.998C589.826 543.498 606.326 540.499 612.326 571.499C639.826 544.499 632.826 508.998 601.826 470.498C629.326 496.498 639.305 481.762 661.326 521.498C676.826 455.998 645.826 454.998 630.826 406.498C654.826 433.998 671.804 422.5 688.304 447C670.78 338.002 650.304 343.5 619.826 316.998C645.304 316.998 661.812 351.999 701.812 354.499C636.811 256.499 684.814 177.499 601.812 160.999C632.789 163.5 619.334 155.826 657.804 171.5C622.423 120.596 575.427 79.4324 513.406 89C526.392 73.2105 571.304 86 599.804 86C554.804 40 465.064 48.6965 410.325 82.4986C417.803 40.4985 495.303 43.4997 530.319 43.4997C469.667 10.1652 419.722 14.1129 385.906 44.6945V35.5C395.707 23.5885 402.699 19.326 415.906 13C404.716 11.3678 397.119 11.434 385.906 17L401.906 7C390.568 1.04077 381.63 0.287896 365.906 0V53.5L358.406 64.5V0H352.906H347.406V64.5L339.906 53.5V0C324.183 0.287896 315.244 1.04077 303.906 7L319.906 17C308.693 11.434 301.096 11.3678 289.906 13C303.114 19.326 310.106 23.5885 319.906 35.5V44.6945C286.091 14.1129 236.145 10.1652 175.493 43.4997C210.51 43.4997 288.01 40.4985 295.488 82.4986C240.749 48.6965 151.009 40 106.009 86C134.509 86 179.421 73.2105 192.406 89C130.386 79.4324 83.3891 120.596 48.009 171.5C86.4781 155.826 73.0234 163.5 104 160.999C20.9989 177.499 69.0011 256.499 4 354.499C44 351.999 60.509 316.998 85.9866 316.998C55.509 343.5 35.0324 338.002 17.509 447C34.0084 422.5 50.9861 433.998 74.9866 406.498C59.9866 454.998 28.9867 455.998 44.4867 521.498C66.5071 481.762 76.4866 496.498 103.987 470.498C72.9866 508.998 65.9866 544.499 93.4866 571.499C99.4866 540.499 115.987 543.498 132.487 517.998C101.987 578.498 130.487 588.999 127.987 629.999C136.581 630.18 143.467 622.539 149.695 612.999C158.13 600.079 165.358 583.676 173.987 578.499C168.697 592.765 168.186 601.687 170.906 608.279C172.673 612.56 175.801 615.858 179.868 619C181.419 620.198 183.106 621.373 184.906 622.572C186.372 623.547 187.913 624.538 189.516 625.569L189.987 625.872C198.003 631.029 207.52 637.23 216.987 647.499ZM345.21 454.927C343.412 470.982 314.7 487.687 282.71 493.427C273.31 490.759 265.97 486.682 260.716 480.806C257.491 477.198 255.053 472.912 253.406 467.857C252.519 465.133 251.862 462.185 251.436 459C251.002 455.752 250.808 452.257 250.855 448.5C250.887 445.955 251.029 443.29 251.283 440.5C251.557 437.482 251.962 434.317 252.496 431C254.404 419.168 257.969 405.401 263.21 389.427L236.71 400.427C187.842 341.178 184.888 309.522 233.978 235.499C252.977 215.499 263.069 215.629 281.71 204.428L263.21 195.428C305.917 179.123 329.908 181.5 352.906 224.5C375.904 181.5 399.895 179.123 442.602 195.428L424.102 204.428C442.743 215.629 452.835 215.499 471.834 235.499C520.924 309.522 517.97 341.178 469.103 400.427L442.602 389.427C464.237 455.36 457.314 483.715 423.102 493.427C391.113 487.687 362.4 470.982 360.603 454.927C359.192 427.867 401.102 427.927 408.102 419.427C415.102 410.927 408.103 389.427 402.103 381.427L394.603 407.927C394.603 407.927 377.133 399.918 352.906 399.761C328.68 399.918 311.21 407.927 311.21 407.927L303.71 381.427C297.71 389.427 290.71 410.927 297.71 419.427C304.71 427.927 346.62 427.867 345.21 454.927ZM282.71 512.927L352.906 483.5L423.102 512.927C424.637 536.827 420.64 545.042 408.102 553.928L402.835 542.999C399.76 554.213 392.225 563.501 386.103 566.428L377.603 547.428C373.725 560.676 358.406 566 352.906 577.5C347.406 566 332.088 560.676 328.21 547.428L319.71 566.428C313.587 563.501 306.053 554.213 302.978 542.999L297.71 553.928C285.173 545.042 281.175 536.827 282.71 512.927ZM143.023 195.428C144.698 207.488 147.082 214.032 156.523 224.928C97.0423 201.926 161.046 87.4259 196.041 145.426C160.542 124.926 131.052 169.925 157.042 209.925L143.023 195.428ZM166.042 196.926L163.043 204.926C137.542 177.426 165.542 139.926 173.542 157.926L180.542 163.426C167.9 172.441 162.032 182.645 166.042 196.926ZM218.523 243.5L214.523 249.5C196.908 253.272 188.182 257.086 173.682 265.409C186.059 251.839 195.59 246.691 218.523 243.5ZM223.523 233C198.505 235.812 186.65 240.462 168.523 253C185.566 230.615 199.069 223.272 233.978 224.928L223.523 233ZM235.023 216C207.397 214.519 194.857 220.988 173.641 235.499C194.523 212.5 201.593 206.505 246.024 208.5L235.023 216ZM229.523 198C200.362 199.114 189.241 205.61 175.023 223.5C185.661 200.585 196.189 192.873 221.523 186.5C225.931 189.852 227.602 192.442 229.523 198ZM226.523 180C200.804 183.436 185.906 193.5 175.906 207C179.406 177.5 220.284 155.583 274.024 169C256.406 174 242.529 171.023 225.523 175L226.523 180ZM264.524 145.426C209.524 140.5 210.523 155 187.523 173C210.523 163.426 224.813 152.459 265.524 155L264.524 145.426ZM236.023 198H249.524C253.937 190.424 259.712 187.546 269.024 182L238.023 183L233.023 191.5C233.69 193.667 235.223 198 236.023 198ZM214.523 113C255.561 121.209 268.373 134.244 290.024 158.5C281.406 116 198.906 77 139.906 109.5L156.523 113C126.923 120.777 115.406 134 104 151C136.023 135 153.023 119 196.523 113L196.041 123C215.228 128.356 223.023 131.192 232.906 139.5L241.906 137.5C234.693 125.888 228.213 123.94 213.023 119L214.523 113ZM188.523 286.499L203.523 272.5C155.023 283.5 127.481 307.215 93.0234 339L78.0234 337.5C68.8452 348.137 55.1551 360.549 47.0234 373V401.5C56.6234 377.239 67.0676 362.598 78.0234 354.499C94.0234 368.5 120.554 310.881 188.523 286.499ZM157.023 319.5L192.523 303L194.023 295.5C174.745 299.032 156.423 306.795 115.523 350.5H105.023C104.357 356.167 101.523 369 101.523 369C101.523 369 107.19 371.5 108.523 371.5L111.023 358L123.023 360C122.69 357.5 123.023 352 123.023 352C123.023 352 146.023 335.833 157.023 329.5V319.5ZM73.0234 397.65C73.0234 401.792 69.6656 405.15 65.5234 405.15C61.3813 405.15 58.0234 401.792 58.0234 397.65C58.0234 393.508 61.3813 390.15 65.5234 390.15C67.2118 390.15 68.7699 390.708 70.0234 391.649L85.5234 375.5L108.523 383C142.523 352 151.499 339.99 192.523 326.5L180.023 344C180.023 344 166.903 344.682 112.523 393L96.0234 416.5L85.5234 441L56.0234 469L81.5234 416.5L96.0234 391.649L87.0234 387L73.0234 397.65ZM116.023 513.998C116.023 518.14 112.666 521.498 108.523 521.498C104.381 521.498 101.023 518.14 101.023 513.998C101.023 511.826 101.947 509.87 103.423 508.5L112.523 474L132.487 455.5L170.906 393L181.906 404L195.906 400.427L194.023 380.5L204.906 367.5L214.906 380.5L204.906 390.5V416.5L184.906 424.5L174.406 419.427L169.406 432V506.498L145.906 533.5V576.394C146.897 577.665 147.487 579.264 147.487 581C147.487 585.142 144.129 588.5 139.987 588.5C135.844 588.5 132.487 585.142 132.487 581C132.487 578.583 133.63 576.432 135.406 575.061V528.5L154.906 504V452L158.906 445.5V432L137.406 469L120.906 483.5L114.525 509.5C115.466 510.753 116.023 512.311 116.023 513.998ZM115.523 432L73.0234 470.498L93.0234 465.5L132.487 436.5L150.406 393L192.523 365L194.906 344L137.906 387L115.523 432ZM166.487 567.506C170.629 567.506 173.987 564.148 173.987 560.006C173.987 555.864 170.629 552.506 166.487 552.506C162.344 552.506 158.987 555.864 158.987 560.006C158.987 564.148 162.344 567.506 166.487 567.506ZM202.406 447C206.548 447 209.906 443.642 209.906 439.5C209.906 435.358 206.548 432 202.406 432C198.264 432 194.906 435.358 194.906 439.5C194.906 443.642 198.264 447 202.406 447ZM352.906 683C357.048 683 360.406 679.642 360.406 675.5C360.406 671.358 357.048 668 352.906 668C348.764 668 345.406 671.358 345.406 675.5C345.406 679.642 348.764 683 352.906 683ZM63.4866 313.5C63.4866 317.642 60.1288 321 55.9866 321C51.8445 321 48.4866 317.642 48.4866 313.5C48.4866 310.584 50.1513 308.056 52.5822 306.815L88.4062 265L134.789 260.89L145.406 250.89L156.523 260.89C156.523 260.89 150.959 267.095 144.906 271L95.9062 276.5L63.2696 311.702C63.4114 312.278 63.4866 312.88 63.4866 313.5ZM67.9062 219.926C72.0484 219.926 75.4062 216.568 75.4062 212.426C75.4062 208.283 72.0484 204.926 67.9062 204.926C63.7641 204.926 60.4062 208.283 60.4062 212.426C60.4062 216.568 63.7641 219.926 67.9062 219.926ZM201.523 455.5C201.523 455.5 196.491 452.538 191.023 450L185.523 458.75L180.023 467.5V528.5L169.406 546L178.406 552.506L192.141 528.5V476L201.523 455.5ZM203.906 609.5V619L184.906 603.5V560.006L209.406 527L202.406 521.498V478L218.906 461.5V428.5L227.906 413.5V463.5L210.406 480V512.927L222.906 524.5L211.973 541H234.906V474.5L243.834 483.427V544.5V583.927L263.406 603.5V632.5L285.906 655H299.906V669.5H280.406L248.406 637.5V606L234.906 592.5V552.506H204.348L195.406 566V601L203.906 609.5ZM282.71 628.5V574H277.406V541L282.71 550L283.406 563H292.906V619L319.71 639.5V646.5L336.906 663L331.906 670.5L317.906 662V676L326.906 685.429L331.906 679.5L337.406 688L328.906 697.5L307.406 675V646.5L282.71 628.5ZM219.473 578.999C223.615 578.999 226.973 575.641 226.973 571.499C226.973 567.357 223.615 563.999 219.473 563.999C215.33 563.999 211.973 567.357 211.973 571.499C211.973 575.641 215.33 578.999 219.473 578.999ZM267.406 520L258.406 506.498V585.5L268.906 596V628.5H274.906V588.5L267.406 581V520ZM337.906 581.5V655.5L329.406 647V573L337.906 581.5ZM311.406 571.428L302.978 563V617.072L323.406 632.5V618.5L311.406 609.5V571.428ZM322.906 577.781L316.906 572.71V605.5H322.906V577.781ZM99.4062 310.5L112.406 313.5L150.906 283.5L132.906 283L99.4062 310.5ZM88.2891 257.5L134.789 231.5L140.848 235.75L146.906 240L115.906 255L88.2891 257.5ZM76.9062 234.5L119.906 206.5L122.465 218.25L128.523 222.5L84.4062 247L46.9062 291L47.9062 271L76.9062 234.5ZM77.4062 199L64.4062 198C77.8929 179.924 91.8041 174.43 119.906 167L107.906 187.5C94.7616 192.179 89.0259 194.563 79.9062 203L77.4062 199ZM67.4062 232.5L79.9062 218.25L82.4062 210.154C93.0064 204.327 98.7124 200.768 109.406 194.5L118.906 201L70.9062 231.5L67.4062 232.5ZM249.906 101C276.339 119.124 288.137 129.952 298.906 151.5C300.406 137 299.178 126.543 263.906 96L260.906 99.5L246.406 91L237.906 99.5L246.406 103.5L249.906 101ZM236.023 80C256.906 81 277.906 92.5 308.406 127.5C302.406 98.5 272.907 74.1342 237.906 72.5V67L213.023 62.5L211.406 68C178.906 56.5 150.906 64.781 137.406 74.781C165.906 73.281 186.906 67 208.906 76.5L207.406 89L233.023 93.5L236.023 80ZM265.906 35.5C317.906 22.5 347.906 114 334.906 148C329.563 114.75 326.406 109.5 319.387 89.5L313.906 96C319.906 111.501 322.609 120 320.691 133C313.109 116 311.178 105.207 298.906 93.5L311.54 78C297.906 55 284.619 50.3963 265.906 35.5ZM333.906 24.25L327.406 19.5L326.406 60L338.906 78C343.58 102.497 345.521 108.361 348.406 112.5V78L333.406 56.25L333.906 24.25ZM562.789 195.428C561.114 207.488 558.73 214.032 549.289 224.928C608.77 201.926 544.766 87.4259 509.771 145.426C545.27 124.926 574.76 169.925 548.77 209.925L562.789 195.428ZM542.77 204.926L539.77 196.926C543.781 182.645 537.912 172.441 525.27 163.426L532.27 157.926C540.27 139.926 568.27 177.426 542.77 204.926ZM487.289 243.5L491.289 249.5C508.904 253.272 517.63 257.086 532.131 265.409C519.754 251.839 510.222 246.691 487.289 243.5ZM482.289 233C507.307 235.812 519.162 240.462 537.289 253C520.247 230.615 506.744 223.272 471.834 224.928L482.289 233ZM470.789 216C498.416 214.519 510.955 220.988 532.172 235.499C511.289 212.5 504.219 206.505 459.788 208.5L470.789 216ZM476.289 198C505.45 199.114 516.571 205.61 530.789 223.5C520.151 200.585 509.623 192.873 484.289 186.5C479.881 189.852 478.211 192.442 476.289 198ZM479.289 180C505.008 183.436 519.906 193.5 529.906 207C526.406 177.5 485.529 155.583 431.788 169C449.406 174 463.284 171.023 480.289 175L479.289 180ZM441.288 145.426C496.288 140.5 495.289 155 518.289 173C495.289 163.426 480.999 152.459 440.288 155L441.288 145.426ZM469.789 198H456.288C451.876 190.424 446.101 187.546 436.788 182L467.789 183L472.789 191.5C472.122 193.667 470.589 198 469.789 198ZM491.289 113C450.252 121.209 437.439 134.244 415.788 158.5C424.406 116 506.906 77 565.906 109.5L549.289 113C578.889 120.777 590.406 134 601.812 151C569.789 135 552.789 119 509.289 113L509.771 123C490.585 128.356 482.79 131.192 472.906 139.5L463.906 137.5C470.998 126.084 477.381 124.009 492.03 119.247L492.789 119L491.289 113ZM517.289 286.499L502.289 272.5C550.789 283.5 578.332 307.215 612.789 339L627.789 337.5C636.967 348.137 650.657 360.549 658.789 373V401.5C649.189 377.239 638.745 362.598 627.789 354.499C611.789 368.5 585.258 310.881 517.289 286.499ZM548.789 319.5L513.289 303L511.789 295.5C531.067 299.032 549.389 306.795 590.289 350.5H600.789C601.456 356.167 604.289 369 604.289 369C604.289 369 598.622 371.5 597.289 371.5L594.789 358L582.789 360C583.122 357.5 582.789 352 582.789 352C582.789 352 559.789 335.833 548.789 329.5V319.5ZM640.289 405.15C636.147 405.15 632.789 401.792 632.789 397.65L618.789 387L609.789 391.649L624.289 416.5L649.789 469L620.289 441L609.789 416.5L593.289 393C538.91 344.682 525.789 344 525.789 344L513.289 326.5C554.314 339.99 563.289 352 597.289 383L620.289 375.5L635.789 391.649C637.043 390.708 638.601 390.15 640.289 390.15C644.431 390.15 647.789 393.508 647.789 397.65C647.789 401.792 644.431 405.15 640.289 405.15ZM597.289 521.498C593.147 521.498 589.789 518.14 589.789 513.998C589.789 512.311 590.346 510.753 591.287 509.5L584.906 483.5L568.406 469L546.906 432V445.5L550.906 452V504L570.406 528.5V575.061C572.182 576.432 573.326 578.583 573.326 581C573.326 585.142 569.968 588.5 565.826 588.5C561.684 588.5 558.326 585.142 558.326 581C558.326 579.264 558.916 577.665 559.906 576.394V533.5L536.406 506.498V432L531.406 419.427L520.906 424.5L500.906 416.5V390.5L490.906 380.5L500.906 367.5L511.789 380.5L509.906 400.427L523.906 404L534.906 393L573.326 455.5L593.289 474L602.39 508.5C603.866 509.87 604.789 511.826 604.789 513.998C604.789 518.14 601.431 521.498 597.289 521.498ZM590.289 432L632.789 470.498L612.789 465.5L573.326 436.5L555.407 393L513.289 365L510.907 344L567.907 387L590.289 432ZM539.326 567.506C535.184 567.506 531.826 564.148 531.826 560.006C531.826 555.864 535.184 552.506 539.326 552.506C543.468 552.506 546.826 555.864 546.826 560.006C546.826 564.148 543.468 567.506 539.326 567.506ZM503.406 447C499.264 447 495.906 443.642 495.906 439.5C495.906 435.358 499.264 432 503.406 432C507.548 432 510.906 435.358 510.906 439.5C510.906 443.642 507.548 447 503.406 447ZM649.826 321C645.684 321 642.326 317.642 642.326 313.5C642.326 312.88 642.401 312.278 642.543 311.702L609.906 276.5L560.906 271C554.853 267.095 549.289 260.89 549.289 260.89L560.406 250.89L571.023 260.89L617.406 265L653.23 306.815C655.661 308.056 657.326 310.584 657.326 313.5C657.326 317.642 653.968 321 649.826 321ZM637.906 219.926C633.764 219.926 630.406 216.568 630.406 212.426C630.406 208.283 633.764 204.926 637.906 204.926C642.048 204.926 645.406 208.283 645.406 212.426C645.406 216.568 642.048 219.926 637.906 219.926ZM504.289 455.5C504.289 455.5 509.322 452.538 514.789 450L520.289 458.75L525.789 467.5V528.5L536.406 546L527.406 552.506L513.672 528.5V476L504.289 455.5ZM501.906 609.5V619L520.906 603.5V560.006L496.406 527L503.406 521.498V478L486.906 461.5V428.5L477.906 413.5V463.5L495.406 480V512.927L482.906 524.5L493.84 541H470.906V474.5L461.979 483.427V544.5V583.927L442.406 603.5V632.5L419.906 655H405.906V669.5H425.406L457.406 637.5V606L470.906 592.5V552.506H501.465L510.406 566V601L501.906 609.5ZM423.102 628.5V574H428.406V541L423.102 550L422.406 563H412.906V619L386.103 639.5V646.5L368.906 663L373.906 670.5L387.906 662V676L378.906 685.429L373.906 679.5L368.406 688L376.906 697.5L398.406 675V646.5L423.102 628.5ZM486.34 578.999C482.198 578.999 478.84 575.641 478.84 571.499C478.84 567.357 482.198 563.999 486.34 563.999C490.482 563.999 493.84 567.357 493.84 571.499C493.84 575.641 490.482 578.999 486.34 578.999ZM438.406 520L447.406 506.498V585.5L436.906 596V628.5H430.906V588.5L438.406 581V520ZM367.906 581.5V655.5L376.406 647V573L367.906 581.5ZM394.406 571.428L402.835 563V617.072L382.406 632.5V618.5L394.406 609.5V571.428ZM382.906 577.781L388.906 572.71V605.5H382.906V577.781ZM606.406 310.5L593.406 313.5L554.906 283.5L572.906 283L606.406 310.5ZM617.523 257.5L571.023 231.5L564.965 235.75L558.906 240L589.906 255L617.523 257.5ZM628.906 234.5L585.906 206.5L583.348 218.25L577.289 222.5L621.406 247L658.906 291L657.906 271L628.906 234.5ZM628.406 199L641.406 198C627.92 179.924 614.008 174.43 585.906 167L597.906 187.5C611.051 192.179 616.787 194.563 625.906 203L628.406 199ZM638.406 232.5L625.906 218.25L623.406 210.154C612.806 204.327 607.1 200.768 596.406 194.5L586.906 201L634.906 231.5L638.406 232.5ZM455.906 101C429.474 119.124 417.675 129.952 406.906 151.5C405.406 137 406.634 126.543 441.906 96L444.906 99.5L459.406 91L467.906 99.5L459.406 103.5L455.906 101ZM469.789 80C448.906 81 427.906 92.5 397.406 127.5C403.406 98.5 432.905 74.1342 467.906 72.5V67L492.789 62.5L494.406 68C526.906 56.5 554.906 64.781 568.406 74.781C539.906 73.281 518.906 67 496.906 76.5L498.406 89L472.789 93.5L469.789 80ZM439.906 35.5C387.906 22.5 357.906 114 370.906 148C376.25 114.75 379.406 109.5 386.426 89.5L391.906 96C385.906 111.501 383.203 120 385.122 133C392.703 116 394.635 105.207 406.906 93.5L394.272 78C407.906 55 421.194 50.3963 439.906 35.5ZM371.906 24.25L378.406 19.5L379.406 60L366.906 78C362.233 102.497 360.292 108.361 357.406 112.5V78L372.406 56.25L371.906 24.25Z" fill="url(#paint23_radial_1510_9432)"/>
</g>
<defs>
<filter id="filter0_d_1510_9432" x="215.508" y="277.499" width="92.7773" height="66.1291" filterUnits="userSpaceOnUse" color-interpolation-filters="sRGB">
<feFlood flood-opacity="0" result="BackgroundImageFix"/>
<feColorMatrix in="SourceAlpha" type="matrix" values="0 0 0 0 0 0 0 0 0 0 0 0 0 0 0 0 0 0 127 0" result="hardAlpha"/>
<feOffset dy="5"/>
<feGaussianBlur stdDeviation="2"/>
<feComposite in2="hardAlpha" operator="out"/>
<feColorMatrix type="matrix" values="0 0 0 0 0 0 0 0 0 0 0 0 0 0 0 0 0 0 0.3 0"/>
<feBlend mode="normal" in2="BackgroundImageFix" result="effect1_dropShadow_1510_9432"/>
<feBlend mode="normal" in="SourceGraphic" in2="effect1_dropShadow_1510_9432" result="shape"/>
</filter>
<filter id="filter1_d_1510_9432" x="235.477" y="287.019" width="52.5469" height="30.5128" filterUnits="userSpaceOnUse" color-interpolation-filters="sRGB">
<feFlood flood-opacity="0" result="BackgroundImageFix"/>
<feColorMatrix in="SourceAlpha" type="matrix" values="0 0 0 0 0 0 0 0 0 0 0 0 0 0 0 0 0 0 127 0" result="hardAlpha"/>
<feOffset dy="5"/>
<feGaussianBlur stdDeviation="2"/>
<feComposite in2="hardAlpha" operator="out"/>
<feColorMatrix type="matrix" values="0 0 0 0 0 0 0 0 0 0 0 0 0 0 0 0 0 0 0.3 0"/>
<feBlend mode="normal" in2="BackgroundImageFix" result="effect1_dropShadow_1510_9432"/>
<feBlend mode="normal" in="SourceGraphic" in2="effect1_dropShadow_1510_9432" result="shape"/>
</filter>
<filter id="filter2_d_1510_9432" x="397.527" y="277.499" width="92.7773" height="66.1291" filterUnits="userSpaceOnUse" color-interpolation-filters="sRGB">
<feFlood flood-opacity="0" result="BackgroundImageFix"/>
<feColorMatrix in="SourceAlpha" type="matrix" values="0 0 0 0 0 0 0 0 0 0 0 0 0 0 0 0 0 0 127 0" result="hardAlpha"/>
<feOffset dy="5"/>
<feGaussianBlur stdDeviation="2"/>
<feComposite in2="hardAlpha" operator="out"/>
<feColorMatrix type="matrix" values="0 0 0 0 0 0 0 0 0 0 0 0 0 0 0 0 0 0 0.3 0"/>
<feBlend mode="normal" in2="BackgroundImageFix" result="effect1_dropShadow_1510_9432"/>
<feBlend mode="normal" in="SourceGraphic" in2="effect1_dropShadow_1510_9432" result="shape"/>
</filter>
<filter id="filter3_d_1510_9432" x="417.789" y="287.02" width="52.5469" height="30.5128" filterUnits="userSpaceOnUse" color-interpolation-filters="sRGB">
<feFlood flood-opacity="0" result="BackgroundImageFix"/>
<feColorMatrix in="SourceAlpha" type="matrix" values="0 0 0 0 0 0 0 0 0 0 0 0 0 0 0 0 0 0 127 0" result="hardAlpha"/>
<feOffset dy="5"/>
<feGaussianBlur stdDeviation="2"/>
<feComposite in2="hardAlpha" operator="out"/>
<feColorMatrix type="matrix" values="0 0 0 0 0 0 0 0 0 0 0 0 0 0 0 0 0 0 0.3 0"/>
<feBlend mode="normal" in2="BackgroundImageFix" result="effect1_dropShadow_1510_9432"/>
<feBlend mode="normal" in="SourceGraphic" in2="effect1_dropShadow_1510_9432" result="shape"/>
</filter>
<filter id="filter4_d_1510_9432" x="0" y="0" width="705.812" height="747" filterUnits="userSpaceOnUse" color-interpolation-filters="sRGB">
<feFlood flood-opacity="0" result="BackgroundImageFix"/>
<feColorMatrix in="SourceAlpha" type="matrix" values="0 0 0 0 0 0 0 0 0 0 0 0 0 0 0 0 0 0 127 0" result="hardAlpha"/>
<feOffset dy="5"/>
<feGaussianBlur stdDeviation="2"/>
<feComposite in2="hardAlpha" operator="out"/>
<feColorMatrix type="matrix" values="0 0 0 0 0 0 0 0 0 0 0 0 0 0 0 0 0 0 0.3 0"/>
<feBlend mode="normal" in2="BackgroundImageFix" result="effect1_dropShadow_1510_9432"/>
<feBlend mode="normal" in="SourceGraphic" in2="effect1_dropShadow_1510_9432" result="shape"/>
</filter>
<linearGradient id="paint0_linear_1510_9432" x1="220.906" y1="284" x2="302.906" y2="334" gradientUnits="userSpaceOnUse">
<stop stop-color="#F7F7F7"/>
<stop offset="1" stop-color="#373838"/>
</linearGradient>
<linearGradient id="paint1_linear_1510_9432" x1="239.906" y1="287.5" x2="283.906" y2="308.5" gradientUnits="userSpaceOnUse">
<stop stop-color="#F7F7F7"/>
<stop offset="1" stop-color="#373838" stop-opacity="0.59"/>
</linearGradient>
<linearGradient id="paint2_linear_1510_9432" x1="485.906" y1="283.5" x2="402.906" y2="333.5" gradientUnits="userSpaceOnUse">
<stop stop-color="#F7F7F7"/>
<stop offset="1" stop-color="#373838"/>
</linearGradient>
<linearGradient id="paint3_linear_1510_9432" x1="466.906" y1="287.5" x2="421.906" y2="308.5" gradientUnits="userSpaceOnUse">
<stop stop-color="#F7F7F7"/>
<stop offset="1" stop-color="#373838"/>
</linearGradient>
<radialGradient id="paint4_radial_1510_9432" cx="0" cy="0" r="1" gradientUnits="userSpaceOnUse" gradientTransform="translate(352.906 369) rotate(90) scale(369 348.906)">
<stop stop-color="#F7F7F7"/>
<stop offset="0.764729" stop-color="#373838"/>
</radialGradient>
<radialGradient id="paint5_radial_1510_9432" cx="0" cy="0" r="1" gradientUnits="userSpaceOnUse" gradientTransform="translate(352.906 369) rotate(90) scale(369 348.906)">
<stop stop-color="#F7F7F7"/>
<stop offset="0.764729" stop-color="#373838"/>
</radialGradient>
<radialGradient id="paint6_radial_1510_9432" cx="0" cy="0" r="1" gradientUnits="userSpaceOnUse" gradientTransform="translate(352.906 369) rotate(90) scale(369 348.906)">
<stop stop-color="#F7F7F7"/>
<stop offset="0.764729" stop-color="#373838"/>
</radialGradient>
<radialGradient id="paint7_radial_1510_9432" cx="0" cy="0" r="1" gradientUnits="userSpaceOnUse" gradientTransform="translate(352.906 369) rotate(90) scale(369 348.906)">
<stop stop-color="#F7F7F7"/>
<stop offset="0.764729" stop-color="#373838"/>
</radialGradient>
<radialGradient id="paint8_radial_1510_9432" cx="0" cy="0" r="1" gradientUnits="userSpaceOnUse" gradientTransform="translate(352.906 369) rotate(90) scale(369 348.906)">
<stop stop-color="#F7F7F7"/>
<stop offset="0.764729" stop-color="#373838"/>
</radialGradient>
<radialGradient id="paint9_radial_1510_9432" cx="0" cy="0" r="1" gradientUnits="userSpaceOnUse" gradientTransform="translate(352.906 369) rotate(90) scale(369 348.906)">
<stop stop-color="#F7F7F7"/>
<stop offset="0.764729" stop-color="#373838"/>
</radialGradient>
<radialGradient id="paint10_radial_1510_9432" cx="0" cy="0" r="1" gradientUnits="userSpaceOnUse" gradientTransform="translate(352.906 369) rotate(90) scale(369 348.906)">
<stop stop-color="#F7F7F7"/>
<stop offset="0.764729" stop-color="#373838"/>
</radialGradient>
<radialGradient id="paint11_radial_1510_9432" cx="0" cy="0" r="1" gradientUnits="userSpaceOnUse" gradientTransform="translate(352.906 369) rotate(90) scale(369 348.906)">
<stop stop-color="#F7F7F7"/>
<stop offset="0.764729" stop-color="#373838"/>
</radialGradient>
<radialGradient id="paint12_radial_1510_9432" cx="0" cy="0" r="1" gradientUnits="userSpaceOnUse" gradientTransform="translate(352.906 369) rotate(90) scale(369 348.906)">
<stop stop-color="#F7F7F7"/>
<stop offset="0.764729" stop-color="#373838"/>
</radialGradient>
<radialGradient id="paint13_radial_1510_9432" cx="0" cy="0" r="1" gradientUnits="userSpaceOnUse" gradientTransform="translate(352.906 369) rotate(90) scale(369 348.906)">
<stop stop-color="#F7F7F7"/>
<stop offset="0.764729" stop-color="#373838"/>
</radialGradient>
<radialGradient id="paint14_radial_1510_9432" cx="0" cy="0" r="1" gradientUnits="userSpaceOnUse" gradientTransform="translate(352.906 369) rotate(90) scale(369 348.906)">
<stop stop-color="#F7F7F7"/>
<stop offset="0.764729" stop-color="#373838"/>
</radialGradient>
<radialGradient id="paint15_radial_1510_9432" cx="0" cy="0" r="1" gradientUnits="userSpaceOnUse" gradientTransform="translate(352.906 369) rotate(90) scale(369 348.906)">
<stop stop-color="#F7F7F7"/>
<stop offset="0.764729" stop-color="#373838"/>
</radialGradient>
<radialGradient id="paint16_radial_1510_9432" cx="0" cy="0" r="1" gradientUnits="userSpaceOnUse" gradientTransform="translate(352.906 369) rotate(90) scale(369 348.906)">
<stop stop-color="#F7F7F7"/>
<stop offset="0.764729" stop-color="#373838"/>
</radialGradient>
<radialGradient id="paint17_radial_1510_9432" cx="0" cy="0" r="1" gradientUnits="userSpaceOnUse" gradientTransform="translate(352.906 369) rotate(90) scale(369 348.906)">
<stop stop-color="#F7F7F7"/>
<stop offset="0.764729" stop-color="#373838"/>
</radialGradient>
<radialGradient id="paint18_radial_1510_9432" cx="0" cy="0" r="1" gradientUnits="userSpaceOnUse" gradientTransform="translate(352.906 369) rotate(90) scale(369 348.906)">
<stop stop-color="#F7F7F7"/>
<stop offset="0.764729" stop-color="#373838"/>
</radialGradient>
<radialGradient id="paint19_radial_1510_9432" cx="0" cy="0" r="1" gradientUnits="userSpaceOnUse" gradientTransform="translate(352.906 369) rotate(90) scale(369 348.906)">
<stop stop-color="#F7F7F7"/>
<stop offset="0.764729" stop-color="#373838"/>
</radialGradient>
<radialGradient id="paint20_radial_1510_9432" cx="0" cy="0" r="1" gradientUnits="userSpaceOnUse" gradientTransform="translate(352.906 369) rotate(90) scale(369 348.906)">
<stop stop-color="#F7F7F7"/>
<stop offset="0.764729" stop-color="#373838"/>
</radialGradient>
<radialGradient id="paint21_radial_1510_9432" cx="0" cy="0" r="1" gradientUnits="userSpaceOnUse" gradientTransform="translate(352.906 369) rotate(90) scale(369 348.906)">
<stop stop-color="#F7F7F7"/>
<stop offset="0.764729" stop-color="#373838"/>
</radialGradient>
<radialGradient id="paint22_radial_1510_9432" cx="0" cy="0" r="1" gradientUnits="userSpaceOnUse" gradientTransform="translate(352.906 369) rotate(90) scale(369 348.906)">
<stop stop-color="#F7F7F7"/>
<stop offset="0.764729" stop-color="#373838"/>
</radialGradient>
<radialGradient id="paint23_radial_1510_9432" cx="0" cy="0" r="1" gradientUnits="userSpaceOnUse" gradientTransform="translate(352.906 369) rotate(90) scale(369 348.906)">
<stop stop-color="#F7F7F7"/>
<stop offset="0.764729" stop-color="#373838"/>
</radialGradient>
</defs>
</svg>
