<svg width="170" height="71" viewBox="0 0 170 71" fill="none" xmlns="http://www.w3.org/2000/svg">
<g filter="url(#filter0_d_1778_17289)">
<path d="M70.1897 32L73.8617 16.16H80.1257C81.7257 16.16 83.0537 16.432 84.1097 16.976C85.1657 17.504 85.9577 18.256 86.4857 19.232C87.0137 20.192 87.2777 21.328 87.2777 22.64C87.2777 24.064 87.0857 25.352 86.7017 26.504C86.3177 27.656 85.7417 28.64 84.9737 29.456C84.2217 30.272 83.3017 30.904 82.2137 31.352C81.1257 31.784 79.8697 32 78.4457 32H70.1897ZM76.7177 28.016H78.0377C78.6937 28.016 79.2537 27.848 79.7177 27.512C80.1977 27.176 80.5817 26.736 80.8697 26.192C81.1577 25.648 81.3657 25.056 81.4937 24.416C81.6377 23.76 81.7097 23.12 81.7097 22.496C81.7097 21.984 81.6297 21.552 81.4697 21.2C81.3097 20.848 81.0697 20.584 80.7497 20.408C80.4297 20.232 80.0217 20.144 79.5257 20.144H78.5177L76.7177 28.016ZM92.5333 32.24C91.8293 32.24 91.1813 32.08 90.5893 31.76C90.0133 31.424 89.5573 30.928 89.2213 30.272C88.8853 29.6 88.7173 28.752 88.7173 27.728C88.7173 26.784 88.8453 25.84 89.1013 24.896C89.3573 23.952 89.7333 23.096 90.2293 22.328C90.7253 21.544 91.3333 20.92 92.0533 20.456C92.7733 19.992 93.5973 19.76 94.5253 19.76C94.9413 19.76 95.3653 19.84 95.7973 20C96.2293 20.16 96.6133 20.432 96.9493 20.816C97.2853 21.184 97.5093 21.712 97.6213 22.4L98.1733 20H103.693L100.909 32H95.8693L96.2773 29.72C95.8773 30.504 95.3493 31.12 94.6933 31.568C94.0533 32.016 93.3333 32.24 92.5333 32.24ZM95.1733 28.352C95.4613 28.352 95.7173 28.24 95.9413 28.016C96.1653 27.776 96.3493 27.472 96.4933 27.104C96.6533 26.736 96.7653 26.36 96.8293 25.976C96.9093 25.576 96.9493 25.224 96.9493 24.92C96.9493 24.648 96.9093 24.424 96.8293 24.248C96.7653 24.056 96.6613 23.912 96.5173 23.816C96.3893 23.72 96.2213 23.672 96.0133 23.672C95.6773 23.672 95.3893 23.8 95.1493 24.056C94.9253 24.296 94.7413 24.6 94.5973 24.968C94.4533 25.32 94.3413 25.688 94.2613 26.072C94.1973 26.44 94.1653 26.744 94.1653 26.984C94.1653 27.256 94.1973 27.496 94.2613 27.704C94.3413 27.912 94.4533 28.072 94.5973 28.184C94.7413 28.296 94.9333 28.352 95.1733 28.352ZM103.697 32L106.481 20H111.401L110.681 24.584L110.489 24.104C110.825 22.728 111.417 21.664 112.265 20.912C113.113 20.144 114.153 19.76 115.385 19.76C116.201 19.76 116.881 19.944 117.425 20.312C117.969 20.664 118.345 21.168 118.553 21.824C118.761 22.48 118.761 23.264 118.553 24.176L116.729 32H111.209L112.841 25.04C112.921 24.672 112.889 24.384 112.745 24.176C112.617 23.952 112.393 23.84 112.073 23.84C111.849 23.84 111.649 23.904 111.473 24.032C111.297 24.144 111.145 24.32 111.017 24.56C110.905 24.784 110.809 25.072 110.729 25.424L109.217 32H103.697ZM125.469 19.232C124.557 19.232 123.853 19.064 123.357 18.728C122.877 18.392 122.701 17.816 122.829 17C122.957 16.104 123.269 15.488 123.765 15.152C124.277 14.8 125.021 14.624 125.997 14.624C126.941 14.624 127.653 14.8 128.133 15.152C128.629 15.488 128.813 16.032 128.685 16.784C128.557 17.76 128.229 18.416 127.701 18.752C127.189 19.072 126.445 19.232 125.469 19.232ZM127.821 20L125.037 32H119.517L122.301 20H127.821ZM135.179 32.216C133.947 32.216 132.843 32 131.867 31.568C130.907 31.136 130.155 30.512 129.611 29.696C129.067 28.864 128.795 27.88 128.795 26.744C128.795 25.336 129.083 24.112 129.659 23.072C130.251 22.016 131.075 21.2 132.131 20.624C133.203 20.048 134.451 19.76 135.875 19.76C137.171 19.76 138.275 19.992 139.187 20.456C140.099 20.904 140.787 21.528 141.251 22.328C141.731 23.128 141.971 24.056 141.971 25.112C141.971 25.416 141.955 25.736 141.923 26.072C141.891 26.408 141.827 26.736 141.731 27.056H132.563L132.539 25.016H137.915L136.595 25.52C136.675 25.296 136.715 25.112 136.715 24.968C136.731 24.824 136.739 24.688 136.739 24.56C136.739 24.256 136.691 24.024 136.595 23.864C136.515 23.688 136.403 23.568 136.259 23.504C136.115 23.424 135.955 23.384 135.779 23.384C135.363 23.384 135.019 23.504 134.747 23.744C134.491 23.984 134.291 24.296 134.147 24.68C134.019 25.064 133.931 25.472 133.883 25.904C133.835 26.336 133.811 26.736 133.811 27.104C133.811 27.472 133.875 27.768 134.003 27.992C134.131 28.216 134.307 28.376 134.531 28.472C134.771 28.568 135.035 28.616 135.323 28.616C135.739 28.616 136.059 28.512 136.283 28.304C136.523 28.08 136.691 27.824 136.787 27.536L141.395 29.024C141.155 29.696 140.731 30.272 140.123 30.752C139.515 31.232 138.787 31.6 137.939 31.856C137.091 32.096 136.171 32.216 135.179 32.216ZM147.969 32.24C146.321 32.24 145.153 31.808 144.465 30.944C143.777 30.064 143.609 28.872 143.961 27.368L146.793 15.2H152.313L149.529 27.224C149.417 27.688 149.433 28.04 149.577 28.28C149.721 28.52 150.009 28.64 150.441 28.64C150.601 28.64 150.737 28.632 150.849 28.616C150.977 28.6 151.073 28.584 151.137 28.568L150.249 31.928C149.993 32.04 149.681 32.12 149.313 32.168C148.945 32.216 148.497 32.24 147.969 32.24ZM83.7955 50.896H91.2115L90.2515 55H77.2435L80.9155 39.16H86.5075L83.7955 50.896ZM100.025 55.216C98.7931 55.216 97.6891 55 96.7131 54.568C95.7531 54.136 95.0011 53.512 94.4571 52.696C93.9131 51.864 93.6411 50.88 93.6411 49.744C93.6411 48.336 93.9291 47.112 94.5051 46.072C95.0971 45.016 95.9211 44.2 96.9771 43.624C98.0491 43.048 99.2971 42.76 100.721 42.76C102.017 42.76 103.121 42.992 104.033 43.456C104.945 43.904 105.633 44.528 106.097 45.328C106.577 46.128 106.817 47.056 106.817 48.112C106.817 48.416 106.801 48.736 106.769 49.072C106.737 49.408 106.673 49.736 106.577 50.056H97.4091L97.3851 48.016H102.761L101.441 48.52C101.521 48.296 101.561 48.112 101.561 47.968C101.577 47.824 101.585 47.688 101.585 47.56C101.585 47.256 101.537 47.024 101.441 46.864C101.361 46.688 101.249 46.568 101.105 46.504C100.961 46.424 100.801 46.384 100.625 46.384C100.209 46.384 99.8651 46.504 99.5931 46.744C99.3371 46.984 99.1371 47.296 98.9931 47.68C98.8651 48.064 98.7771 48.472 98.7291 48.904C98.6811 49.336 98.6571 49.736 98.6571 50.104C98.6571 50.472 98.7211 50.768 98.8491 50.992C98.9771 51.216 99.1531 51.376 99.3771 51.472C99.6171 51.568 99.8811 51.616 100.169 51.616C100.585 51.616 100.905 51.512 101.129 51.304C101.369 51.08 101.537 50.824 101.633 50.536L106.241 52.024C106.001 52.696 105.577 53.272 104.969 53.752C104.361 54.232 103.633 54.6 102.785 54.856C101.937 55.096 101.017 55.216 100.025 55.216ZM107.75 55L110.534 43H115.454L114.734 47.584L114.542 47.104C114.878 45.728 115.47 44.664 116.318 43.912C117.166 43.144 118.206 42.76 119.438 42.76C120.254 42.76 120.934 42.944 121.478 43.312C122.022 43.664 122.398 44.168 122.606 44.824C122.814 45.48 122.814 46.264 122.606 47.176L120.782 55H115.262L116.894 48.04C116.974 47.672 116.942 47.384 116.798 47.176C116.67 46.952 116.446 46.84 116.126 46.84C115.902 46.84 115.702 46.904 115.526 47.032C115.35 47.144 115.198 47.32 115.07 47.56C114.958 47.784 114.862 48.072 114.782 48.424L113.27 55H107.75ZM130.746 55.24C129.482 55.24 128.378 55.008 127.434 54.544C126.506 54.08 125.778 53.44 125.25 52.624C124.738 51.792 124.482 50.84 124.482 49.768C124.482 48.52 124.754 47.368 125.298 46.312C125.842 45.24 126.65 44.384 127.722 43.744C128.81 43.088 130.162 42.76 131.778 42.76C133.042 42.76 134.138 42.992 135.066 43.456C136.01 43.92 136.738 44.568 137.25 45.4C137.778 46.216 138.042 47.16 138.042 48.232C138.042 49.464 137.77 50.616 137.226 51.688C136.682 52.76 135.866 53.624 134.778 54.28C133.706 54.92 132.362 55.24 130.746 55.24ZM130.794 51.544C131.098 51.544 131.362 51.408 131.586 51.136C131.826 50.864 132.026 50.52 132.186 50.104C132.346 49.672 132.466 49.24 132.546 48.808C132.626 48.36 132.666 47.968 132.666 47.632C132.666 47.328 132.618 47.096 132.522 46.936C132.442 46.76 132.33 46.64 132.186 46.576C132.042 46.496 131.882 46.456 131.706 46.456C131.402 46.456 131.13 46.592 130.89 46.864C130.666 47.136 130.474 47.488 130.314 47.92C130.154 48.336 130.034 48.768 129.954 49.216C129.874 49.648 129.834 50.032 129.834 50.368C129.834 50.656 129.874 50.888 129.954 51.064C130.05 51.24 130.17 51.368 130.314 51.448C130.458 51.512 130.618 51.544 130.794 51.544ZM138.587 55L139.331 51.832L143.723 47.704L145.115 46.552L143.363 46.648H140.435L141.275 43H152.243L151.499 46.168L147.179 50.248L145.739 51.448L147.707 51.352H150.635L149.795 55H138.587Z" fill="#F5F5F5"/>
</g>
<g clip-path="url(#clip0_1778_17289)">
<g clip-path="url(#clip1_1778_17289)">
<path d="M28.2419 31.8851C24.8989 27.963 26.0289 31.7895 20.8496 27.2455C27.3002 26.0498 25.8406 26.7194 28.2419 31.8851Z" stroke="white" stroke-width="0.5"/>
<path d="M26.453 29.5109C24.5312 29.2197 23.618 28.7912 22.3096 27.5021C22.3096 27.5021 23.3549 27.3988 24.0988 27.5021C24.8425 27.6054 24.0988 28.4108 26.0992 28.7708C26.4347 29.0498 26.5943 29.5587 26.453 29.5109Z" fill="white"/>
<path d="M37.7402 31.8852C41.0832 27.963 39.9532 31.7895 45.1325 27.2456C38.6819 26.0498 40.1415 26.7194 37.7402 31.8852Z" stroke="white" stroke-width="0.5"/>
<path d="M39.53 29.5109C41.4518 29.2197 42.3649 28.7912 43.6734 27.5021C43.6734 27.5021 42.628 27.3988 41.8842 27.5021C41.1405 27.6054 41.8842 28.4109 39.8837 28.7709C39.5483 29.0499 39.3888 29.5588 39.53 29.5109Z" fill="white"/>
<g filter="url(#filter1_d_1778_17289)">
<path d="M28.2419 31.8851C24.8989 27.963 26.0289 31.7895 20.8496 27.2455C27.3002 26.0498 25.8406 26.7194 28.2419 31.8851Z" stroke="url(#paint0_linear_1778_17289)" stroke-width="0.5"/>
</g>
<g filter="url(#filter2_d_1778_17289)">
<path d="M26.453 29.5109C24.5312 29.2197 23.618 28.7912 22.3096 27.5021C22.3096 27.5021 23.3549 27.3988 24.0988 27.5021C24.8425 27.6054 24.0988 28.4108 26.0992 28.7708C26.4347 29.0498 26.5943 29.5587 26.453 29.5109Z" fill="url(#paint1_linear_1778_17289)"/>
</g>
<g filter="url(#filter3_d_1778_17289)">
<path d="M37.7402 31.8852C41.0832 27.963 39.9532 31.7895 45.1325 27.2456C38.6819 26.0498 40.1415 26.7194 37.7402 31.8852Z" stroke="url(#paint2_linear_1778_17289)" stroke-width="0.5"/>
</g>
<g filter="url(#filter4_d_1778_17289)">
<path d="M39.53 29.5109C41.4518 29.2197 42.3649 28.7912 43.6734 27.5021C43.6734 27.5021 42.628 27.3988 41.8842 27.5021C41.1405 27.6054 41.8842 28.4109 39.8837 28.7709C39.5483 29.0499 39.3888 29.5588 39.53 29.5109Z" fill="url(#paint3_linear_1778_17289)"/>
</g>
<g filter="url(#filter5_d_1778_17289)">
<path fill-rule="evenodd" clip-rule="evenodd" d="M20.087 61.9395C20.4631 59.7393 19.1453 57.7783 19.0041 55.339C19.6618 56.6076 20.2691 57.7117 20.8328 58.6745C21.0594 59.0615 21.2789 59.4257 21.4919 59.7687C27.1216 68.8333 28.1445 63.0333 32.8864 70.5968C37.6284 63.0333 38.6512 68.8333 44.2808 59.7687C44.4938 59.4257 44.7134 59.0615 44.94 58.6745C45.5038 57.7117 46.111 56.6076 46.7688 55.339C46.6275 57.7783 45.3098 59.7393 45.6858 61.9395C46.5772 60.9572 47.4735 60.364 48.2284 59.8707L48.2727 59.8418C48.4236 59.7432 48.5687 59.6483 48.7068 59.555C48.8763 59.4403 49.0352 59.3279 49.1813 59.2133C49.5642 58.9128 49.8588 58.5973 50.0251 58.1877C50.2813 57.5572 50.2332 56.7037 49.7351 55.339C50.5476 55.8342 51.2282 57.4033 52.0225 58.6393C52.6091 59.5519 53.2576 60.2828 54.0669 60.2655C53.8314 56.3434 56.5153 55.3389 53.6431 49.5515C55.1969 51.9908 56.7507 51.7039 57.3157 54.6694C59.9053 52.0866 59.2462 48.6906 56.3269 45.0077C58.9166 47.4948 59.8563 46.0852 61.93 49.8863C63.3896 43.6206 60.4704 43.5249 59.0578 38.8854C61.3179 41.5161 62.9167 40.4162 64.4705 42.7599C62.8202 32.3331 60.892 32.8591 58.022 30.3239C60.4212 30.3239 61.9757 33.6721 65.7425 33.9112C59.6214 24.5366 64.1418 16.9795 56.3256 15.4011C59.2427 15.6403 57.9756 14.9063 61.5983 16.4056C58.2665 11.5362 53.841 7.59847 48.0005 8.51371C49.2234 7.00329 53.4527 8.22673 56.1365 8.22673C51.8989 3.82639 43.4482 4.65829 38.2935 7.89179C38.9977 3.87407 46.2958 4.16117 49.5932 4.16117C43.8816 0.972399 39.1784 1.35003 35.994 4.27546V3.39592C36.9169 2.25647 37.5753 1.84872 38.819 1.24358C37.7653 1.08744 37.0499 1.09377 35.994 1.62621L37.5007 0.669617C36.433 0.0995597 35.5913 0.02754 34.1106 0V5.11779L33.4043 6.17005V0H32.8864H32.3685V6.17005L31.6622 5.11779V0C30.1816 0.02754 29.3398 0.0995597 28.2721 0.669617L29.7788 1.62621C28.7229 1.09377 28.0075 1.08744 26.9537 1.24358C28.1975 1.84872 28.856 2.25647 29.7788 3.39592V4.27546C26.5945 1.35003 21.8911 0.972399 16.1796 4.16117C19.4771 4.16117 26.7752 3.87407 27.4794 7.89179C22.3247 4.65829 13.874 3.82639 9.63635 8.22673C12.3202 8.22673 16.5495 7.00329 17.7723 8.51371C11.9319 7.59847 7.50626 11.5362 4.17455 16.4056C7.79715 14.9063 6.53013 15.6403 9.44717 15.4011C1.63104 16.9795 6.15136 24.5366 0.0302734 33.9112C3.79703 33.6721 5.35167 30.3239 7.75087 30.3239C4.88082 32.8591 2.95256 32.3331 1.3024 42.7599C2.85613 40.4162 4.45491 41.5161 6.71501 38.8854C5.30247 43.5249 2.38324 43.6206 3.84286 49.8863C5.9165 46.0852 6.85626 47.4948 9.44594 45.0077C6.52667 48.6906 5.86749 52.0866 8.45713 54.6694C9.02215 51.7039 10.576 51.9908 12.1298 49.5515C9.25761 55.3389 11.9414 56.3434 11.706 60.2655C12.5153 60.2828 13.1637 59.5519 13.7502 58.6393C14.5445 57.4033 15.2252 55.8342 16.0378 55.339C15.5396 56.7037 15.4915 57.5572 15.7476 58.1877C15.914 58.5973 16.2086 58.9128 16.5916 59.2133C16.7376 59.3279 16.8965 59.4403 17.066 59.555C17.2041 59.6483 17.3492 59.7431 17.5001 59.8417L17.5445 59.8707C18.2993 60.364 19.1955 60.9572 20.087 61.9395ZM32.1617 43.5182C31.9923 45.054 29.2886 46.652 26.2761 47.201C25.3909 46.9458 24.6997 46.5558 24.2049 45.9937C23.9013 45.6486 23.6717 45.2386 23.5166 44.755C23.433 44.4945 23.3712 44.2124 23.3311 43.9078C23.2902 43.5971 23.2719 43.2627 23.2763 42.9033C23.2794 42.6599 23.2927 42.405 23.3167 42.1381C23.3425 41.8494 23.3806 41.5466 23.4309 41.2293C23.6106 40.0975 23.9463 38.7805 24.4398 37.2524L21.9443 38.3047C17.3426 32.637 17.0643 29.6088 21.6871 22.5277C23.4762 20.6146 24.4265 20.627 26.1819 19.5555L24.4398 18.6946C28.4615 17.1348 30.7207 17.3622 32.8864 21.4756C35.0521 17.3622 37.3113 17.1348 41.333 18.6946L39.5908 19.5555C41.3462 20.627 42.2966 20.6146 44.0857 22.5277C48.7085 29.6088 48.4303 32.637 43.8285 38.3047L41.333 37.2524C43.3703 43.5596 42.7184 46.272 39.4967 47.201C36.4843 46.652 33.7804 45.054 33.6112 43.5182C33.4783 40.9296 37.4249 40.9353 38.0841 40.1222C38.7433 39.3091 38.0842 37.2524 37.5192 36.4872L36.8129 39.0221C36.8129 39.0221 35.1678 38.256 32.8864 38.241C30.605 38.256 28.9599 39.0221 28.9599 39.0221L28.2536 36.4872C27.6886 37.2524 27.0295 39.3091 27.6886 40.1222C28.3478 40.9353 32.2944 40.9296 32.1617 43.5182ZM26.2761 49.0664L32.8864 46.2514L39.4967 49.0664C39.6412 51.3527 39.2648 52.1385 38.0841 52.9885L37.5881 51.9431C37.2986 53.0158 36.589 53.9043 36.0125 54.1843L35.2121 52.3668C34.8469 53.6341 33.4043 54.1434 32.8864 55.2434C32.3685 54.1434 30.926 53.6341 30.5608 52.3668L29.7604 54.1843C29.1838 53.9043 28.4743 53.0158 28.1847 51.9431L27.6886 52.9885C26.508 52.1385 26.1315 51.3527 26.2761 49.0664ZM13.1219 18.6946C13.2797 19.8482 13.5042 20.4742 14.3932 21.5165C8.79197 19.3162 14.8191 8.36313 18.1146 13.9114C14.7717 11.9504 11.9946 16.255 14.4421 20.0813L13.1219 18.6946ZM15.2896 18.8379L15.0072 19.6031C12.6058 16.9725 15.2425 13.3853 15.9959 15.1071L16.655 15.6333C15.4646 16.4956 14.912 17.4718 15.2896 18.8379ZM20.2317 23.2931L19.855 23.8671C18.1962 24.2279 17.3745 24.5928 16.009 25.3889C17.1746 24.0908 18.0721 23.5984 20.2317 23.2931ZM20.7025 22.2887C18.3466 22.5577 17.2302 23.0025 15.5232 24.2019C17.1282 22.0605 18.3997 21.3581 21.6871 21.5165L20.7025 22.2887ZM21.7855 20.6625C19.184 20.5208 18.0031 21.1396 16.0052 22.5277C17.9716 20.3277 18.6374 19.7542 22.8214 19.945L21.7855 20.6625ZM21.2675 18.9406C18.5215 19.0472 17.4742 19.6686 16.1353 21.3799C17.1371 19.1879 18.1285 18.4502 20.5142 17.8405C20.9293 18.1612 21.0866 18.4089 21.2675 18.9406ZM20.985 17.2187C18.5631 17.5474 17.1602 18.5101 16.2185 19.8015C16.5481 16.9796 20.3975 14.883 25.4581 16.1665C23.7991 16.6448 22.4923 16.36 20.8909 16.7404L20.985 17.2187ZM24.5635 13.9114C19.3843 13.4402 19.4783 14.8272 17.3124 16.5491C19.4783 15.6333 20.824 14.5842 24.6577 14.8272L24.5635 13.9114ZM21.8796 18.9406H23.151C23.5666 18.2159 24.1104 17.9406 24.9873 17.4101L22.068 17.5057L21.5971 18.3188C21.6599 18.5261 21.8043 18.9406 21.8796 18.9406ZM19.855 10.8095C23.7195 11.5948 24.926 12.8417 26.9649 15.1621C26.1533 11.0965 18.3844 7.36579 12.8284 10.4747L14.3932 10.8095C11.6058 11.5535 10.5213 12.8184 9.44717 14.4446C12.4627 12.9141 14.0636 11.3835 18.16 10.8095L18.1146 11.7661C19.9214 12.2785 20.6554 12.5498 21.5861 13.3445L22.4336 13.1532C21.7544 12.0424 21.1442 11.8561 19.7137 11.3835L19.855 10.8095ZM17.4066 27.4064L18.8191 26.0673C14.2519 27.1195 11.6583 29.3881 8.41351 32.4286L7.00098 32.2851C6.13668 33.3027 4.8475 34.49 4.08174 35.681V38.4073C4.98576 36.0865 5.96928 34.686 7.00098 33.9112C8.50768 35.2506 11.006 29.7388 17.4066 27.4064ZM14.4403 30.5633L17.7833 28.9849L17.9245 28.2674C16.1091 28.6053 14.3838 29.3479 10.5323 33.5287H9.5435C9.48079 34.0708 9.21391 35.2984 9.21391 35.2984C9.21391 35.2984 9.74757 35.5376 9.87309 35.5376L10.1085 34.2462L11.2385 34.4375C11.2072 34.1983 11.2385 33.6722 11.2385 33.6722C11.2385 33.6722 13.4044 32.1257 14.4403 31.5198V30.5633ZM6.53013 38.0391C6.53013 38.4353 6.21393 38.7565 5.82387 38.7565C5.43381 38.7565 5.1176 38.4353 5.1176 38.0391C5.1176 37.6428 5.43381 37.3216 5.82387 37.3216C5.98286 37.3216 6.12959 37.375 6.24763 37.465L7.70725 35.9202L9.87309 36.6376C13.0748 33.6722 13.9201 32.5233 17.7833 31.2329L16.6062 32.9069C16.6062 32.9069 15.3707 32.9722 10.2498 37.5942L8.69602 39.8422L7.70725 42.1859L4.92926 44.8644L7.33057 39.8422L8.69602 37.465L7.8485 37.0203L6.53013 38.0391ZM10.5794 49.1689C10.5794 49.5651 10.2632 49.8863 9.87309 49.8863C9.48305 49.8863 9.16683 49.5651 9.16683 49.1689C9.16683 48.9611 9.25384 48.774 9.39283 48.6429L10.2498 45.3427L12.1298 43.573L15.7476 37.5942L16.7835 38.6465L18.1019 38.3047L17.9245 36.3985L18.9494 35.1549L19.8911 36.3985L18.9494 37.3551V39.8422L17.066 40.6075L16.0772 40.1222L15.6064 41.325V48.4514L13.3934 51.0344V55.1376C13.4867 55.2592 13.5423 55.4122 13.5423 55.5782C13.5423 55.9745 13.2261 56.2957 12.836 56.2957C12.4459 56.2957 12.1298 55.9745 12.1298 55.5782C12.1298 55.347 12.2374 55.1413 12.4046 55.0101V50.5561L14.2409 48.2125V43.2382L14.6176 42.6164V41.325L12.593 44.8644L11.0392 46.2514L10.4383 48.7386C10.5269 48.8584 10.5794 49.0075 10.5794 49.1689ZM10.5323 41.325L6.53013 45.0077L8.41351 44.5296L12.1298 41.7554L13.8172 37.5942L17.7833 34.9158L18.0077 32.9069L12.6401 37.0203L10.5323 41.325ZM15.3315 54.2874C15.7216 54.2874 16.0378 53.9662 16.0378 53.57C16.0378 53.1737 15.7216 52.8525 15.3315 52.8525C14.9414 52.8525 14.6252 53.1737 14.6252 53.57C14.6252 53.9662 14.9414 54.2874 15.3315 54.2874ZM18.714 42.7599C19.104 42.7599 19.4202 42.4386 19.4202 42.0424C19.4202 41.6462 19.104 41.325 18.714 41.325C18.3239 41.325 18.0077 41.6462 18.0077 42.0424C18.0077 42.4386 18.3239 42.7599 18.714 42.7599ZM32.8864 65.3355C33.2764 65.3355 33.5927 65.0143 33.5927 64.6181C33.5927 64.2219 33.2764 63.9006 32.8864 63.9006C32.4963 63.9006 32.1801 64.2219 32.1801 64.6181C32.1801 65.0143 32.4963 65.3355 32.8864 65.3355ZM5.63206 29.9893C5.63206 30.3855 5.31586 30.7067 4.9258 30.7067C4.53574 30.7067 4.21953 30.3855 4.21953 29.9893C4.21953 29.7104 4.37629 29.4685 4.60521 29.3498L7.97872 25.3498L12.3465 24.9566L13.3463 24L14.3932 24.9566C14.3932 24.9566 13.8692 25.5502 13.2992 25.9238L8.68498 26.4499L5.61163 29.8173C5.62498 29.8724 5.63206 29.93 5.63206 29.9893ZM6.04825 21.038C6.43832 21.038 6.75452 20.7168 6.75452 20.3206C6.75452 19.9243 6.43832 19.6031 6.04825 19.6031C5.6582 19.6031 5.34199 19.9243 5.34199 20.3206C5.34199 20.7168 5.6582 21.038 6.04825 21.038ZM18.6308 43.573C18.6308 43.573 18.1569 43.2896 17.642 43.0468L17.1241 43.8839L16.6062 44.7209V50.5561L15.6064 52.2302L16.4539 52.8525L17.7473 50.5561V45.534L18.6308 43.573ZM18.8552 58.3045V59.2133L17.066 57.7306V53.57L19.3731 50.4126L18.714 49.8863V45.7253L20.2677 44.1469V40.9902L21.1153 39.5553V44.3382L19.4673 45.9166V49.0664L20.6444 50.1735L19.6149 51.7519H21.7744V45.3905L22.6152 46.2444V52.0867V55.8582L24.4583 57.7306V60.5047L26.5771 62.6571H27.8954V64.0441H26.0591L23.0457 60.983V57.9697L21.7744 56.6783V52.8525H18.8968L18.0548 54.1434V57.4914L18.8552 58.3045ZM26.2761 60.1221V54.9086H25.7766V51.7519L26.2761 52.6128L26.3416 53.8564H27.2362V59.2133L29.7604 61.1743V61.844L31.3797 63.4223L30.9088 64.1398L29.5905 63.3267V64.6659L30.438 65.5679L30.9088 65.0007L31.4268 65.8138L30.6263 66.7226L28.6017 64.5703V61.844L26.2761 60.1221ZM20.3211 55.3868C20.7112 55.3868 21.0274 55.0656 21.0274 54.6694C21.0274 54.2732 20.7112 53.9519 20.3211 53.9519C19.931 53.9519 19.6149 54.2732 19.6149 54.6694C19.6149 55.0656 19.931 55.3868 20.3211 55.3868ZM24.8349 49.743L23.9874 48.4514V56.0087L24.9762 57.0131V60.1221H25.5412V56.2957L24.8349 55.5782V49.743ZM31.4739 55.6261V62.7049L30.6734 61.8918V54.813L31.4739 55.6261ZM28.9784 54.6626L28.1847 53.8564V59.0289L30.1084 60.5047V59.1655L28.9784 58.3045V54.6626ZM30.0613 55.2703L29.4963 54.7852V57.9219H30.0613V55.2703ZM9.01457 29.7023L10.2388 29.9893L13.8643 27.1195L12.1692 27.0717L9.01457 29.7023ZM7.96769 24.6324L12.3465 22.1452L12.9171 22.5518L13.4876 22.9583L10.5683 24.3932L7.96769 24.6324ZM6.89577 22.4322L10.945 19.7537L11.186 20.8777L11.7565 21.2843L7.60204 23.6279L4.0707 27.837L4.16487 25.9238L6.89577 22.4322ZM6.94286 19.0363L5.71866 18.9406C6.98869 17.2115 8.29869 16.6859 10.945 15.9752L9.81499 17.9362C8.5772 18.3838 8.03707 18.6118 7.17828 19.4189L6.94286 19.0363ZM6.00117 22.2409L7.17828 20.8777L7.4137 20.1033C8.41191 19.5458 8.94924 19.2054 9.95625 18.6058L10.8509 19.2276L6.33076 22.1452L6.00117 22.2409ZM23.187 9.66162C25.6762 11.3954 26.7872 12.4312 27.8013 14.4924C27.9425 13.1054 27.8269 12.1051 24.5053 9.18332L24.2228 9.51813L22.8574 8.70503L22.057 9.51813L22.8574 9.90077L23.187 9.66162ZM21.8796 7.65277C23.8462 7.74843 25.8237 8.84852 28.6959 12.1966C28.1309 9.42247 25.353 7.09165 22.057 6.93532V6.4092L19.7137 5.97873L19.5615 6.50486C16.501 5.40477 13.8643 6.19693 12.593 7.15352C15.2768 7.01003 17.2543 6.4092 19.3261 7.31796L19.1848 8.51371L21.5971 8.94418L21.8796 7.65277ZM24.6937 3.39592C29.5905 2.15234 32.4155 10.9052 31.1913 14.1576C30.6882 10.9769 30.3909 10.4747 29.7299 8.56154L29.2138 9.18332C29.7788 10.6661 30.0333 11.4792 29.8527 12.7227C29.1387 11.0965 28.9569 10.0641 27.8013 8.94418L28.991 7.46145C27.7071 5.26128 26.4559 4.82089 24.6937 3.39592ZM31.0972 2.31975L30.4851 1.86536L30.3909 5.73958L31.568 7.46145C32.0082 9.80483 32.1909 10.3658 32.4626 10.7617V7.46145L31.0501 5.38085L31.0972 2.31975ZM52.6508 18.6946C52.4931 19.8482 52.2686 20.4742 51.3796 21.5165C56.9808 19.3162 50.9536 8.36313 47.6582 13.9114C51.0011 11.9504 53.7781 16.255 51.3307 20.0813L52.6508 18.6946ZM50.7657 19.6031L50.4832 18.8379C50.8609 17.4718 50.3082 16.4956 49.1177 15.6333L49.7769 15.1071C50.5303 13.3853 53.167 16.9725 50.7657 19.6031ZM45.5411 23.2931L45.9178 23.8671C47.5765 24.2279 48.3983 24.5928 49.7638 25.3889C48.5983 24.0908 47.7007 23.5984 45.5411 23.2931ZM45.0702 22.2887C47.4262 22.5577 48.5425 23.0025 50.2495 24.2019C48.6447 22.0605 47.3731 21.3581 44.0857 21.5165L45.0702 22.2887ZM43.9873 20.6625C46.5889 20.5208 47.7697 21.1396 49.7677 22.5277C47.8011 20.3277 47.1354 19.7542 42.9513 19.945L43.9873 20.6625ZM44.5052 18.9406C47.2513 19.0472 48.2985 19.6686 49.6374 21.3799C48.6357 19.1879 47.6443 18.4502 45.2586 17.8405C44.8435 18.1612 44.6862 18.4089 44.5052 18.9406ZM44.7877 17.2187C47.2097 17.5474 48.6126 18.5101 49.5543 19.8015C49.2247 16.9796 45.3754 14.883 40.3146 16.1665C41.9737 16.6448 43.2806 16.36 44.8819 16.7404L44.7877 17.2187ZM41.2092 13.9114C46.3885 13.4402 46.2944 14.8272 48.4603 16.5491C46.2944 15.6333 44.9488 14.5842 41.1151 14.8272L41.2092 13.9114ZM43.8931 18.9406H42.6218C42.2063 18.2159 41.6625 17.9406 40.7855 17.4101L43.7048 17.5057L44.1756 18.3188C44.1128 18.5261 43.9685 18.9406 43.8931 18.9406ZM45.9178 10.8095C42.0534 11.5948 40.8468 12.8417 38.8079 15.1621C39.6195 11.0965 47.3884 7.36579 52.9444 10.4747L51.3796 10.8095C54.167 11.5535 55.2515 12.8184 56.3256 14.4446C53.31 12.9141 51.7092 11.3835 47.6128 10.8095L47.6582 11.7661C45.8515 12.2785 45.1174 12.5498 44.1867 13.3445L43.3391 13.1532C44.007 12.0611 44.6081 11.8627 45.9875 11.4071L46.059 11.3835L45.9178 10.8095ZM48.3662 27.4064L46.9536 26.0673C51.5208 27.1195 54.1145 29.3881 57.3593 32.4286L58.7718 32.2851C59.6361 33.3027 60.9253 34.49 61.6911 35.681V38.4073C60.787 36.0865 59.8035 34.686 58.7718 33.9112C57.2651 35.2506 54.7667 29.7388 48.3662 27.4064ZM51.3325 30.5633L47.9895 28.9849L47.8482 28.2674C49.6636 28.6053 51.389 29.3479 55.2405 33.5287H56.2293C56.2921 34.0708 56.5589 35.2984 56.5589 35.2984C56.5589 35.2984 56.0252 35.5376 55.8997 35.5376L55.6642 34.2462L54.5342 34.4375C54.5656 34.1983 54.5342 33.6722 54.5342 33.6722C54.5342 33.6722 52.3683 32.1257 51.3325 31.5198V30.5633ZM59.9489 38.7565C59.5589 38.7565 59.2427 38.4353 59.2427 38.0391L57.9243 37.0203L57.0768 37.465L58.4422 39.8422L60.8435 44.8644L58.0656 42.1859L57.0768 39.8422L55.523 37.5942C50.4022 32.9722 49.1666 32.9069 49.1666 32.9069L47.9895 31.2329C51.8528 32.5233 52.6979 33.6722 55.8997 36.6376L58.0656 35.9202L59.5252 37.465C59.6433 37.375 59.79 37.3216 59.9489 37.3216C60.339 37.3216 60.6552 37.6428 60.6552 38.0391C60.6552 38.4353 60.339 38.7565 59.9489 38.7565ZM55.8997 49.8863C55.5096 49.8863 55.1934 49.5651 55.1934 49.1689C55.1934 49.0075 55.2459 48.8584 55.3345 48.7386L54.7336 46.2514L53.1798 44.8644L51.1552 41.325V42.6164L51.5318 43.2382V48.2125L53.3681 50.5561V55.0101C53.5354 55.1413 53.6431 55.347 53.6431 55.5782C53.6431 55.9745 53.3269 56.2957 52.9368 56.2957C52.5468 56.2957 52.2306 55.9745 52.2306 55.5782C52.2306 55.4122 52.2861 55.2592 52.3794 55.1376V51.0344L50.1664 48.4514V41.325L49.6955 40.1222L48.7068 40.6075L46.8234 39.8422V37.3551L45.8817 36.3985L46.8234 35.1549L47.8482 36.3985L47.6709 38.3047L48.9893 38.6465L50.0251 37.5942L53.6431 43.573L55.523 45.3427L56.38 48.6429C56.519 48.774 56.6059 48.9611 56.6059 49.1689C56.6059 49.5651 56.2897 49.8863 55.8997 49.8863ZM55.2405 41.325L59.2427 45.0077L57.3593 44.5296L53.6431 41.7554L51.9557 37.5942L47.9895 34.9158L47.7652 32.9069L53.1328 37.0203L55.2405 41.325ZM50.4414 54.2874C50.0513 54.2874 49.7351 53.9662 49.7351 53.57C49.7351 53.1737 50.0513 52.8525 50.4414 52.8525C50.8314 52.8525 51.1476 53.1737 51.1476 53.57C51.1476 53.9662 50.8314 54.2874 50.4414 54.2874ZM47.0588 42.7599C46.6688 42.7599 46.3525 42.4386 46.3525 42.0424C46.3525 41.6462 46.6688 41.325 47.0588 41.325C47.4489 41.325 47.7651 41.6462 47.7651 42.0424C47.7651 42.4386 47.4489 42.7599 47.0588 42.7599ZM60.847 30.7067C60.457 30.7067 60.1408 30.3855 60.1408 29.9893C60.1408 29.93 60.1478 29.8724 60.1612 29.8173L57.0878 26.4499L52.4735 25.9238C51.9035 25.5502 51.3796 24.9566 51.3796 24.9566L52.4264 24L53.4262 24.9566L57.7941 25.3498L61.1676 29.3498C61.3965 29.4685 61.5533 29.7104 61.5533 29.9893C61.5533 30.3855 61.2371 30.7067 60.847 30.7067ZM59.7245 21.038C59.3345 21.038 59.0183 20.7168 59.0183 20.3206C59.0183 19.9243 59.3345 19.6031 59.7245 19.6031C60.1146 19.6031 60.4308 19.9243 60.4308 20.3206C60.4308 20.7168 60.1146 21.038 59.7245 21.038ZM47.142 43.573C47.142 43.573 47.6159 43.2896 48.1307 43.0468L48.6487 43.8839L49.1666 44.7209V50.5561L50.1664 52.2302L49.3189 52.8525L48.0255 50.5561V45.534L47.142 43.573ZM46.9176 58.3045V59.2133L48.7068 57.7306V53.57L46.3996 50.4126L47.0588 49.8863V45.7253L45.505 44.1469V40.9902L44.6575 39.5553V44.3382L46.3055 45.9166V49.0664L45.1283 50.1735L46.158 51.7519H43.9983V45.3905L43.1577 46.2444V52.0867V55.8582L41.3145 57.7306V60.5047L39.1957 62.6571H37.8773V64.0441H39.7136L42.727 60.983V57.9697L43.9983 56.6783V52.8525H46.876L47.718 54.1434V57.4914L46.9176 58.3045ZM39.4967 60.1221V54.9086H39.9961V51.7519L39.4967 52.6128L39.4311 53.8564H38.5365V59.2133L36.0125 61.1743V61.844L34.3931 63.4223L34.8639 64.1398L36.1823 63.3267V64.6659L35.3348 65.5679L34.8639 65.0007L34.346 65.8138L35.1464 66.7226L37.1711 64.5703V61.844L39.4967 60.1221ZM45.4517 55.3868C45.0617 55.3868 44.7455 55.0656 44.7455 54.6694C44.7455 54.2732 45.0617 53.9519 45.4517 53.9519C45.8418 53.9519 46.158 54.2732 46.158 54.6694C46.158 55.0656 45.8418 55.3868 45.4517 55.3868ZM40.9378 49.743L41.7854 48.4514V56.0087L40.7966 57.0131V60.1221H40.2316V56.2957L40.9378 55.5782V49.743ZM34.2989 55.6261V62.7049L35.0994 61.8918V54.813L34.2989 55.6261ZM36.7944 54.6626L37.5881 53.8564V59.0289L35.6644 60.5047V59.1655L36.7944 58.3045V54.6626ZM35.7115 55.2703L36.2765 54.7852V57.9219H35.7115V55.2703ZM56.7582 29.7023L55.534 29.9893L51.9085 27.1195L53.6036 27.0717L56.7582 29.7023ZM57.8051 24.6324L53.4262 22.1452L52.8558 22.5518L52.2852 22.9583L55.2044 24.3932L57.8051 24.6324ZM58.877 22.4322L54.8277 19.7537L54.5869 20.8777L54.0163 21.2843L58.1707 23.6279L61.7021 27.837L61.6079 25.9238L58.877 22.4322ZM58.8299 19.0363L60.0541 18.9406C58.7842 17.2115 57.4741 16.6859 54.8277 15.9752L55.9578 17.9362C57.1956 18.3838 57.7358 18.6118 58.5945 19.4189L58.8299 19.0363ZM59.7716 22.2409L58.5945 20.8777L58.3591 20.1033C57.3609 19.5458 56.8236 19.2054 55.8165 18.6058L54.9219 19.2276L59.442 22.1452L59.7716 22.2409ZM42.5858 9.66162C40.0967 11.3954 38.9856 12.4312 37.9715 14.4924C37.8303 13.1054 37.9459 12.1051 41.2674 9.18332L41.5499 9.51813L42.9154 8.70503L43.7158 9.51813L42.9154 9.90077L42.5858 9.66162ZM43.8931 7.65277C41.9266 7.74843 39.9491 8.84852 37.0769 12.1966C37.6419 9.42247 40.4198 7.09165 43.7158 6.93532V6.4092L46.059 5.97873L46.2113 6.50486C49.2718 5.40477 51.9085 6.19693 53.1798 7.15352C50.496 7.01003 48.5184 6.4092 46.4467 7.31796L46.588 8.51371L44.1756 8.94418L43.8931 7.65277ZM41.0791 3.39592C36.1823 2.15234 33.3572 10.9052 34.5814 14.1576C35.0847 10.9769 35.3819 10.4747 36.0429 8.56154L36.559 9.18332C35.994 10.6661 35.7394 11.4792 35.9201 12.7227C36.634 11.0965 36.816 10.0641 37.9715 8.94418L36.7818 7.46145C38.0657 5.26128 39.317 4.82089 41.0791 3.39592ZM34.6756 2.31975L35.2877 1.86536L35.3819 5.73958L34.2048 7.46145C33.7647 9.80483 33.5819 10.3658 33.3101 10.7617V7.46145L34.7227 5.38085L34.6756 2.31975Z" fill="url(#paint4_radial_1778_17289)"/>
</g>
</g>
</g>
<defs>
<filter id="filter0_d_1778_17289" x="66.1895" y="14.624" width="90.123" height="49.616" filterUnits="userSpaceOnUse" color-interpolation-filters="sRGB">
<feFlood flood-opacity="0" result="BackgroundImageFix"/>
<feColorMatrix in="SourceAlpha" type="matrix" values="0 0 0 0 0 0 0 0 0 0 0 0 0 0 0 0 0 0 127 0" result="hardAlpha"/>
<feOffset dy="5"/>
<feGaussianBlur stdDeviation="2"/>
<feComposite in2="hardAlpha" operator="out"/>
<feColorMatrix type="matrix" values="0 0 0 0 0.960784 0 0 0 0 0.960784 0 0 0 0 0.960784 0 0 0 0.5 0"/>
<feBlend mode="normal" in2="BackgroundImageFix" result="effect1_dropShadow_1778_17289"/>
<feBlend mode="normal" in="SourceGraphic" in2="effect1_dropShadow_1778_17289" result="shape"/>
</filter>
<filter id="filter1_d_1778_17289" x="16.2979" y="26.4867" width="16.1709" height="14.5606" filterUnits="userSpaceOnUse" color-interpolation-filters="sRGB">
<feFlood flood-opacity="0" result="BackgroundImageFix"/>
<feColorMatrix in="SourceAlpha" type="matrix" values="0 0 0 0 0 0 0 0 0 0 0 0 0 0 0 0 0 0 127 0" result="hardAlpha"/>
<feOffset dy="5"/>
<feGaussianBlur stdDeviation="2"/>
<feComposite in2="hardAlpha" operator="out"/>
<feColorMatrix type="matrix" values="0 0 0 0 0 0 0 0 0 0 0 0 0 0 0 0 0 0 0.3 0"/>
<feBlend mode="normal" in2="BackgroundImageFix" result="effect1_dropShadow_1778_17289"/>
<feBlend mode="normal" in="SourceGraphic" in2="effect1_dropShadow_1778_17289" result="shape"/>
</filter>
<filter id="filter2_d_1778_17289" x="18.3096" y="27.4562" width="12.1953" height="11.0579" filterUnits="userSpaceOnUse" color-interpolation-filters="sRGB">
<feFlood flood-opacity="0" result="BackgroundImageFix"/>
<feColorMatrix in="SourceAlpha" type="matrix" values="0 0 0 0 0 0 0 0 0 0 0 0 0 0 0 0 0 0 127 0" result="hardAlpha"/>
<feOffset dy="5"/>
<feGaussianBlur stdDeviation="2"/>
<feComposite in2="hardAlpha" operator="out"/>
<feColorMatrix type="matrix" values="0 0 0 0 0 0 0 0 0 0 0 0 0 0 0 0 0 0 0.3 0"/>
<feBlend mode="normal" in2="BackgroundImageFix" result="effect1_dropShadow_1778_17289"/>
<feBlend mode="normal" in="SourceGraphic" in2="effect1_dropShadow_1778_17289" result="shape"/>
</filter>
<filter id="filter3_d_1778_17289" x="33.5137" y="26.4868" width="16.1709" height="14.5606" filterUnits="userSpaceOnUse" color-interpolation-filters="sRGB">
<feFlood flood-opacity="0" result="BackgroundImageFix"/>
<feColorMatrix in="SourceAlpha" type="matrix" values="0 0 0 0 0 0 0 0 0 0 0 0 0 0 0 0 0 0 127 0" result="hardAlpha"/>
<feOffset dy="5"/>
<feGaussianBlur stdDeviation="2"/>
<feComposite in2="hardAlpha" operator="out"/>
<feColorMatrix type="matrix" values="0 0 0 0 0 0 0 0 0 0 0 0 0 0 0 0 0 0 0.3 0"/>
<feBlend mode="normal" in2="BackgroundImageFix" result="effect1_dropShadow_1778_17289"/>
<feBlend mode="normal" in="SourceGraphic" in2="effect1_dropShadow_1778_17289" result="shape"/>
</filter>
<filter id="filter4_d_1778_17289" x="35.4785" y="27.4562" width="12.1953" height="11.0579" filterUnits="userSpaceOnUse" color-interpolation-filters="sRGB">
<feFlood flood-opacity="0" result="BackgroundImageFix"/>
<feColorMatrix in="SourceAlpha" type="matrix" values="0 0 0 0 0 0 0 0 0 0 0 0 0 0 0 0 0 0 127 0" result="hardAlpha"/>
<feOffset dy="5"/>
<feGaussianBlur stdDeviation="2"/>
<feComposite in2="hardAlpha" operator="out"/>
<feColorMatrix type="matrix" values="0 0 0 0 0 0 0 0 0 0 0 0 0 0 0 0 0 0 0.3 0"/>
<feBlend mode="normal" in2="BackgroundImageFix" result="effect1_dropShadow_1778_17289"/>
<feBlend mode="normal" in="SourceGraphic" in2="effect1_dropShadow_1778_17289" result="shape"/>
</filter>
<filter id="filter5_d_1778_17289" x="-3.96973" y="0" width="73.7119" height="79.5968" filterUnits="userSpaceOnUse" color-interpolation-filters="sRGB">
<feFlood flood-opacity="0" result="BackgroundImageFix"/>
<feColorMatrix in="SourceAlpha" type="matrix" values="0 0 0 0 0 0 0 0 0 0 0 0 0 0 0 0 0 0 127 0" result="hardAlpha"/>
<feOffset dy="5"/>
<feGaussianBlur stdDeviation="2"/>
<feComposite in2="hardAlpha" operator="out"/>
<feColorMatrix type="matrix" values="0 0 0 0 0 0 0 0 0 0 0 0 0 0 0 0 0 0 0.3 0"/>
<feBlend mode="normal" in2="BackgroundImageFix" result="effect1_dropShadow_1778_17289"/>
<feBlend mode="normal" in="SourceGraphic" in2="effect1_dropShadow_1778_17289" result="shape"/>
</filter>
<linearGradient id="paint0_linear_1778_17289" x1="20.5604" y1="27.1673" x2="28.3475" y2="31.8416" gradientUnits="userSpaceOnUse">
<stop stop-color="#F7F7F7"/>
<stop offset="1" stop-color="#373838"/>
</linearGradient>
<linearGradient id="paint1_linear_1778_17289" x1="22.35" y1="27.5021" x2="26.5173" y2="29.4601" gradientUnits="userSpaceOnUse">
<stop stop-color="#F7F7F7"/>
<stop offset="1" stop-color="#373838" stop-opacity="0.59"/>
</linearGradient>
<linearGradient id="paint2_linear_1778_17289" x1="45.5158" y1="27.1195" x2="37.6348" y2="31.7931" gradientUnits="userSpaceOnUse">
<stop stop-color="#F7F7F7"/>
<stop offset="1" stop-color="#373838"/>
</linearGradient>
<linearGradient id="paint3_linear_1778_17289" x1="43.7271" y1="27.5021" x2="39.466" y2="29.4597" gradientUnits="userSpaceOnUse">
<stop stop-color="#F7F7F7"/>
<stop offset="1" stop-color="#373838"/>
</linearGradient>
<radialGradient id="paint4_radial_1778_17289" cx="0" cy="0" r="1" gradientUnits="userSpaceOnUse" gradientTransform="translate(32.8864 35.2984) rotate(90) scale(35.2984 32.8561)">
<stop stop-color="#F7F7F7"/>
<stop offset="0.764729" stop-color="#373838"/>
</radialGradient>
<clipPath id="clip0_1778_17289">
<rect width="66" height="71" fill="white"/>
</clipPath>
<clipPath id="clip1_1778_17289">
<rect width="68" height="73" fill="white" transform="translate(-1 -1)"/>
</clipPath>
</defs>
</svg>
